<svg width="138" height="37" viewBox="0 0 138 37" fill="none" xmlns="http://www.w3.org/2000/svg">
<g clip-path="url(#clip0)">
<path d="M57.0698 9.76259C55.3024 8.02369 53.1628 7.17773 50.5582 7.17773C47.9535 7.17773 45.814 8.02369 44.0465 9.76259C42.2791 11.5015 41.3954 13.6164 41.3954 16.2012C41.3954 18.7391 42.2791 20.901 44.0465 22.5929C45.814 24.3318 47.9535 25.1777 50.5582 25.1777C53.1628 25.1777 55.3024 24.3318 57.0698 22.5929C58.8372 20.854 59.6745 18.7391 59.6745 16.2012C59.6745 13.6164 58.7907 11.5015 57.0698 9.76259ZM53.8605 19.585C52.9768 20.478 51.8605 20.948 50.5117 20.948C49.1628 20.948 48.0465 20.478 47.1628 19.585C46.2791 18.6921 45.814 17.5642 45.814 16.2012C45.814 14.8383 46.2791 13.7104 47.1628 12.8174C48.0465 11.9245 49.1628 11.4545 50.5117 11.4545C51.8605 11.4545 52.9768 11.9245 53.8605 12.8174C54.7442 13.7104 55.1628 14.8383 55.1628 16.2012C55.2093 17.5172 54.7442 18.6921 53.8605 19.585Z" fill="#EDEEEF"/>
<path d="M75.6278 9.01063C74.4185 7.7887 72.7906 7.17773 70.7906 7.17773C68.5581 7.17773 66.7441 7.92969 65.3953 9.48061V7.60071H61.0697V24.7548H65.3953V15.3553C65.3953 14.1803 65.7674 13.2404 66.5116 12.5354C67.2557 11.8305 68.186 11.4545 69.3953 11.4545C70.5116 11.4545 71.4418 11.7835 72.093 12.4884C72.7906 13.1934 73.1162 14.1333 73.1162 15.2613V24.7548H77.4883V13.8514C77.4883 11.8305 76.8371 10.1856 75.6278 9.01063Z" fill="#EDEEEF"/>
<path d="M94.3255 9.76259C92.5581 8.02369 90.4186 7.17773 87.8139 7.17773C85.2093 7.17773 83.0232 8.02369 81.3023 9.76259C79.5348 11.5015 78.6511 13.6164 78.6511 16.2012C78.6511 18.7391 79.5348 20.901 81.3023 22.5929C83.0697 24.3318 85.2093 25.1777 87.8139 25.1777C90.4186 25.1777 92.5581 24.3318 94.3255 22.5929C96.093 20.854 96.9302 18.7391 96.9302 16.2012C96.9767 13.6164 96.093 11.5015 94.3255 9.76259ZM91.1628 19.585C90.279 20.478 89.1628 20.948 87.8139 20.948C86.4651 20.948 85.3488 20.478 84.4651 19.585C83.5814 18.6921 83.1162 17.5642 83.1162 16.2012C83.1162 14.8383 83.5814 13.7104 84.4651 12.8174C85.3488 11.9245 86.4651 11.4545 87.8139 11.4545C89.1628 11.4545 90.279 11.9245 91.1628 12.8174C92.0465 13.7104 92.4651 14.8383 92.4651 16.2012C92.4651 17.5172 92.0465 18.6921 91.1628 19.585Z" fill="#EDEEEF"/>
<path d="M112.279 0.550781V9.62128C110.791 7.97637 108.977 7.17741 106.744 7.17741C104.372 7.17741 102.419 8.02337 100.837 9.76227C99.2558 11.5012 98.4651 13.6161 98.4651 16.2009C98.4651 18.7388 99.2558 20.9007 100.837 22.5926C102.419 24.3315 104.372 25.1774 106.744 25.1774C108.93 25.1774 110.791 24.3785 112.279 22.7335V24.8014H116.605V0.550781H112.279ZM110.93 19.5847C110.046 20.4777 108.93 20.9476 107.581 20.9476C106.233 20.9476 105.116 20.4777 104.233 19.5847C103.349 18.6918 102.884 17.5638 102.884 16.2009C102.884 14.838 103.349 13.7101 104.233 12.8171C105.116 11.9241 106.233 11.4542 107.581 11.4542C108.93 11.4542 110.046 11.9241 110.93 12.8171C111.814 13.7101 112.279 14.838 112.279 16.2009C112.279 17.5168 111.814 18.6448 110.93 19.5847Z" fill="#EDEEEF"/>
<path d="M124.233 11.9716C125.023 11.3136 125.907 10.9846 126.977 10.9846C128.047 10.9846 128.93 11.3136 129.721 11.9716C130.512 12.5826 131.023 13.4285 131.302 14.5094H122.651C122.977 13.4285 123.488 12.6296 124.233 11.9716ZM126.791 20.9011C124.605 20.9011 123.163 19.4442 122.698 17.7523V17.6583H135.907C135.954 17.1883 136 16.6713 136 16.1544C136 13.5695 135.163 11.4076 133.442 9.71572C131.721 8.02381 129.628 7.13086 127.07 7.13086C125.395 7.13086 123.86 7.50684 122.465 8.30579C121.07 9.10475 120 10.1387 119.209 11.5016C118.698 12.3946 118.326 13.3815 118.14 14.4155C118.047 14.9324 118 15.4964 118 16.0134C118 16.2484 118 16.4833 118.047 16.7183C118.14 18.1282 118.512 19.3972 119.209 20.5721C119.209 20.6191 119.256 20.6191 119.256 20.6661C119.349 20.8541 119.488 21.0891 119.674 21.2771C121.256 23.4859 123.814 24.7549 126.512 24.7549H135.767L138.047 20.8541H126.791V20.9011Z" fill="#EDEEEF"/>
<path d="M40.0465 16.2012C40.0465 13.6164 39.2093 11.4545 37.4884 9.76259C35.7674 8.07068 33.6744 7.17773 31.1163 7.17773C29.4419 7.17773 27.907 7.55371 26.5116 8.35267C25.1163 9.15162 24.0465 10.1856 23.2558 11.5485C22.4651 12.9114 22.0465 14.4153 22.0465 16.1072C22.0465 17.7991 22.4651 19.3501 23.2558 20.713C24.093 22.1229 25.2093 23.2038 26.6512 24.0028C28.093 24.8018 29.7209 25.1777 31.4884 25.1777C33.0698 25.1777 34.5116 24.8957 35.8605 24.2848C37.0698 23.7208 38.1395 22.9689 38.9767 21.9819L35.907 19.632C35.4884 20.055 34.9767 20.431 34.3256 20.713C33.4884 21.136 32.6046 21.3239 31.5814 21.3239C30.3721 21.3239 29.3023 20.995 28.4651 20.384C27.6279 19.726 27.0233 18.8801 26.7442 17.7991H39.907C40.0465 17.2822 40.0465 16.7652 40.0465 16.2012ZM26.7907 14.5093C27.0698 13.4754 27.5814 12.6294 28.3721 11.9715C29.1628 11.3135 30.093 10.9845 31.1163 10.9845C32.186 10.9845 33.0698 11.3135 33.8605 11.9715C34.6512 12.5824 35.1628 13.4284 35.4419 14.5093H26.7907Z" fill="#EDEEEF"/>
<path d="M16.3256 24.754H10.4651C9.95349 24.754 9.48837 24.6131 9.16279 24.3311C8.83721 24.0491 8.65116 23.7201 8.65116 23.2971C8.65116 22.6392 8.93023 22.1692 9.53488 21.7932C10.4651 22.0752 11.3953 22.2162 12.3256 22.2162C14.6047 22.2162 16.5116 21.5112 18.0465 20.0543C19.5814 18.5974 20.3256 16.8115 20.3256 14.6966C20.3256 13.0047 19.8605 11.5008 18.8372 10.2319C18.8837 8.96293 20 7.74099 21.8605 7.694V3.69922C17.7674 3.69922 16.2326 6.56606 16 7.97598C14.8372 7.45901 13.5814 7.17703 12.2791 7.17703C10 7.17703 8.09302 7.88199 6.60465 9.33891C5.06977 10.7958 4.32558 12.5817 4.32558 14.7436C4.32558 16.8585 5.06977 18.6444 6.60465 20.1013C5.90698 20.5243 5.34884 21.1353 4.93023 21.9342C4.51163 22.6862 4.27907 23.5321 4.27907 24.4251C4.27907 25.788 4.74419 26.9159 5.67442 27.7619C6.65116 28.6078 7.95349 29.0308 9.53488 29.0308H16.186C17.3023 29.0308 18.1395 29.6418 18.1395 30.8167C18.1395 31.2867 17.9535 31.7097 17.7209 31.9916C17.3953 32.3206 16.9767 32.4616 16.5581 32.4616H2.4186L0 36.5504H17.0698C18.1395 36.5504 19.2093 36.3154 20.1395 35.7514C21.3023 35.0465 22.186 33.9655 22.5581 32.4146C22.6977 31.8977 22.7442 31.3337 22.7442 30.7227C22.7907 26.5869 19.1163 24.754 16.3256 24.754ZM9.81395 12.2997C10.4651 11.6418 11.3488 11.3128 12.3256 11.3128C13.3488 11.3128 14.186 11.6418 14.8372 12.2997C15.5349 12.9577 15.8605 13.7567 15.8605 14.7436C15.8605 15.7306 15.5349 16.5295 14.8372 17.1875C14.186 17.8454 13.3023 18.1744 12.3256 18.1744C11.3023 18.1744 10.4651 17.8454 9.81395 17.1875C9.16279 16.5295 8.83721 15.7306 8.83721 14.7436C8.7907 13.7567 9.11628 12.9577 9.81395 12.2997Z" fill="#EDEEEF"/>
<path d="M121.721 32.1797L119.349 36.1745H31.2559L33.628 32.1797H121.721Z" fill="#EDEEEF"/>
<path d="M132.465 32.1328L130.047 36.2216H124.186L126.558 32.1328H132.465Z" fill="#EDEEEF"/>
</g>
<defs>
<clipPath id="clip0">
<rect width="138" height="36" fill="white" transform="translate(0 0.550781)"/>
</clipPath>
</defs>
</svg>
