<svg width="128" height="128" viewBox="0 0 128 128" fill="none" xmlns="http://www.w3.org/2000/svg">
<path d="M108.881 44.9057V54.1166C108.876 55.7351 108.551 57.3366 107.927 58.8297C107.302 60.3228 106.39 61.6782 105.241 62.8186C104.093 63.959 102.731 64.8621 101.234 65.4762C99.7361 66.0904 98.1324 66.4035 96.514 66.3979H30.3672C28.7488 66.4035 27.1451 66.0904 25.6476 65.4762C24.1502 64.8621 22.7885 63.959 21.6401 62.8186C20.4916 61.6782 19.5791 60.3228 18.9546 58.8297C18.33 57.3366 18.0056 55.7351 18 54.1166V44.9057C18.0056 43.2873 18.33 41.6858 18.9546 40.1927C19.5791 38.6996 20.4916 37.3442 21.6401 36.2037C22.7885 35.0633 24.1502 34.1603 25.6476 33.5461C27.1451 32.932 28.7488 32.6188 30.3672 32.6245H96.514C98.1324 32.6188 99.7361 32.932 101.234 33.5461C102.731 34.1603 104.093 35.0633 105.241 36.2037C106.39 37.3442 107.302 38.6996 107.927 40.1927C108.551 41.6858 108.876 43.2873 108.881 44.9057Z" fill="#6875F5" fill-opacity="0.3"/>
<path d="M108.881 84.8198V94.0307C108.876 95.6491 108.551 97.2506 107.927 98.7437C107.302 100.237 106.39 101.592 105.241 102.733C104.093 103.873 102.731 104.776 101.234 105.39C99.7361 106.004 98.1324 106.318 96.514 106.312H30.3672C28.7488 106.318 27.1451 106.004 25.6476 105.39C24.1502 104.776 22.7885 103.873 21.6401 102.733C20.4916 101.592 19.5791 100.237 18.9546 98.7437C18.33 97.2506 18.0056 95.6491 18 94.0307V84.8198C18.0056 83.2013 18.33 81.5998 18.9546 80.1067C19.5791 78.6136 20.4916 77.2582 21.6401 76.1178C22.7885 74.9774 24.1502 74.0743 25.6476 73.4602C27.1451 72.8461 28.7488 72.5329 30.3672 72.5385H96.514C98.1324 72.5329 99.7361 72.8461 101.234 73.4602C102.731 74.0743 104.093 74.9774 105.241 76.1178C106.39 77.2582 107.302 78.6136 107.927 80.1067C108.551 81.5998 108.876 83.2013 108.881 84.8198Z" fill="#6875F5" fill-opacity="0.3"/>
<path fill-rule="evenodd" clip-rule="evenodd" d="M30.2811 49.5112C30.2811 47.8155 31.6558 46.4409 33.3514 46.4409H65.8967C67.5924 46.4409 68.967 47.8155 68.967 49.5112C68.967 51.2069 67.5924 52.5815 65.8967 52.5815H33.3514C31.6558 52.5815 30.2811 51.2069 30.2811 49.5112Z" fill="#6875F5"/>
<path fill-rule="evenodd" clip-rule="evenodd" d="M30.2811 89.4253C30.2811 87.7296 31.6558 86.355 33.3514 86.355H93.5295C95.2252 86.355 96.5998 87.7296 96.5998 89.4253C96.5998 91.121 95.2252 92.4956 93.5295 92.4956H33.3514C31.6558 92.4956 30.2811 91.121 30.2811 89.4253Z" fill="#6875F5"/>
<path d="M101.715 50.8437C111.889 50.8437 120.137 42.596 120.137 32.4219C120.137 22.2477 111.889 14 101.715 14C91.541 14 83.2932 22.2477 83.2932 32.4219C83.2932 42.596 91.541 50.8437 101.715 50.8437Z" fill="#6875F5"/>
<path fill-rule="evenodd" clip-rule="evenodd" d="M111.832 25.9466C112.671 26.786 112.671 28.1468 111.832 28.9861L100.429 40.3892C100.025 40.7923 99.4788 41.0187 98.9088 41.0187C98.3388 41.0187 97.7921 40.7923 97.3891 40.3892L91.5985 34.5986C90.7592 33.7593 90.7592 32.3985 91.5985 31.5592C92.4378 30.7198 93.7986 30.7198 94.6379 31.5592L98.9088 35.83L108.792 25.9466C109.632 25.1073 110.992 25.1073 111.832 25.9466Z" fill="#2B3465"/>
</svg>
