<svg width="65" height="64" viewBox="0 0 65 64" fill="none" xmlns="http://www.w3.org/2000/svg">
<path opacity="0.3" d="M33.4997 58.6666C31.8997 58.6666 30.833 57.5999 30.833 55.9999V7.99992C30.833 6.39992 31.8997 5.33325 33.4997 5.33325C35.0997 5.33325 36.1663 6.39992 36.1663 7.99992V55.9999C36.1663 57.5999 35.0997 58.6666 33.4997 58.6666Z" fill="#42CB99"/>
<path d="M47.633 39.1999C47.633 41.3332 47.0997 43.4666 46.033 45.0666C44.9663 46.9332 43.3663 48.2666 40.9663 49.0666C38.833 50.1332 36.1663 50.6666 33.233 50.6666C29.7663 50.6666 26.833 49.8666 24.433 48.5332C22.833 47.4666 21.4997 46.3999 20.433 44.5332C19.3664 42.9333 18.833 41.3332 18.833 39.7332C18.833 38.9332 19.0996 38.1332 19.633 37.3332C20.1663 36.7999 20.9664 36.2666 22.033 36.2666C22.833 36.2666 23.3663 36.5332 23.8996 37.0666C24.433 37.5999 24.9663 38.3999 25.233 39.1999C25.7663 40.2666 26.2997 41.3332 26.833 42.1332C27.3663 42.9332 28.1663 43.4666 28.9663 43.9999C30.033 44.5332 31.0997 44.7999 32.6997 44.7999C34.833 44.7999 36.6997 44.2666 38.033 43.1999C39.3663 42.1332 40.1663 40.7999 40.1663 39.4666C40.1663 38.3999 39.8997 37.3332 39.0997 36.5332C38.2997 35.7332 37.4997 35.1999 36.1663 34.9332C35.0997 34.6666 33.4997 34.1332 31.633 33.5999C28.9663 33.0666 26.833 32.2666 25.233 31.4666C23.3663 30.6666 22.033 29.5999 20.9663 28.2666C19.8996 26.9332 19.3664 25.0665 19.3664 22.9332C19.3664 21.0665 19.8996 19.1999 20.9663 17.5999C22.033 15.9999 23.633 14.9334 25.7664 14.1334C27.8997 13.3334 30.2997 12.8 32.9663 12.8C35.0997 12.8 36.9663 13.0665 38.833 13.5999C40.433 14.1332 41.7663 14.9333 42.833 15.7333C43.8997 16.5333 44.6997 17.5999 45.233 18.6666C45.7663 19.7332 46.033 20.5332 46.033 21.5999C46.033 22.3999 45.7663 23.1999 45.233 23.9999C44.6997 24.7999 43.8997 25.0666 42.833 25.0666C42.033 25.0666 41.233 24.7998 40.9663 24.5331C40.6997 24.2664 40.1663 23.4666 39.633 22.4C39.0997 21.0666 38.2997 19.9998 37.233 19.1998C36.1663 18.3998 34.833 18.1334 32.6997 18.1334C30.833 18.1334 29.233 18.6667 28.1663 19.4667C27.0997 20.2667 26.2996 21.3333 26.2996 22.4C26.2996 23.2 26.5663 23.7332 26.833 24.2665C27.0997 24.7999 27.8997 25.3332 28.433 25.5999C28.9663 25.8665 29.7663 26.4 30.5663 26.4C31.3663 26.6666 32.433 26.9332 34.033 27.4666C36.1663 27.9999 38.033 28.5332 39.633 29.0666C41.233 29.5999 42.5663 30.3999 43.8997 31.1999C44.9663 31.9999 46.033 33.0666 46.5663 34.3999C47.0997 35.7332 47.633 37.3332 47.633 39.1999Z" fill="#42CB99"/>
</svg>
