<svg width="542" height="425" viewBox="0 0 542 425" fill="none" xmlns="http://www.w3.org/2000/svg">
<mask id="mask0" style="mask-type:alpha" maskUnits="userSpaceOnUse" x="0" y="30" width="506" height="395">
<path d="M505.187 227.825C505.187 119.111 305.558 30.9809 196.844 30.9809C88.13 30.9809 0 119.111 0 227.825C0 336.538 88.13 424.668 196.844 424.668C305.558 424.668 505.187 336.538 505.187 227.825Z" fill="url(#paint0_linear)" fill-opacity="0.54"/>
</mask>
<g mask="url(#mask0)">
<path d="M-16.5215 498.667V501.895L814.903 386.225V382.995L-16.5215 498.667Z" fill="url(#paint1_linear)"/>
<path d="M-16.5215 487.386V490.484L814.903 374.812V371.714L-16.5215 487.386Z" fill="url(#paint2_linear)"/>
<path d="M-16.5215 476.105V479.07L814.903 363.398V360.433L-16.5215 476.105Z" fill="url(#paint3_linear)"/>
<path d="M-16.5215 464.824V467.657L814.903 351.987V349.152L-16.5215 464.824Z" fill="url(#paint4_linear)"/>
<path d="M-16.5215 456.246L814.903 340.574V337.871L-16.5215 453.543V456.246Z" fill="url(#paint5_linear)"/>
<path d="M-16.5215 444.832L814.903 329.16V326.59L-16.5215 442.262V444.832Z" fill="url(#paint6_linear)"/>
<path d="M-16.5215 433.419L814.903 317.749V315.309L-16.5215 430.981V433.419Z" fill="url(#paint7_linear)"/>
<path d="M-16.5215 422.008L814.903 306.336V304.028L-16.5215 419.7V422.008Z" fill="url(#paint8_linear)"/>
<path d="M-16.5215 410.594L814.903 294.922V292.747L-16.5215 408.419V410.594Z" fill="url(#paint9_linear)"/>
<path d="M-16.5215 399.18L814.903 283.51V281.466L-16.5215 397.138V399.18Z" fill="url(#paint10_linear)"/>
<path d="M-16.5215 387.769L814.903 272.097V270.185L-16.5215 385.857V387.769Z" fill="url(#paint11_linear)"/>
<path d="M-16.5215 376.356L814.903 260.683V258.904L-16.5215 374.576V376.356Z" fill="url(#paint12_linear)"/>
<path d="M-16.5215 364.942L814.681 249.302H802.84L-16.5215 363.295V364.942Z" fill="url(#paint13_linear)"/>
<path d="M-16.5215 353.529L732.65 249.302H721.754L-16.5215 352.014V353.529Z" fill="url(#paint14_linear)"/>
<path d="M-16.5215 342.118L650.616 249.302H640.669L-16.5215 340.733V342.118Z" fill="url(#paint15_linear)"/>
<path d="M-16.5215 330.704L568.582 249.302H559.583L-16.5215 329.452V330.704Z" fill="url(#paint16_linear)"/>
<path d="M-16.5215 319.291L486.551 249.302H478.498L-16.5215 318.171V319.291Z" fill="url(#paint17_linear)"/>
<path d="M-16.5215 307.88L404.517 249.302H397.412L-16.5215 306.89V307.88Z" fill="url(#paint18_linear)"/>
<path d="M-16.5215 296.466L322.484 249.302H316.326L-16.5215 295.609V296.466Z" fill="url(#paint19_linear)"/>
<path d="M-16.5215 285.053L240.452 249.302H235.241L-16.5215 284.329V285.053Z" fill="url(#paint20_linear)"/>
<path d="M-16.5215 273.642L158.419 249.302H154.155L-16.5215 273.048V273.642Z" fill="url(#paint21_linear)"/>
<path d="M-16.5215 262.228L76.385 249.302H73.0699L-16.5215 261.767V262.228Z" fill="url(#paint22_linear)"/>
</g>
<g filter="url(#filter0_b)">
<path d="M466.836 199.536C367.117 269.502 372.373 410.524 255.848 410.524C139.322 410.524 44.8594 316.062 44.8594 199.536C44.8594 83.0105 165.663 28.4873 282.188 28.4873C398.714 28.4873 562.224 132.609 466.836 199.536Z" fill="url(#paint23_linear)" fill-opacity="0.54"/>
</g>
<g clip-path="url(#clip0)">
<path d="M321.092 158.5L311.592 12L404.092 4L503.592 1L508.092 69L517.092 269L470.092 277L334.592 286L321.092 158.5Z" fill="white"/>
<path d="M430.869 131.802C429.882 131.802 429.882 133.636 430.869 133.636C433.219 133.636 465.961 133.095 468.711 132.554C468.962 132.517 469.19 132.391 469.356 132.199C469.521 132.007 469.612 131.762 469.612 131.509C469.612 131.255 469.521 131.01 469.356 130.818C469.19 130.627 468.962 130.5 468.711 130.463C460.085 129.334 440.365 131.614 430.869 131.802ZM443.984 179.799C442.903 179.799 443.091 181.609 444.125 181.656C451.788 181.914 463.728 181.515 471.555 181.162C472.989 181.162 473.154 178.812 471.555 178.812C462.788 178.859 452.775 178.976 443.984 179.799ZM444.995 98.7313C444.767 98.7411 444.551 98.8334 444.386 98.9909C444.221 99.1485 444.119 99.3605 444.099 99.5876C444.079 99.8148 444.142 100.041 444.277 100.226C444.411 100.41 444.608 100.538 444.831 100.588C449.038 101.105 462.694 101.646 466.807 99.9066C467.018 99.8022 467.189 99.6321 467.294 99.4221C467.399 99.212 467.433 98.9733 467.391 98.7423C467.348 98.5112 467.231 98.3003 467.058 98.1414C466.885 97.9825 466.665 97.8843 466.431 97.8616C460.978 97.5326 452.234 99.2719 444.995 98.7313ZM418.153 144.142C437.991 143.86 460.461 142.473 480.487 140.64C481.733 140.64 481.615 138.29 480.323 138.29C460.626 138.783 437.615 140.076 418.035 142.097C417.764 142.113 417.51 142.236 417.329 142.438C417.149 142.641 417.056 142.907 417.072 143.179C417.087 143.45 417.21 143.704 417.413 143.884C417.615 144.065 417.882 144.158 418.153 144.142ZM446.593 39.4527C452.117 39.0296 457.641 38.7005 463.047 38.0424C464.598 37.8778 464.198 35.6919 462.671 35.6919C457.17 36.115 451.67 36.8201 446.217 37.4548C444.948 37.5958 445.301 39.5467 446.593 39.4527ZM414.345 88.4833C413.17 88.4833 413.123 90.4812 414.345 90.5752C427.633 91.1941 440.948 90.2634 454.021 87.8017C455.502 87.5431 455.267 85.1927 453.762 85.4512C440.744 87.6713 427.549 88.6863 414.345 88.4833ZM458.087 50.7114C460.132 51.205 460.438 47.8673 458.557 48.1964C449.384 49.6837 440.085 50.2584 430.798 49.9122C429.552 49.9122 429.27 51.7221 430.54 51.8631C439.73 52.7857 449.006 52.398 458.087 50.7114ZM407.176 143.038C405.343 142.332 396.881 143.508 394.507 143.766C393.355 143.766 393.308 145.623 394.507 145.6L404.121 145.294C408.563 145.129 408.539 143.578 407.176 143.038ZM416.884 244.742C414.909 244.272 400.877 245.33 398.573 245.471C397.351 245.471 397.586 247.351 398.808 247.328C401.3 247.328 414.956 247.328 417.119 246.646C418.082 246.317 417.753 244.93 416.884 244.742ZM398.55 234.8C405.155 235.105 421.514 235.387 428.119 233.812C428.273 233.811 428.425 233.778 428.566 233.714C428.707 233.65 428.832 233.558 428.935 233.443C429.038 233.328 429.115 233.192 429.162 233.045C429.209 232.898 429.225 232.743 429.209 232.59C429.192 232.436 429.144 232.288 429.066 232.154C428.989 232.021 428.885 231.905 428.76 231.814C428.635 231.723 428.493 231.66 428.342 231.628C428.191 231.595 428.035 231.595 427.884 231.626C418.223 231.626 409.268 233.248 398.832 232.825C397.586 232.778 397.257 234.729 398.55 234.8ZM421.349 193.008C422.76 192.75 422.642 190.658 421.161 190.658C410.725 191.716 408.539 191.974 397.845 192.397C396.811 192.397 396.693 194.184 397.845 194.254C405.701 194.776 413.592 194.358 421.349 193.008ZM435.828 178.224C423.042 178.694 409.762 180.856 396.411 181.327C396.172 181.363 395.955 181.484 395.798 181.667C395.64 181.851 395.554 182.084 395.554 182.326C395.554 182.567 395.64 182.8 395.798 182.984C395.955 183.167 396.172 183.288 396.411 183.324C407.482 183.324 425.298 182.807 436.087 180.41C436.312 180.31 436.499 180.141 436.621 179.927C436.743 179.713 436.793 179.466 436.764 179.222C436.735 178.977 436.629 178.748 436.46 178.569C436.292 178.389 436.07 178.268 435.828 178.224ZM479.382 238.983C479.194 238.983 466.29 240.041 464.081 239.971C463.872 240.008 463.68 240.112 463.535 240.267C463.389 240.423 463.298 240.621 463.274 240.832C463.25 241.043 463.295 241.257 463.403 241.44C463.51 241.624 463.674 241.768 463.869 241.851C466.502 242.345 477.596 242.533 479.876 240.605C479.991 240.479 480.071 240.325 480.108 240.158C480.146 239.991 480.139 239.818 480.089 239.654C480.04 239.491 479.948 239.343 479.824 239.225C479.701 239.108 479.548 239.024 479.382 238.983ZM483.543 187.72C467.254 188.778 449.061 189.389 432.843 190.775C431.574 190.775 431.809 192.679 433.031 192.75C441.798 193.008 472.989 191.41 483.754 190.047C483.908 190.035 484.057 189.993 484.194 189.922C484.331 189.851 484.453 189.754 484.551 189.636C484.65 189.517 484.724 189.38 484.769 189.233C484.813 189.086 484.828 188.931 484.812 188.778C484.782 188.47 484.632 188.186 484.395 187.988C484.157 187.79 483.851 187.694 483.543 187.72ZM422.36 134.27C422.672 134.27 422.971 134.146 423.191 133.926C423.412 133.706 423.535 133.407 423.535 133.095C423.535 132.783 423.412 132.484 423.191 132.264C422.971 132.044 422.672 131.92 422.36 131.92C412.23 132.178 402.005 132.249 391.804 133.025C391.585 133.073 391.389 133.195 391.248 133.371C391.108 133.546 391.031 133.764 391.031 133.988C391.031 134.213 391.108 134.431 391.248 134.606C391.389 134.781 391.585 134.903 391.804 134.952C402.052 135.14 412.23 134.599 422.36 134.27ZM462.435 229.158C458.863 229.158 445.982 230.075 442.927 230.616C441.939 230.78 441.798 232.402 442.927 232.449C446.241 232.614 459.051 231.791 462.765 231.462C464.198 231.509 463.893 229.158 462.435 229.158ZM455.572 242.345L426.027 244.225C424.687 244.225 425.016 246.27 426.332 246.199C432.068 245.941 450.519 245.212 455.69 244.507C456.841 244.366 456.865 242.345 455.572 242.345ZM434.418 38.0424C425.745 37.0552 398.526 38.7005 389.289 39.6407C388.02 39.7582 387.926 41.7326 389.289 41.6151C404.473 40.6279 419.257 40.2988 434.441 40.3458C434.707 40.2892 434.944 40.1427 435.114 39.931C435.283 39.7194 435.374 39.4556 435.371 39.1845C435.369 38.9134 435.272 38.6515 435.098 38.4434C434.925 38.2352 434.684 38.0935 434.418 38.0424ZM436.933 101.481C438.414 101.27 437.873 99.1309 436.392 99.1309C421.264 100.855 406.043 101.639 390.817 101.481C390.596 101.517 390.395 101.629 390.25 101.8C390.105 101.97 390.025 102.186 390.025 102.41C390.025 102.633 390.105 102.85 390.25 103.02C390.395 103.19 390.596 103.303 390.817 103.338C406.214 104.08 421.646 103.458 436.933 101.481ZM420.973 52.2627C421.128 52.248 421.278 52.2028 421.415 52.1297C421.552 52.0566 421.673 51.9571 421.772 51.8369C421.87 51.7167 421.944 51.5782 421.988 51.4294C422.033 51.2805 422.047 51.1244 422.031 50.9699C422.016 50.8153 421.971 50.6651 421.898 50.5281C421.825 50.391 421.725 50.2698 421.605 50.1714C421.485 50.0731 421.347 49.9995 421.198 49.955C421.049 49.9105 420.893 49.896 420.738 49.9122C410.373 51.205 400.548 51.252 390.323 52.1451C389.242 52.2627 389.125 54.0255 390.323 54.0725C400.571 54.2382 410.816 53.6332 420.973 52.2627ZM391.851 89.4705C390.676 89.4705 390.652 91.3274 391.992 91.3744C396.211 91.7717 400.451 91.8816 404.685 91.7034C404.875 91.6183 405.037 91.4797 405.151 91.3046C405.264 91.1294 405.325 90.925 405.325 90.7162C405.325 90.5074 405.264 90.3031 405.151 90.1279C405.037 89.9527 404.875 89.8142 404.685 89.7291C404.262 89.494 394.014 89.4705 391.851 89.4705ZM362.517 103.009C363.881 103.009 368.934 94.6415 371.778 91.774C372.812 90.7398 371.12 89.0004 370.062 89.9876C367.064 92.6909 364.468 95.8095 362.353 99.2484L356.406 93.7719C355.184 92.6436 353.609 94.571 354.737 95.7227C355.865 96.8745 360.778 103.009 362.517 103.009ZM346.44 64.6261C356.077 65.1902 366.09 65.0022 376.667 65.0727C377.419 65.0727 377.866 62.9808 376.667 38.0189C376.667 36.209 376.503 34.8693 376.479 34.3757C376.485 34.3029 376.476 34.2296 376.451 34.1608C376.427 34.0919 376.388 34.0289 376.338 33.9761C375.656 33.2474 371.214 33.2944 361.225 33.553C344.419 33.9526 342.562 33.8351 342.562 34.7987C342.491 34.9868 343.549 64.3441 346.44 64.6261ZM347.098 62.8868C345.923 56.611 345.077 43.3544 344.348 35.927C351.188 36.3265 366.772 35.5509 374.622 35.3628C374.622 35.3628 375.045 56.2585 375.233 63.0043C366.019 62.7928 356.406 62.4402 347.004 62.7692L347.098 62.8868Z" fill="#262B42"/>
<path d="M379.91 109.144C381.884 108.368 379.58 86.4617 379.251 80.703C379.235 80.5846 379.177 80.476 379.087 80.3975C377.677 79.1752 347.849 80.797 346.345 80.9146C344.841 81.0321 346.345 89.2117 346.603 94.7823C347.144 108.65 347.779 109.849 348.484 109.943C353.608 110.671 375.209 110.977 379.91 109.144ZM347.779 82.8419C357.956 82.1838 368.275 82.1368 377.442 82.0898C377.677 87.5899 378.053 103.079 378.523 107.263C368.943 108.254 359.303 108.529 349.683 108.086C350.082 104.584 348.131 86.8142 347.779 82.8419ZM366.911 142.191L372.365 137.255C372.524 136.986 372.593 136.674 372.564 136.364C372.535 136.053 372.409 135.759 372.203 135.524C371.997 135.29 371.722 135.126 371.418 135.057C371.113 134.988 370.795 135.017 370.508 135.14C368.275 136.515 366.249 138.201 364.491 140.146L359.602 135.633C359.337 135.387 358.985 135.256 358.623 135.269C358.262 135.283 357.92 135.439 357.674 135.704C357.428 135.969 357.297 136.321 357.31 136.682C357.323 137.044 357.48 137.385 357.745 137.631L362.446 142.332C358.215 146.798 356.358 149.595 356.781 150.864C357.204 152.134 358.732 151.569 359.131 151.005C360.777 148.984 362.634 146.681 364.632 144.542C366.612 146.704 368.81 148.657 371.189 150.371C371.435 150.434 371.693 150.431 371.937 150.36C372.18 150.289 372.4 150.154 372.573 149.969C372.747 149.784 372.867 149.555 372.921 149.307C372.975 149.059 372.962 148.802 372.882 148.561C371.112 146.241 369.112 144.107 366.911 142.191ZM368.157 41.4268C364.403 44.7103 361.335 48.7045 359.131 53.1791C357.361 51.0596 355.322 49.1791 353.067 47.585C351.68 46.6213 349.894 48.4547 351.257 49.4889C353.939 51.8586 356.444 54.4194 358.755 57.1514C359.366 57.786 359.954 57.4569 360.471 56.7753C363.031 51.7884 366.188 47.1316 369.873 42.9076C371.001 41.6618 369.379 40.2751 368.157 41.4268ZM367.405 194.888C368.627 194.042 373.281 185.064 375.984 182.008C377.042 180.833 375.209 179.211 374.01 180.457C370.792 183.772 368.033 187.503 365.807 191.551L360.33 186.85C359.131 185.839 357.533 187.649 358.779 188.848C360.025 190.047 365.384 196.628 367.405 194.888ZM385.339 225.021C384.446 223.259 352.292 225.021 351.986 225.021C351.916 225.03 351.849 225.056 351.792 225.097C351.734 225.138 351.688 225.193 351.657 225.256C350.576 226.996 351.657 255.272 352.433 257.904C353.349 261.101 384.516 258.445 386.068 258.586C386.115 258.596 386.163 258.596 386.21 258.586C386.257 258.576 386.3 258.555 386.339 258.526C386.377 258.497 386.408 258.46 386.43 258.418C386.452 258.375 386.465 258.328 386.467 258.28C386.961 254.684 385.457 225.256 385.339 225.021ZM353.49 226.737C362.892 227.137 374.01 226.549 383.553 226.526C383.694 230.451 384.54 253.486 384.657 256.588C374.221 257.058 365.454 256.894 354.337 256.588C354.454 252.663 353.631 230.31 353.49 226.808V226.737Z" fill="#262B42"/>
<path d="M364.844 241.968C366.513 241.968 375.045 242.556 375.726 242.18C375.906 242.078 376.06 241.936 376.175 241.764C376.291 241.593 376.365 241.397 376.392 241.192C376.42 240.987 376.399 240.779 376.333 240.583C376.266 240.388 376.155 240.21 376.008 240.065C374.763 238.748 366.889 239.03 365.572 239.289C363.786 239.618 363.457 240.3 363.504 240.817C363.567 241.131 363.733 241.415 363.975 241.624C364.218 241.832 364.524 241.954 364.844 241.968ZM368.017 172.982C360.307 173.123 352.198 173.405 350.859 173.5C350.341 173.5 349.801 173.946 349.73 178.835C349.73 184.688 350.741 203.233 353.091 203.397C357.792 203.75 382.096 203.844 385.222 203.609C385.716 203.609 386.115 203.609 385.222 191.387C384.729 185.087 383.624 173.641 383.624 173.641C383.53 173.17 383.483 172.747 368.017 172.982ZM381.861 175.051C382.425 183.818 382.731 192.797 383.671 201.611H353.773C352.856 193.126 352.245 184.382 351.587 175.403L381.861 175.051ZM356.406 159.749C365.948 159.749 381.908 158.457 382.049 158.386C383.553 157.61 382.049 136.386 381.556 127.313C381.556 125.691 373.258 125.668 366.372 125.926C363.363 125.926 348.414 126.725 348.461 128.864C349.26 160.337 349.072 158.809 349.66 159.138C351.859 159.712 354.139 159.919 356.406 159.749ZM351.446 157.399C350.906 148.138 350.717 138.313 350.341 129.193C360.102 128.326 369.902 127.997 379.699 128.206C379.699 131.426 380.333 152.839 380.733 156.412C377.254 156.647 355.089 156.811 351.517 157.422L351.446 157.399Z" fill="#262B42"/>
<path d="M527.99 194.536C521.832 27.0185 524.418 28.4288 523.289 27.4416C521.691 25.9373 509.351 26.9245 506.319 27.089L505.05 1.39848C505.11 1.24353 505.133 1.07627 505.115 0.910891C505.097 0.745508 505.039 0.586882 504.947 0.448472C504.855 0.310062 504.73 0.195954 504.585 0.115827C504.439 0.0356997 504.276 -0.00808128 504.11 -0.0117996C454.75 -0.62292 403.956 2.64422 353.022 6.0994C339.295 7.06309 325.028 7.90926 311.066 9.39005C310.936 9.36907 310.802 9.37734 310.675 9.41425C310.548 9.45117 310.431 9.51581 310.332 9.60351C310.233 9.69121 310.155 9.79978 310.103 9.92139C310.051 10.043 310.027 10.1746 310.032 10.3067C312.617 73.0641 320.139 174.51 333.137 286.839C333.278 288.131 343.996 287.003 353.633 286.369C353.759 289.134 354.257 291.869 355.114 294.501C356.524 296.288 530.881 285.475 530.67 278.048C529.918 250.148 528.907 221.895 527.99 194.536ZM514.781 267.823C452.964 277.225 397.375 279.858 335.299 285.217C323.006 178.717 317.953 105.665 311.795 11.0354C330.881 9.90715 401.465 3.41987 503.428 2.08011C505.967 70.4081 515.415 260.302 514.71 267.823H514.781ZM219.727 106.229C218.129 106.229 218.152 109.332 218.904 110.507C218.991 110.679 219.127 110.822 219.294 110.918C219.461 111.014 219.652 111.059 219.845 111.048C221.278 110.883 221.208 106.394 219.727 106.229ZM211.336 119.815C212.347 120.073 215.073 120.238 215.708 119.298C216.601 117.981 214.18 106.041 213.874 105.195C213.812 105.022 213.689 104.877 213.53 104.786C213.37 104.695 213.183 104.664 213.003 104.698C212.822 104.732 212.659 104.829 212.544 104.971C212.428 105.114 212.366 105.293 212.37 105.477C212.37 107.616 213.334 114.879 213.71 117.911L211.359 118.052C211.188 118.125 211.041 118.247 210.937 118.402C210.833 118.557 210.776 118.739 210.774 118.926C210.771 119.112 210.823 119.296 210.923 119.454C211.023 119.612 211.166 119.737 211.336 119.815ZM217.729 101.834C218.425 101.643 219.157 101.625 219.861 101.781C220.565 101.936 221.221 102.261 221.772 102.727C222.689 103.55 224.452 101.975 221.937 100.376C220.127 99.1542 215.896 98.7311 216.342 100.894C216.415 101.195 216.598 101.458 216.854 101.632C217.111 101.805 217.423 101.878 217.729 101.834Z" fill="#262B42"/>
<path d="M286.644 187.273C271.53 172.371 244.336 154.86 219.891 151.382C220.296 149.984 220.296 148.501 219.891 147.104C221.752 145.548 223.481 143.842 225.062 142.003C228.423 138.054 228.352 134.2 223.558 136.151C228.258 125.762 228.258 103.244 226.566 90.5986C234.44 95.5111 247.72 90.7866 246.098 81.1967C256.793 84.4169 263.75 63.1687 250.165 59.3374C252.069 43.2603 231.479 40.9333 225.179 50.3117C221.63 39.9461 205.318 45.3992 206.493 53.5318C199.136 45.6342 183.247 48.3843 181.038 58.2327C174.386 52.192 163.409 54.754 164.373 63.6623C153.843 58.7733 148.272 71.3718 156.452 75.4146C151.21 78.2351 151.375 89.8464 159.413 89.8464C159.413 97.603 164.114 115.372 175.749 125.103C176.995 135.986 174.762 141.557 170.884 151.64C132.524 157.469 103.402 187.391 90.3333 224.504C75.4313 266.813 82.5062 306.771 126.671 315.185C126.58 320.832 125.918 326.454 124.697 331.968C124.675 332.176 124.729 332.385 124.848 332.556C124.968 332.728 125.145 332.851 125.348 332.902C125.551 332.954 125.765 332.93 125.952 332.836C126.139 332.742 126.286 332.584 126.366 332.391C127.939 326.915 128.793 321.258 128.904 315.561C139.544 317.143 150.414 315.484 160.098 310.801C169.782 306.118 177.832 298.629 183.2 289.307C190.004 291.891 196.949 294.089 204.002 295.888C226.19 302.164 255.124 308.392 282.531 300.965C281.99 314.104 281.238 324.634 280.063 335.094C280.063 336.128 281.496 336.433 281.661 335.399C282.578 329.899 284.858 305.76 284.717 300.33C302.157 294.971 313.815 282.866 316.683 267.142C321.689 240.488 310.407 210.566 286.644 187.273ZM186.82 86.0387C187.431 92.902 186.82 97.791 184.728 100.964C183.952 102.116 182.777 103.315 181.766 103.315C180.991 102.468 175.914 97.2034 171.119 100.282C167.993 102.327 167.852 106.3 170.813 111.471C172.93 114.611 174.444 118.118 175.279 121.813C166.277 112.035 163.527 102.868 161.458 89.7289C163.848 89.298 166.028 88.0919 167.664 86.2972C171.777 92.4084 181.837 91.1862 186.82 86.0387ZM172.247 101.834C175.42 99.8829 178.358 102.233 181.038 104.584C182.612 105.971 185.198 104.02 186.42 102.233C189.617 97.8145 189.335 90.4811 188.912 86.8143C191.193 88.9871 194.223 90.199 197.373 90.199C200.524 90.199 203.554 88.9871 205.835 86.8143C206.305 93.5837 220.502 95.135 224.239 89.5174C225.955 101.27 226.778 126.678 221.09 137.326C216.389 139.394 205.694 144.119 200.382 142.027C195.822 140.217 193.519 133.259 188.207 130.274C184.634 128.3 181.578 130.533 184.07 134.529C190.369 144.542 189.805 148.349 184.822 158.644C180.455 157.454 176.37 155.4 172.811 152.604C177.982 145.2 179.392 131.99 178.1 123.199C176.948 115.372 175.749 115.843 172.646 110.06C171.213 107.686 169.943 103.291 172.247 101.834ZM211.899 149.243C211.712 149.33 211.563 149.482 211.48 149.672C211.397 149.861 211.387 150.074 211.45 150.271C211.514 150.467 211.647 150.634 211.825 150.739C212.003 150.844 212.213 150.88 212.416 150.841C214.432 150.481 216.342 149.678 218.01 148.49C218.146 150.682 217.569 152.859 216.365 154.696C215.942 155.283 216.694 157.046 218.222 154.86C218.104 161.348 214.79 169.363 208.421 172.512C204.103 171.732 199.995 170.065 196.354 167.618C192.713 165.17 189.619 161.995 187.266 158.292C194.318 146.211 188.113 137.138 186.044 133.377C184.892 131.215 185.48 130.886 187.36 132.108C191.803 134.928 195.705 142.802 200.006 143.86C208.115 145.811 218.104 140.922 222.993 138.736C225.532 137.584 227.013 136.809 223.957 140.64C219.867 145.693 217.54 146.751 211.899 149.243ZM112.428 249.56C112.343 249.751 112.329 249.967 112.39 250.167C112.451 250.367 112.582 250.539 112.759 250.65C112.936 250.761 113.148 250.805 113.354 250.773C113.561 250.742 113.749 250.636 113.885 250.477C134.498 217.994 168.604 195.453 186.162 160.689C188.888 166.754 200.546 174.557 207.739 174.557C207.739 180.41 207.151 187.367 206.54 194.042C199.489 192.421 180.427 186.45 176.995 178.647C176.595 177.683 175.044 178.341 175.42 179.305C178.64 188.025 198.525 195.03 206.329 196.51C204.68 214.073 201.415 231.446 196.574 248.409C193.025 261.101 188.465 276.45 181.884 287.802C176.637 297.136 168.609 304.601 158.918 309.155C149.228 313.71 138.358 315.127 127.823 313.211C84.4336 305.595 77.8993 266.46 92.6367 225.116C106.41 186.38 136.567 159.115 171.354 153.944C175.135 156.732 179.269 159.008 183.647 160.713C166.018 194.724 132.407 217.053 112.428 249.56ZM198.596 249.396C221.435 239.77 245.702 233.966 270.426 232.214C277.477 231.744 284.529 231.767 291.58 231.767C292.614 231.767 292.638 230.075 291.58 230.075C286.785 229.742 281.976 229.656 277.172 229.816C276.02 220.415 259.073 192.985 253.314 185.393C253.167 185.253 252.974 185.172 252.772 185.162C252.569 185.153 252.37 185.217 252.21 185.342C252.051 185.468 251.942 185.646 251.903 185.845C251.864 186.044 251.898 186.251 251.998 186.427C263.539 202.598 272.87 223.188 274.727 229.911C254.067 230.686 222.194 235.575 199.254 246.81C201.416 238.889 209.784 206.218 209.972 173.946C216.436 171.055 221.043 160.595 220.502 153.567C244.873 159.118 267.225 171.323 285.069 188.824C306.012 209.344 318.845 235.834 314.896 264.627C312.805 281.08 301.123 293.82 283.682 298.45C253.62 306.677 222.688 299.531 193.001 290.317C190.128 289.35 187.2 288.55 184.234 287.92C190.242 275.567 195.051 262.667 198.596 249.396Z" fill="#262B42"/>
<path d="M197.443 98.073C198.05 97.1753 198.861 96.4332 199.808 95.9064C200.755 95.3797 201.813 95.0832 202.896 95.0409C204.612 95.0409 204.518 92.4554 202.896 92.6904C201.5 92.8372 200.156 93.301 198.966 94.0464C197.777 94.7919 196.773 95.7993 196.033 96.9917C195.422 97.9554 196.785 99.0131 197.443 98.073ZM202.99 104.584C202.026 105.359 202.097 109.285 203.554 109.285C203.887 109.25 204.199 109.103 204.438 108.868C204.677 108.634 204.83 108.325 204.87 107.992C205.411 105.947 204.024 103.855 202.99 104.584ZM200.922 123.999C200.878 123.815 200.778 123.649 200.636 123.524C200.495 123.399 200.318 123.321 200.13 123.3C199.942 123.28 199.753 123.318 199.587 123.409C199.422 123.5 199.289 123.641 199.206 123.811C198.971 124.14 198.524 125.15 199.511 127.195C200.181 128.587 201.338 129.686 202.763 130.283C204.188 130.881 205.782 130.936 207.244 130.439C207.443 130.36 207.605 130.212 207.701 130.021C207.796 129.831 207.819 129.612 207.764 129.406C207.708 129.2 207.58 129.021 207.402 128.904C207.224 128.787 207.009 128.739 206.798 128.77C203.46 129.428 201.533 127.313 200.922 123.999Z" fill="#262B42"/>
</g>
<defs>
<filter id="filter0_b" x="-37.3028" y="-53.6749" width="614.976" height="546.361" filterUnits="userSpaceOnUse" color-interpolation-filters="sRGB">
<feFlood flood-opacity="0" result="BackgroundImageFix"/>
<feGaussianBlur in="BackgroundImage" stdDeviation="41.0811"/>
<feComposite in2="SourceAlpha" operator="in" result="effect1_backgroundBlur"/>
<feBlend mode="normal" in="SourceGraphic" in2="effect1_backgroundBlur" result="shape"/>
</filter>
<linearGradient id="paint0_linear" x1="337.938" y1="-33.7159" x2="-111.269" y2="390.255" gradientUnits="userSpaceOnUse">
<stop stop-color="#9D3DFD" stop-opacity="0.58"/>
<stop offset="1" stop-color="#9D3DFD" stop-opacity="0"/>
</linearGradient>
<linearGradient id="paint1_linear" x1="814.903" y1="383.06" x2="717.668" y2="168.697" gradientUnits="userSpaceOnUse">
<stop stop-color="#7C3AED"/>
<stop offset="1" stop-color="#7C3AED" stop-opacity="0"/>
</linearGradient>
<linearGradient id="paint2_linear" x1="814.903" y1="371.779" x2="717.845" y2="157.571" gradientUnits="userSpaceOnUse">
<stop stop-color="#7C3AED"/>
<stop offset="1" stop-color="#7C3AED" stop-opacity="0"/>
</linearGradient>
<linearGradient id="paint3_linear" x1="814.903" y1="360.498" x2="718.024" y2="146.448" gradientUnits="userSpaceOnUse">
<stop stop-color="#7C3AED"/>
<stop offset="1" stop-color="#7C3AED" stop-opacity="0"/>
</linearGradient>
<linearGradient id="paint4_linear" x1="814.903" y1="349.217" x2="718.204" y2="135.325" gradientUnits="userSpaceOnUse">
<stop stop-color="#7C3AED"/>
<stop offset="1" stop-color="#7C3AED" stop-opacity="0"/>
</linearGradient>
<linearGradient id="paint5_linear" x1="814.903" y1="337.936" x2="718.38" y2="124.199" gradientUnits="userSpaceOnUse">
<stop stop-color="#7C3AED"/>
<stop offset="1" stop-color="#7C3AED" stop-opacity="0"/>
</linearGradient>
<linearGradient id="paint6_linear" x1="814.903" y1="326.655" x2="718.56" y2="113.076" gradientUnits="userSpaceOnUse">
<stop stop-color="#7C3AED"/>
<stop offset="1" stop-color="#7C3AED" stop-opacity="0"/>
</linearGradient>
<linearGradient id="paint7_linear" x1="814.903" y1="315.374" x2="718.739" y2="101.954" gradientUnits="userSpaceOnUse">
<stop stop-color="#7C3AED"/>
<stop offset="1" stop-color="#7C3AED" stop-opacity="0"/>
</linearGradient>
<linearGradient id="paint8_linear" x1="814.903" y1="304.093" x2="718.916" y2="90.829" gradientUnits="userSpaceOnUse">
<stop stop-color="#7C3AED"/>
<stop offset="1" stop-color="#7C3AED" stop-opacity="0"/>
</linearGradient>
<linearGradient id="paint9_linear" x1="814.903" y1="292.812" x2="719.095" y2="79.7066" gradientUnits="userSpaceOnUse">
<stop stop-color="#7C3AED"/>
<stop offset="1" stop-color="#7C3AED" stop-opacity="0"/>
</linearGradient>
<linearGradient id="paint10_linear" x1="814.903" y1="281.53" x2="719.274" y2="68.5844" gradientUnits="userSpaceOnUse">
<stop stop-color="#7C3AED"/>
<stop offset="1" stop-color="#7C3AED" stop-opacity="0"/>
</linearGradient>
<linearGradient id="paint11_linear" x1="814.903" y1="270.25" x2="719.45" y2="57.4602" gradientUnits="userSpaceOnUse">
<stop stop-color="#7C3AED"/>
<stop offset="1" stop-color="#7C3AED" stop-opacity="0"/>
</linearGradient>
<linearGradient id="paint12_linear" x1="814.903" y1="258.968" x2="719.629" y2="46.3384" gradientUnits="userSpaceOnUse">
<stop stop-color="#7C3AED"/>
<stop offset="1" stop-color="#7C3AED" stop-opacity="0"/>
</linearGradient>
<linearGradient id="paint13_linear" x1="814.681" y1="249.366" x2="721.832" y2="38.9568" gradientUnits="userSpaceOnUse">
<stop stop-color="#7C3AED"/>
<stop offset="1" stop-color="#7C3AED" stop-opacity="0"/>
</linearGradient>
<linearGradient id="paint14_linear" x1="732.65" y1="249.359" x2="648.965" y2="59.7169" gradientUnits="userSpaceOnUse">
<stop stop-color="#7C3AED"/>
<stop offset="1" stop-color="#7C3AED" stop-opacity="0"/>
</linearGradient>
<linearGradient id="paint15_linear" x1="650.616" y1="249.353" x2="576.093" y2="80.4745" gradientUnits="userSpaceOnUse">
<stop stop-color="#7C3AED"/>
<stop offset="1" stop-color="#7C3AED" stop-opacity="0"/>
</linearGradient>
<linearGradient id="paint16_linear" x1="568.582" y1="249.347" x2="503.224" y2="101.235" gradientUnits="userSpaceOnUse">
<stop stop-color="#7C3AED"/>
<stop offset="1" stop-color="#7C3AED" stop-opacity="0"/>
</linearGradient>
<linearGradient id="paint17_linear" x1="486.551" y1="249.341" x2="430.357" y2="121.995" gradientUnits="userSpaceOnUse">
<stop stop-color="#7C3AED"/>
<stop offset="1" stop-color="#7C3AED" stop-opacity="0"/>
</linearGradient>
<linearGradient id="paint18_linear" x1="404.517" y1="249.334" x2="357.484" y2="142.752" gradientUnits="userSpaceOnUse">
<stop stop-color="#7C3AED"/>
<stop offset="1" stop-color="#7C3AED" stop-opacity="0"/>
</linearGradient>
<linearGradient id="paint19_linear" x1="322.484" y1="249.328" x2="284.615" y2="163.513" gradientUnits="userSpaceOnUse">
<stop stop-color="#7C3AED"/>
<stop offset="1" stop-color="#7C3AED" stop-opacity="0"/>
</linearGradient>
<linearGradient id="paint20_linear" x1="240.452" y1="249.322" x2="211.748" y2="184.273" gradientUnits="userSpaceOnUse">
<stop stop-color="#7C3AED"/>
<stop offset="1" stop-color="#7C3AED" stop-opacity="0"/>
</linearGradient>
<linearGradient id="paint21_linear" x1="158.419" y1="249.316" x2="138.876" y2="205.03" gradientUnits="userSpaceOnUse">
<stop stop-color="#7C3AED"/>
<stop offset="1" stop-color="#7C3AED" stop-opacity="0"/>
</linearGradient>
<linearGradient id="paint22_linear" x1="76.385" y1="249.309" x2="66.0065" y2="225.791" gradientUnits="userSpaceOnUse">
<stop stop-color="#7C3AED"/>
<stop offset="1" stop-color="#7C3AED" stop-opacity="0"/>
</linearGradient>
<linearGradient id="paint23_linear" x1="489.989" y1="442.984" x2="10.4982" y2="12.5944" gradientUnits="userSpaceOnUse">
<stop stop-color="#9E3DFF" stop-opacity="0.6"/>
<stop offset="1" stop-color="#9E3DFF" stop-opacity="0.2"/>
</linearGradient>
<clipPath id="clip0">
<rect width="470" height="403" fill="white" transform="translate(72)"/>
</clipPath>
</defs>
</svg>
