<svg width="128" height="128" viewBox="0 0 128 128" fill="none" xmlns="http://www.w3.org/2000/svg">
<path d="M105.881 49.1039V98.585C105.846 101.83 104.523 104.928 102.204 107.197C99.8844 109.467 96.7587 110.723 93.514 110.688H27.3672C24.1224 110.723 20.9968 109.467 18.6776 107.197C16.3585 104.928 15.0356 101.83 15 98.585V49.1039C15.0356 45.8591 16.3585 42.7613 18.6776 40.4916C20.9968 38.222 24.1224 36.9663 27.3672 37.0007H93.514C96.7587 36.9663 99.8844 38.222 102.204 40.4916C104.523 42.7613 105.846 45.8591 105.881 49.1039Z" fill="#6875F5" fill-opacity="0.3"/>
<path fill-rule="evenodd" clip-rule="evenodd" d="M75.7956 72.734C76.9946 73.933 76.9946 75.877 75.7956 77.0761L62.6117 90.26C61.4127 91.459 59.4687 91.459 58.2696 90.26C57.0706 89.0609 57.0706 87.1169 58.2696 85.9179L71.4535 72.734C72.6526 71.535 74.5966 71.535 75.7956 72.734Z" fill="#6875F5"/>
<path d="M60.4406 95.5374C64.8494 95.5374 68.4234 91.9634 68.4234 87.5546C68.4234 83.1458 64.8494 79.5718 60.4406 79.5718C56.0318 79.5718 52.4578 83.1458 52.4578 87.5546C52.4578 91.9634 56.0318 95.5374 60.4406 95.5374Z" fill="#6875F5"/>
<path fill-rule="evenodd" clip-rule="evenodd" d="M35.6908 63.3328C42.2549 56.7687 51.1576 53.0811 60.4406 53.0811C69.7236 53.0811 78.6264 56.7687 85.1904 63.3328C91.7545 69.8968 95.4422 78.7996 95.4422 88.0826C95.4422 89.7783 94.0675 91.1529 92.3718 91.1529C90.6762 91.1529 89.3015 89.7783 89.3015 88.0826C89.3015 80.4282 86.2608 73.0873 80.8484 67.6748C75.4359 62.2624 68.095 59.2217 60.4406 59.2217C52.7862 59.2217 45.4454 62.2624 40.0329 67.6748C35.349 72.3587 32.4414 78.4867 31.7434 85.0123H34.3614C36.0571 85.0123 37.4317 86.3869 37.4317 88.0826C37.4317 89.7783 36.0571 91.1529 34.3614 91.1529H28.5094C26.8137 91.1529 25.4391 89.7783 25.4391 88.0826C25.4391 78.7996 29.1268 69.8968 35.6908 63.3328Z" fill="#6875F5"/>
<path fill-rule="evenodd" clip-rule="evenodd" d="M83.4495 88.0889C83.4495 86.3932 84.8241 85.0186 86.5198 85.0186H92.3718C94.0675 85.0186 95.4421 86.3932 95.4421 88.0889C95.4421 89.7846 94.0675 91.1592 92.3718 91.1592H86.5198C84.8241 91.1592 83.4495 89.7846 83.4495 88.0889Z" fill="#6875F5"/>
<path fill-rule="evenodd" clip-rule="evenodd" d="M60.4407 53.0872C62.1364 53.0872 63.511 54.4618 63.511 56.1575V63.0718C63.511 64.7675 62.1364 66.1421 60.4407 66.1421C58.745 66.1421 57.3704 64.7675 57.3704 63.0718V56.1575C57.3704 54.4618 58.745 53.0872 60.4407 53.0872Z" fill="#6875F5"/>
<path fill-rule="evenodd" clip-rule="evenodd" d="M36.4532 63.4602C37.653 62.2619 39.597 62.2631 40.7953 63.4629L45.6833 68.357C46.8815 69.5568 46.8803 71.5008 45.6805 72.6991C44.4808 73.8973 42.5367 73.8961 41.3385 72.6963L36.4505 67.8022C35.2522 66.6025 35.2535 64.6584 36.4532 63.4602Z" fill="#6875F5"/>
<path d="M117.068 21.1476L101.715 16.2674C100.6 15.9109 99.3997 15.9109 98.2854 16.2674L82.9323 21.1476C82.3743 21.3232 81.8871 21.6678 81.5403 22.132C81.1936 22.5963 81.0052 23.1565 81.002 23.7324C80.9442 30.4116 82.002 53.2861 98.8962 59.805C99.5725 60.065 100.324 60.065 101 59.805C117.894 53.2861 119.056 30.4116 118.998 23.7324C118.994 23.1567 118.805 22.5969 118.459 22.1328C118.112 21.6687 117.625 21.3239 117.068 21.1476Z" fill="#6875F5"/>
<path fill-rule="evenodd" clip-rule="evenodd" d="M111.482 29.4991C112.31 30.3281 112.31 31.672 111.482 32.5009L100.22 43.7627C99.3908 44.5916 98.0469 44.5916 97.218 43.7627L91.4991 38.0439C90.6702 37.215 90.6702 35.871 91.4991 35.0421C92.3281 34.2132 93.672 34.2132 94.5009 35.0421L98.7189 39.26L108.48 29.4991C109.309 28.6702 110.653 28.6702 111.482 29.4991Z" fill="#2B3465"/>
</svg>
