<svg width="38" height="38" viewBox="0 0 38 38" fill="none" xmlns="http://www.w3.org/2000/svg">
<path d="M18.9749 10.3405C19.3784 10.3291 19.7802 10.3973 20.1572 10.5413C20.5342 10.6853 20.8791 10.9022 21.1722 11.1796C21.4494 11.4529 21.6695 11.7784 21.8197 12.1374C21.97 12.4963 22.0474 12.8816 22.0474 13.2707C22.0474 13.6598 21.97 14.045 21.8197 14.404C21.6695 14.7629 21.4494 15.0885 21.1722 15.3617C20.5782 15.9175 19.7883 16.2159 18.9749 16.1919C18.5699 16.2055 18.1661 16.1383 17.7873 15.9943C17.4085 15.8502 17.0623 15.6321 16.7688 15.3528C16.2143 14.798 15.9029 14.0459 15.9029 13.2618C15.9029 12.4776 16.2143 11.7255 16.7688 11.1707C17.0621 10.8912 17.4084 10.673 17.7872 10.5289C18.166 10.3848 18.5698 10.3177 18.9749 10.3316" fill="#9E3DFF"/>
<path d="M38 19.0081C37.9993 22.7581 36.8879 26.4239 34.8061 29.5438C32.7242 32.6636 29.7649 35.0978 26.3011 36.5397C22.8374 37.9816 19.0241 38.3666 15.3417 37.6462C11.6594 36.9258 8.27274 35.1323 5.60859 32.4916H22.1325C23.4723 32.4916 24.9818 32.4113 25.9643 31.831C26.5082 31.5196 26.9818 31.0991 27.3553 30.596C27.7288 30.093 27.9942 29.5181 28.1348 28.9076C28.252 28.424 28.309 27.9278 28.3045 27.4303C28.3045 25.3861 26.7369 22.1502 22.53 22.1502H17.3183C16.8957 22.1711 16.4795 22.0414 16.1437 21.7842C16.0028 21.6743 15.8892 21.5333 15.8117 21.3723C15.7342 21.2113 15.695 21.0345 15.6971 20.8559C15.689 20.5825 15.7575 20.3123 15.8948 20.0758C16.0321 19.8392 16.2328 19.6456 16.4742 19.5169C17.2824 19.7686 18.1241 19.8965 18.9707 19.8963C20.8488 19.9613 22.6784 19.2921 24.0708 18.0306C24.7307 17.4322 25.255 16.6997 25.6085 15.8822C25.9621 15.0647 26.1367 14.1811 26.1206 13.2907C26.1398 11.868 25.6771 10.4807 24.8076 9.35406C25.0801 7.9035 27.2639 4.61854 30.2873 3.7616C32.6755 5.53106 34.6167 7.83406 35.9559 10.4867C37.295 13.1394 37.995 16.0682 38 19.0393" fill="#9E3DFF"/>
<path d="M13.9021 8.50606C13.2462 9.11106 12.7266 9.84858 12.3778 10.6697C12.029 11.4907 11.859 12.3766 11.879 13.2684C11.8594 14.1514 12.0291 15.0283 12.3764 15.8405C12.7238 16.6526 13.2409 17.3811 13.8931 17.9771C13.2662 18.3751 12.7549 18.9307 12.4104 19.5883C12.0384 20.2571 11.8446 21.0102 11.8477 21.7753C11.8227 22.33 11.9229 22.8832 12.1409 23.3939C12.3589 23.9046 12.6892 24.3597 13.1071 24.7255C14.0719 25.507 15.2924 25.903 16.5325 25.8369H22.4632C23.5351 25.8369 24.2273 26.4573 24.2273 27.4213C24.2371 27.8135 24.0947 28.1942 23.8298 28.4836C23.6929 28.6169 23.5308 28.7215 23.3528 28.7913C23.1749 28.861 22.9848 28.8945 22.7937 28.8898H2.78188C0.668311 25.4279 -0.281206 21.3809 0.072268 17.3409C0.425742 13.301 2.06365 9.48009 4.74633 6.43738C7.42901 3.39468 11.0156 1.28988 14.9814 0.430956C18.9472 -0.427965 23.0839 0.004084 26.7863 1.66388C24.397 3.27512 22.8563 5.27466 22.3203 7.30098C21.2807 6.82544 20.15 6.58176 19.0066 6.58686C17.1326 6.53307 15.3118 7.21384 13.9333 8.48374" fill="#9E3DFF"/>
</svg>
