<svg width="128" height="128" viewBox="0 0 128 128" fill="none" xmlns="http://www.w3.org/2000/svg">
<path d="M14.2222 27.4347C14.2222 23.871 18.5307 22.0864 21.0506 24.6062L103.394 106.949C105.914 109.469 104.129 113.778 100.565 113.778H18.2222C16.013 113.778 14.2222 111.987 14.2222 109.778V27.4347Z" fill="#5F6DFB"/>
<g>
<path d="M39.1112 22.2222C39.1112 17.8039 42.6929 14.2222 47.1112 14.2222H105.778C110.196 14.2222 113.778 17.804 113.778 22.2222V80.8889C113.778 85.3072 110.196 88.8889 105.778 88.8889H47.1112C42.6929 88.8889 39.1112 85.3072 39.1112 80.8889V22.2222Z" fill="url(#paint0_linear)"/>
</g>
<defs>
<linearGradient id="paint0_linear" x1="126.223" y1="101.335" x2="39.1112" y2="14.2232" gradientUnits="userSpaceOnUse">
<stop stop-color="#7C3AED"/>
<stop offset="1" stop-color="#7C3AED" stop-opacity="0"/>
</linearGradient>
</defs>
</svg>
