<svg width="65" height="64" viewBox="0 0 65 64" fill="none" xmlns="http://www.w3.org/2000/svg">
<path d="M52.5663 37.1762L29.3663 13.9762C28.5663 13.1762 27.4997 12.9094 26.433 13.4427C25.3664 13.976 24.833 14.7761 24.833 15.8428V48.6429C24.833 49.7095 25.3664 50.5093 26.433 51.0426C26.6997 51.3093 27.233 51.3095 27.4997 51.3095C28.033 51.3095 28.5663 51.0426 29.0997 50.7759C31.233 49.1759 33.0997 47.8426 35.233 46.7759L39.233 56.1093C39.7663 57.7093 41.3663 58.5095 42.9663 58.5095C43.4997 58.5095 44.033 58.5095 44.5663 58.2429C46.6997 57.4429 47.4997 55.0429 46.6997 52.9095L42.6997 43.3095C45.3663 42.5095 48.033 41.9759 50.9663 41.4426C52.033 41.4426 52.833 40.6429 53.0997 39.5762C53.633 39.0429 53.3663 37.9762 52.5663 37.1762Z" fill="#42CB99"/>
<path opacity="0.3" d="M40.833 18.5093C40.2997 18.5093 40.033 18.5094 39.7663 18.2427C38.433 17.7094 37.8997 16.1093 38.6997 14.7759L41.3663 9.44258C41.8997 8.10925 43.4997 7.57586 44.833 8.37586C46.1663 8.9092 46.6997 10.5093 45.8997 11.8427L43.233 17.176C42.6997 17.976 41.8997 18.5093 40.833 18.5093ZM49.8997 26.2427L55.233 23.576C56.5663 23.0427 57.0997 21.4426 56.2997 20.1093C55.7663 18.7759 54.1663 18.2425 52.833 19.0425L47.4997 21.7092C46.1663 22.2425 45.633 23.8427 46.433 25.176C46.9663 26.2427 47.7663 26.776 48.833 26.776C49.3663 26.5093 49.633 26.5094 49.8997 26.2427ZM19.7664 29.176C19.7664 27.576 18.6997 26.5093 17.0997 26.5093H11.4997C9.89967 26.5093 8.83301 27.576 8.83301 29.176C8.83301 30.776 9.89967 31.8427 11.4997 31.8427H17.0997C18.6997 31.8427 19.7664 30.776 19.7664 29.176ZM13.8996 45.7091L19.233 43.0424C20.5663 42.5091 21.0996 40.9093 20.2996 39.576C19.7663 38.2427 18.1663 37.7093 16.833 38.5093L11.4997 41.176C10.1663 41.7093 9.63303 43.3093 10.433 44.6427C10.9664 45.7093 11.7663 46.2427 12.833 46.2427C13.0997 45.976 13.633 45.9757 13.8996 45.7091Z" fill="#42CB99"/>
</svg>
