<svg width="12" height="12" viewBox="0 0 12 12" fill="none" xmlns="http://www.w3.org/2000/svg">
<path fill-rule="evenodd" clip-rule="evenodd" d="M3 0C3.55228 0 4 0.447715 4 1C4 1.51284 3.61396 1.93551 3.11662 1.99327L3 2C2.48716 2 2.06449 2.38604 2.00673 2.88338L2 3V9C2 9.51284 2.38604 9.93551 2.88338 9.99327L3 10H9C9.51284 10 9.93551 9.61396 9.99327 9.11662L10 9C10 8.44771 10.4477 8 11 8C11.5523 8 12 8.44771 12 9C12 10.5977 10.7511 11.9037 9.17627 11.9949L9 12H3C1.40232 12 0.0963391 10.7511 0.00509269 9.17627L0 9V3C0 1.34315 1.34315 0 3 0ZM11 0L11.081 0.003L11.2007 0.0202401L11.3121 0.0497381L11.4232 0.0936734L11.5207 0.145995L11.6168 0.212786L11.7071 0.292893L11.8037 0.404693L11.8753 0.515938L11.9063 0.576901L11.9401 0.65835L11.9642 0.734007L11.9931 0.881904L12 1V5C12 5.55228 11.5523 6 11 6C10.4477 6 10 5.55228 10 5V3.414L7.70711 5.70711C7.34662 6.06759 6.77939 6.09532 6.3871 5.7903L6.29289 5.70711C5.93241 5.34662 5.90468 4.77939 6.2097 4.3871L6.29289 4.29289L8.584 2H7C6.44772 2 6 1.55228 6 1C6 0.447715 6.44772 0 7 0H11Z" fill="#ACBCD3"/>
</svg>
