<svg width="65" height="64" viewBox="0 0 65 64" fill="none" xmlns="http://www.w3.org/2000/svg">
<path opacity="0.3" d="M46 22.5773V47.4228C46 50.7805 43.2003 53.5 39.747 53.5H15.253C11.7997 53.5 9 50.7805 9 47.4228V22.5773C9 19.2195 11.7997 16.5 15.253 16.5H39.747C43.2003 16.5 46 19.2195 46 22.5773Z" fill="#42CB99"/>
<path d="M56.5 20C56.5 21.0459 54.8161 21.813 54.5089 22.7543C54.2017 23.6956 55.0883 25.3343 54.5089 26.1478C53.9294 26.9613 52.0978 26.6126 51.2733 27.2092C50.4489 27.8058 50.2428 29.6342 49.2628 29.9519C48.2828 30.2696 47.05 28.9098 46 28.9098C44.95 28.9098 43.7017 30.2579 42.7528 29.948C41.8039 29.6381 41.5589 27.8019 40.7422 27.2092C39.9255 26.6165 38.1055 26.969 37.5067 26.1478C36.9078 25.3265 37.81 23.7305 37.5067 22.7543C37.2033 21.7781 35.5 21.0459 35.5 20C35.5 18.9541 37.1839 18.187 37.4911 17.2457C37.7983 16.3044 36.9117 14.6657 37.4911 13.8522C38.0706 13.0387 39.9022 13.3874 40.7267 12.7908C41.5511 12.1942 41.7572 10.3658 42.7372 10.0481C43.7172 9.73044 44.95 11.0902 46 11.0902C47.05 11.0902 48.2983 9.74207 49.2472 10.052C50.1961 10.3619 50.4411 12.1981 51.2578 12.7908C52.0745 13.3835 53.8945 13.031 54.4933 13.8522C55.0922 14.6735 54.19 16.2695 54.4933 17.2457C54.7967 18.2219 56.5 18.9541 56.5 20Z" fill="#42CB99"/>
<path d="M29.7412 24.5096C29.2603 24.4689 28.7774 24.5584 28.3429 24.7687C27.9084 24.979 27.5382 25.3025 27.271 25.7054L26.7322 26.5096L26.6958 26.5612L24.2045 30.2547C24.1139 30.3869 24.0598 30.5407 24.0476 30.7006C24.0354 30.8605 24.0655 31.0207 24.1348 31.1652L24.8099 32.6129L28.1398 39.751L28.8148 41.1987C28.8812 41.3406 28.9829 41.4629 29.1102 41.5538C29.2374 41.6447 29.386 41.7011 29.5414 41.7177L33.9519 42.182H33.9671L34.9903 42.2913C35.4811 42.3442 35.9771 42.2623 36.4251 42.0545C36.8534 41.8493 37.2207 41.5354 37.4907 41.1441C37.7723 40.7529 37.9442 40.2931 37.9884 39.8127C38.0326 39.3323 37.9475 38.8488 37.7419 38.4126L32.0085 26.0908C31.8078 25.6468 31.4911 25.2655 31.092 24.9871C30.6929 24.7088 30.2261 24.5438 29.7412 24.5096Z" fill="#42CB99"/>
<path d="M17.2513 37.4628L19.555 42.4128C19.7063 42.7393 19.9204 43.0326 20.1851 43.2759C20.4498 43.5191 20.7599 43.7075 21.0975 43.8302C21.435 43.9529 21.7935 44.0074 22.1522 43.9908C22.5109 43.9741 22.8628 43.8865 23.1876 43.733L26.3146 42.2732C26.4232 42.2226 26.5207 42.1511 26.6016 42.0626C26.6825 41.9741 26.7451 41.8705 26.7859 41.7577C26.8267 41.6449 26.8448 41.5251 26.8393 41.4052C26.8337 41.2853 26.8046 41.1678 26.7536 41.0592L26.3691 40.2337L23.2996 33.6327L22.903 32.8224C22.8526 32.7136 22.7812 32.6158 22.693 32.5347C22.6048 32.4536 22.5014 32.3908 22.3889 32.3499C22.2764 32.309 22.1569 32.2908 22.0373 32.2964C21.9177 32.3019 21.8004 32.3312 21.6922 32.3823L18.5651 33.8452C17.9141 34.1521 17.4105 34.7047 17.1644 35.3825C16.9183 36.0602 16.9495 36.8081 17.2513 37.4628Z" fill="#42CB99"/>
<path fill-rule="evenodd" clipRule="evenodd" d="M22.8899 41.4091C23.4795 40.7998 24.4513 40.7837 25.0606 41.3733L28.7023 44.8969C29.3116 45.4864 29.3276 46.4583 28.7381 47.0676C28.1485 47.6769 27.1767 47.6929 26.5673 47.1034L22.9257 43.5798C22.3164 42.9903 22.3003 42.0184 22.8899 41.4091Z" fill="#42CB99"/>
<path fill-rule="evenodd" clipRule="evenodd" d="M50.3974 17.1299C50.878 17.6255 50.8658 18.4168 50.3701 18.8974L45.7291 23.3974C45.2446 23.8673 44.4745 23.8676 43.9895 23.3981L41.6305 21.1141C41.1345 20.6339 41.1217 19.8426 41.6019 19.3466C42.0821 18.8506 42.8735 18.8378 43.3695 19.318L44.8584 20.7595L48.6299 17.1026C49.1255 16.622 49.9168 16.6342 50.3974 17.1299Z" fill="white"/>
</svg>
