<svg width="190" height="190" viewBox="0 0 190 190" fill="none" xmlns="http://www.w3.org/2000/svg">
<path d="M94.8177 51.7025C96.8338 51.6452 98.8414 51.9863 100.725 52.7062C102.61 53.4262 104.333 54.5108 105.797 55.898C107.183 57.2641 108.282 58.8918 109.033 60.6867C109.784 62.4815 110.171 64.4076 110.171 66.3531C110.171 68.2987 109.784 70.2248 109.033 72.0196C108.282 73.8145 107.183 75.4422 105.797 76.8083C102.829 79.5873 98.882 81.0795 94.8177 80.9592C92.7935 81.0273 90.7761 80.6914 88.8832 79.9711C86.9904 79.2507 85.2601 78.1604 83.7934 76.7637C81.0229 73.9895 79.4668 70.2292 79.4668 66.3085C79.4668 62.3879 81.0229 58.6275 83.7934 55.8533C85.2593 54.4556 86.9895 53.3646 88.8826 52.6442C90.7756 51.9238 92.7934 51.5884 94.8177 51.6579" fill="#532FAF"/>
<path d="M189.885 95.0406C189.882 113.79 184.328 132.12 173.925 147.719C163.522 163.318 148.735 175.489 131.426 182.699C114.118 189.908 95.0626 191.833 76.6618 188.231C58.2611 184.629 41.3382 175.661 28.0254 162.458H110.596C117.291 162.458 124.833 162.056 129.743 159.155C132.461 157.598 134.827 155.496 136.694 152.98C138.56 150.465 139.886 147.591 140.589 144.538C141.175 142.12 141.46 139.639 141.437 137.151C141.437 126.931 133.604 110.751 112.582 110.751H86.5387C84.4274 110.855 82.3475 110.207 80.6695 108.921C79.9653 108.372 79.3975 107.667 79.0105 106.862C78.6234 106.056 78.4274 105.173 78.4379 104.28C78.3975 102.913 78.7396 101.562 79.4256 100.379C80.1117 99.196 81.1145 98.2283 82.3209 97.5846C86.3596 98.8432 90.5655 99.4827 94.7957 99.4815C104.181 99.8067 113.323 96.4604 120.281 90.1533C123.579 87.161 126.199 83.4984 127.965 79.4109C129.732 75.3235 130.604 70.9056 130.524 66.4534C130.62 59.3402 128.308 52.4035 123.963 46.7704C125.324 39.5176 136.237 23.0928 151.345 18.8081C163.279 27.6554 172.979 39.1704 179.671 52.4337C186.363 65.6969 189.861 80.3411 189.885 95.1968" fill="#532FAF"/>
<path d="M69.4686 42.5303C66.1912 45.5553 63.5948 49.2429 61.8519 53.3483C60.1089 57.4537 59.2593 61.8829 59.3594 66.3418C59.2617 70.7568 60.1092 75.1416 61.8451 79.2022C63.581 83.2629 66.165 86.9054 69.424 89.8855C66.2911 91.8753 63.7361 94.6534 62.015 97.9416C60.1559 101.285 59.1876 105.051 59.2031 108.877C59.0781 111.65 59.5788 114.416 60.6682 116.97C61.7576 119.523 63.4078 121.799 65.4963 123.628C70.3171 127.535 76.4162 129.515 82.6129 129.184H112.249C117.605 129.184 121.064 132.286 121.064 137.107C121.113 139.067 120.401 140.971 119.078 142.418C118.394 143.085 117.583 143.608 116.694 143.956C115.805 144.305 114.855 144.473 113.9 144.449H13.9011C3.33955 127.14 -1.40519 106.905 0.361123 86.7047C2.12743 66.5048 10.3121 47.4004 23.7174 32.1869C37.1228 16.9734 55.0452 6.44938 74.8621 2.15478C94.679 -2.13983 115.35 0.02042 133.851 8.31942C121.912 16.3756 114.213 26.3733 111.535 36.5049C106.34 34.1272 100.689 32.9088 94.9762 32.9343C85.6116 32.6653 76.5133 36.0692 69.6249 42.4187" fill="#532FAF"/>
</svg>
