<svg width="153" height="86" viewBox="0 0 153 86" fill="none" xmlns="http://www.w3.org/2000/svg">
<g clip-path="url(#clip0)">
<path d="M147.429 71.5348L76.7659 85.9389C76.1938 86.0204 75.6105 86.0204 75.0383 85.9389L5.29498 71.5348C2.26607 71.0927 0 68.3934 0 65.217V43.1454V20.7946C0 17.6183 2.25485 14.919 5.29498 14.4768L75.0271 0.0610837C75.5992 -0.0203612 76.1826 -0.0203612 76.7547 0.0610837L147.44 14.4652C150.469 14.9073 152.724 17.6066 152.724 20.783V43.1454V65.217C152.724 68.3934 150.469 71.0927 147.429 71.5348Z" fill="url(#paint0_linear)"/>
<path d="M40.4609 31.6403C44.1182 29.9544 51.2973 18.9784 46.0597 18.9086C33.7785 18.7459 14.6568 54.7782 24.0596 57.8942C30.1212 59.9057 40.1449 42.686 40.1449 42.686L40.6077 45.3254C40.6077 45.3254 32.4804 63.359 22.0278 62.3009C4.77992 60.5452 26.464 11.6999 47.3804 14.9903C54.5821 16.1181 52.8212 28.6056 47.9222 31.9659C43.2265 35.1866 40.4609 31.6403 40.4609 31.6403Z" fill="#282851"/>
<path d="M41.1606 40.7676C41.1606 40.7676 30.7419 59.4174 30.3581 64.231C29.9404 69.3469 32.9994 68.7191 34.7829 68.9516C34.6249 65.4286 44.5018 41.1745 44.5018 41.1745L41.1606 40.7676Z" fill="#282851"/>
<path d="M30.2793 40.5234C30.5164 41.3257 51.1168 36.2679 52.3585 37.1632C54.1419 38.4422 52.6745 40.1281 51.6586 41.3257C49.8751 40.0467 32.4128 46.0928 31.0582 45.0115C28.7893 43.1744 30.2793 40.5234 30.2793 40.5234Z" fill="#282851"/>
<path d="M45.1227 51.7319C48.622 51.7319 52.584 46.7672 49.7846 46.7672C46.9852 46.7672 43.7343 54.9875 47.9673 55.5107C52.5727 56.0805 56.6928 47.7206 56.6928 47.7206L57.0089 50.3599C57.0089 50.3599 54.0627 59.2314 47.1432 59.4872C38.3613 59.8128 41.4654 43.3953 50.1007 42.6744C56.3767 42.1512 54.9206 52.0459 45.7435 53.7202L45.1227 51.7319Z" fill="#282851"/>
<path d="M62.4496 41.5698C55.2254 43.0115 52.8323 57.6849 61.0499 57.4989C69.7755 57.3012 70.7349 40.628 65.3732 40.8722C61.7272 41.0349 63.1495 46.5346 65.012 46.3718C65.3732 46.7438 64.0299 53.6852 61.2757 53.3364C57.6861 52.8829 61.5353 44.4998 64.5379 43.7324C64.5492 43.7324 64.9781 41.0582 62.4496 41.5698Z" fill="#282851"/>
<path d="M65.8474 43.058C65.8474 43.058 70.261 44.8835 73.5683 40.3257L74.5504 41.4651C74.5504 41.4651 72.3266 46.6159 66.6714 45.8369L65.8474 43.058Z" fill="#282851"/>
<path d="M73.0943 39.5118C73.591 39.9885 69.708 49.5809 70.0692 53.4876C70.3401 56.4292 73.4894 54.8363 73.4894 54.8363C73.4894 54.8363 77.5869 41.814 79.551 41.814C81.5151 41.814 75.4422 52.976 81.1087 53.755C86.5834 54.4991 89.1231 45.1858 89.1231 45.1858L87.4525 43.872C87.4525 43.872 85.1837 50.4296 83.1406 49.8948C80.6911 49.2553 87.6331 38.9188 82.3956 38.6049C78.7157 38.384 75.3632 44.7091 75.3632 44.7091C75.3632 44.7091 76.9096 41.0815 76.5597 40.1048C75.8486 38.1747 73.0943 39.5118 73.0943 39.5118Z" fill="#282851"/>
<path d="M92.3175 37.6747C87.2266 38.1049 83.3549 53.4294 92.4755 52.8829C99.7223 52.4527 101.269 36.7561 96.415 36.4422C93.0286 36.2329 92.8593 41.3954 95.6587 42.9534C95.6587 42.9534 95.4104 49.4878 92.3513 49.5227C89.8567 49.5459 91.4934 41.0349 94.0671 40.1861C94.0784 40.1745 94.6428 37.477 92.3175 37.6747Z" fill="#282851"/>
<path d="M116.462 22.8502C117.986 25.7686 103.109 50.3948 114.036 50.9878C120.391 51.325 121.847 40.7211 121.847 40.7211L119.533 40.8839C119.533 40.8839 118.348 47.4183 115.458 47.5345C110.141 47.7322 119.352 30.7567 119.668 25.0245C119.804 22.7107 116.462 22.8502 116.462 22.8502Z" fill="#282851"/>
<path d="M112.274 39.8607C112.274 39.8607 112.218 36.0586 109.17 35.9075C102.488 35.5819 96.7875 52.0807 103.572 52.29C108.335 52.4412 110.615 45.8835 110.615 45.8835L110.299 43.1628C110.299 43.1628 107.85 49.174 105.536 48.8717C103.605 48.6159 106.834 39.5351 109.373 38.6282C111.371 37.9189 110.514 42.0466 110.514 42.0466L112.274 39.8607Z" fill="#282851"/>
<path d="M98.0292 39.3723C98.0292 39.3723 99.6434 42.9186 103.47 39.6397L102.793 42.1977C102.793 42.1977 100.975 44.4882 97.668 42.6279L98.0292 39.3723Z" fill="#282851"/>
<path d="M122.23 42.6396C124.714 42.9884 129.026 37.3609 126.486 37.0702C123.946 36.7795 121.136 44.9999 125.222 46.43C129.41 47.9066 134.579 41.4071 134.139 36.4772C134.139 36.4772 137.627 36.9191 136.814 41.6978C136.002 46.4765 131.182 52.1156 123.89 50.0925C115.571 47.7787 119.578 32.8728 127.378 33.7565C133.654 34.4657 129.963 45.1394 122.309 44.7441L122.23 42.6396Z" fill="#282851"/>
<path d="M39.1516 68.8353C39.1516 68.8353 70.2046 62.4056 119.307 55.8479C119.623 55.8014 119.894 55.6037 120.018 55.313C120.244 54.8014 120.379 53.9992 119.318 53.4992C117.219 52.5225 44.0844 60.7196 41.0705 62.5334C38.0792 64.3589 39.1516 68.8353 39.1516 68.8353Z" fill="#282851"/>
<path d="M123.991 55.499C125.02 55.499 125.854 54.6401 125.854 53.5806C125.854 52.521 125.02 51.6621 123.991 51.6621C122.963 51.6621 122.129 52.521 122.129 53.5806C122.129 54.6401 122.963 55.499 123.991 55.499Z" fill="#282851"/>
<path d="M85.0368 68.9051H84.3821V71.0212H83.0728V65.417H85.0707C86.2559 65.417 87.2041 65.8588 87.2041 67.1378C87.1928 68.44 86.1656 68.9051 85.0368 68.9051ZM84.9578 66.5099H84.3821V67.8354H84.9353C85.4319 67.8354 85.8834 67.6843 85.8834 67.1494C85.8721 66.6146 85.4206 66.5099 84.9578 66.5099Z" fill="#282851"/>
<path d="M91.358 71.0212L90.1841 68.8005H89.7438V71.0212H88.457V65.417H90.534C91.5838 65.417 92.611 65.8239 92.611 67.1145C92.611 67.8703 92.182 68.4051 91.4822 68.6261L92.9045 71.0212H91.358V71.0212ZM90.4211 66.5099H89.7213V67.8122H90.3421C90.7598 67.8122 91.2903 67.6959 91.2903 67.1262C91.3016 66.6146 90.8162 66.5099 90.4211 66.5099Z" fill="#282851"/>
<path d="M96.6972 71.1724C95.004 71.1724 93.7397 69.9748 93.7397 68.1959C93.7397 66.4053 95.004 65.2659 96.6972 65.2659C98.4017 65.2659 99.6659 66.3937 99.6659 68.1959C99.6659 69.9748 98.4017 71.1724 96.6972 71.1724ZM96.6972 66.4867C95.7716 66.4867 95.1507 67.2192 95.1507 68.1959C95.1507 69.2074 95.7829 69.94 96.6972 69.94C97.6115 69.94 98.2549 69.2074 98.2549 68.1959C98.2662 67.2192 97.6228 66.4867 96.6972 66.4867Z" fill="#282851"/>
<path d="M104.045 71.0212L102.86 69.0446L101.72 71.0212H100.151L102.059 68.0563L100.309 65.417H101.889L102.905 67.1611L103.899 65.417H105.423L103.707 68.0563L105.671 71.0212H104.045Z" fill="#282851"/>
<path d="M106.63 71.0212V65.417H107.951V71.0212H106.63Z" fill="#282851"/>
<path d="M109.531 71.0212V65.417H113.189V66.5681H110.796V67.6261H113.053V68.7075H110.796V69.8702H113.324V71.0212H109.531Z" fill="#282851"/>
<path d="M117.523 66.8819C117.298 66.5912 116.891 66.3935 116.553 66.3935C116.214 66.3935 115.796 66.5098 115.796 66.9516C115.796 67.3237 116.124 67.44 116.632 67.6028C117.365 67.8469 118.325 68.1725 118.325 69.2887C118.325 70.5793 117.32 71.1607 116.248 71.1607C115.469 71.1607 114.69 70.87 114.216 70.3584L115.074 69.4515C115.334 69.7887 115.819 70.0444 116.248 70.0444C116.643 70.0444 117.004 69.8817 117.004 69.4398C117.004 69.0096 116.587 68.8817 115.875 68.6376C115.187 68.405 114.487 68.0446 114.487 67.033C114.487 65.7889 115.582 65.2773 116.587 65.2773C117.196 65.2773 117.896 65.5099 118.37 65.9633L117.523 66.8819Z" fill="#282851"/>
</g>
<defs>
<linearGradient id="paint0_linear" x1="152.724" y1="86" x2="0" y2="86" gradientUnits="userSpaceOnUse">
<stop stop-color="white"/>
<stop offset="1" stop-color="white"/>
</linearGradient>
<clipPath id="clip0">
<rect width="152.724" height="86" fill="white"/>
</clipPath>
</defs>
</svg>
