<svg width="19" height="19" viewBox="0 0 19 19" fill="none" xmlns="http://www.w3.org/2000/svg">
<path d="M9.20312 2.375C5.43244 2.375 2.375 5.43244 2.375 9.20312C2.375 12.9738 5.43244 16.0312 9.20312 16.0312C12.9738 16.0312 16.0312 12.9738 16.0312 9.20312C16.0312 5.43244 12.9738 2.375 9.20312 2.375Z" stroke="#525470" stroke-width="1.1875" stroke-miterlimit="10"/>
<path d="M8.16406 8.16406H9.35156V12.4688" stroke="#525470" stroke-width="1.1875" stroke-linecap="round" stroke-linejoin="round"/>
<path d="M7.71875 12.6172H10.9844" stroke="#525470" stroke-width="1.1875" stroke-miterlimit="10" stroke-linecap="round"/>
<path d="M9.20313 4.82422C9.0123 4.82422 8.82575 4.88081 8.66709 4.98682C8.50842 5.09284 8.38475 5.24353 8.31173 5.41983C8.2387 5.59613 8.21959 5.79013 8.25682 5.97729C8.29405 6.16446 8.38594 6.33637 8.52088 6.47131C8.65581 6.60625 8.82773 6.69814 9.01489 6.73537C9.20206 6.7726 9.39605 6.75349 9.57235 6.68046C9.74866 6.60744 9.89935 6.48377 10.0054 6.3251C10.1114 6.16643 10.168 5.97989 10.168 5.78906C10.168 5.53317 10.0663 5.28776 9.88537 5.10681C9.70443 4.92587 9.45902 4.82422 9.20313 4.82422Z" fill="#525470"/>
</svg>
