<svg width="218" height="40" viewBox="0 0 218 40" fill="none" xmlns="http://www.w3.org/2000/svg">
<g clip-path="url(#clip0)">
<path d="M57.2504 25.4123C57.053 21.6979 58.2048 18.0352 60.501 15.0748C61.5829 13.8002 62.9523 12.7899 64.5011 12.1238C66.0499 11.4578 67.7355 11.1543 69.4245 11.2373C71.4792 11.189 73.4994 11.7606 75.212 12.8748C75.3736 12.98 75.5611 13.0408 75.7548 13.0507C75.9485 13.0607 76.1414 13.0194 76.3134 12.9313C76.4853 12.8432 76.6299 12.7114 76.7322 12.5497C76.8344 12.3881 76.8906 12.2025 76.8947 12.0123V1.1498C76.8947 0.874643 77.0062 0.61075 77.2046 0.416181C77.403 0.221612 77.6722 0.112305 77.9528 0.112305H84.1355C84.4173 0.112285 84.6877 0.221192 84.8882 0.41541C85.0886 0.609628 85.2029 0.873499 85.2063 1.1498V38.4373C85.2063 38.7158 85.0934 38.9829 84.8926 39.1798C84.6918 39.3767 84.4194 39.4873 84.1355 39.4873H78.6157C78.3566 39.4865 78.1066 39.3935 77.912 39.2257C77.7174 39.058 77.5915 38.8267 77.5576 38.5748V38.5748C77.53 38.3915 77.4535 38.2186 77.3357 38.0736C77.2179 37.9287 77.0631 37.8169 76.887 37.7496C76.711 37.6823 76.5198 37.6619 76.3331 37.6905C76.1464 37.7191 75.9707 37.7956 75.8239 37.9123C73.9665 39.3214 71.6701 40.0587 69.3225 39.9998C67.6565 40.0583 65.999 39.7404 64.4783 39.0707C62.9575 38.4009 61.6142 37.3973 60.552 36.1373C58.3467 33.5748 57.2504 29.9998 57.2504 25.4123ZM65.5237 25.9623C65.3844 28.0641 65.9145 30.1563 67.0407 31.9498C67.5336 32.6213 68.1887 33.1624 68.9474 33.5246C69.7061 33.8867 70.5446 34.0586 71.3877 34.0248C72.4327 34.105 73.4798 33.8984 74.4119 33.4282C75.344 32.958 76.1242 32.2427 76.6652 31.3623C76.756 31.2061 76.8042 31.0296 76.8055 30.8498V20.4373C76.806 20.2573 76.7576 20.0804 76.6652 19.9248C76.138 19.0465 75.3696 18.3311 74.4477 17.8604C73.5259 17.3896 72.4876 17.1824 71.4514 17.2623C67.4996 17.2623 65.5237 20.1623 65.5237 25.9623Z" fill="white"/>
<path d="M105.807 39.9999C101.76 40.1683 97.7973 38.8286 94.7161 36.2499C93.3081 34.989 92.201 33.4391 91.4739 31.7106C90.7467 29.9821 90.4174 28.1176 90.5093 26.25V25.525C90.4596 22.9169 91.0776 20.3383 92.3068 18.025C93.4642 15.8811 95.237 14.1167 97.4059 12.95C99.7175 11.7705 102.297 11.1856 104.902 11.25C106.728 11.1527 108.556 11.4205 110.274 12.0372C111.993 12.6539 113.565 13.6066 114.896 14.8375C117.28 17.2125 118.554 20.6125 118.554 25V27.5C118.551 27.6569 118.485 27.8063 118.371 27.9162C118.256 28.026 118.103 28.0875 117.943 28.0875H99.5603C99.4693 28.0869 99.3795 28.1066 99.2975 28.1451C99.2154 28.1837 99.1435 28.24 99.0869 28.3099C99.0304 28.3797 98.9909 28.4613 98.9713 28.5484C98.9517 28.6354 98.9526 28.7258 98.9739 28.8125C99.2981 30.2381 100.096 31.5177 101.243 32.4499C102.692 33.5698 104.498 34.1499 106.342 34.0875C107.655 34.1454 108.966 33.9341 110.191 33.467C111.415 32.9999 112.527 32.2874 113.455 31.375C113.511 31.3194 113.578 31.2753 113.651 31.2452C113.724 31.215 113.803 31.1995 113.882 31.1995C113.962 31.1995 114.041 31.215 114.114 31.2452C114.187 31.2753 114.254 31.3194 114.309 31.375L117.547 34.625C117.65 34.7336 117.708 34.8765 117.708 35.025C117.708 35.1734 117.65 35.3163 117.547 35.425C116.27 36.8541 114.668 37.9677 112.869 38.675C110.632 39.5852 108.228 40.0362 105.807 39.9999V39.9999ZM104.851 17.2125C104.116 17.193 103.385 17.3191 102.702 17.5833C102.019 17.8475 101.397 18.2443 100.873 18.75C99.9252 19.7383 99.2917 20.9764 99.0504 22.3125C99.0313 22.3983 99.0321 22.4872 99.0527 22.5727C99.0734 22.6582 99.1133 22.7381 99.1695 22.8064C99.2258 22.8748 99.297 22.9299 99.3778 22.9677C99.4587 23.0055 99.5472 23.0251 99.6368 23.025H109.835C109.994 23.025 110.146 22.9631 110.259 22.8529C110.371 22.7427 110.434 22.5933 110.434 22.4375V22.4375C110.461 21.7343 110.343 21.033 110.086 20.3757C109.83 19.7184 109.441 19.1187 108.943 18.6125C108.39 18.1273 107.745 17.7539 107.045 17.5137C106.345 17.2734 105.604 17.1711 104.863 17.2125H104.851Z" fill="white"/>
<path d="M135.853 18.75L139.958 12.2125C140.045 12.0775 140.165 11.9665 140.308 11.8899C140.451 11.8134 140.611 11.7738 140.774 11.775H147.352C147.522 11.776 147.689 11.8217 147.836 11.9073C147.982 11.9929 148.103 12.1154 148.185 12.2621C148.267 12.4087 148.307 12.5741 148.302 12.7413C148.297 12.9084 148.246 13.0711 148.155 13.2125L140.595 24.8625C140.496 25.0111 140.443 25.1849 140.443 25.3625C140.443 25.5401 140.496 25.7139 140.595 25.8625L148.525 38.075C148.615 38.2164 148.666 38.3791 148.671 38.5462C148.677 38.7134 148.636 38.8788 148.554 39.0254C148.472 39.1721 148.352 39.2946 148.206 39.3802C148.059 39.4658 147.892 39.5115 147.721 39.5125H141.118C140.955 39.5137 140.795 39.4741 140.652 39.3976C140.509 39.321 140.389 39.21 140.302 39.075L135.879 32.075C135.791 31.9408 135.67 31.8304 135.528 31.7539C135.385 31.6774 135.225 31.6373 135.063 31.6373C134.9 31.6373 134.74 31.6774 134.598 31.7539C134.455 31.8304 134.335 31.9408 134.247 32.075L129.849 39.075C129.762 39.21 129.642 39.321 129.499 39.3976C129.356 39.4741 129.196 39.5137 129.033 39.5125H122.379C122.208 39.5115 122.041 39.4658 121.895 39.3802C121.748 39.2946 121.628 39.1721 121.546 39.0254C121.464 38.8788 121.424 38.7134 121.429 38.5462C121.434 38.3791 121.485 38.2164 121.576 38.075L129.505 25.8625C129.598 25.7118 129.648 25.5389 129.648 25.3625C129.648 25.1861 129.598 25.0132 129.505 24.8625L121.996 13.1875C121.905 13.0461 121.855 12.8834 121.849 12.7163C121.844 12.5491 121.885 12.3837 121.967 12.2371C122.049 12.0904 122.169 11.9679 122.315 11.8823C122.462 11.7967 122.629 11.751 122.799 11.75H129.403C129.567 11.7513 129.727 11.7933 129.87 11.872C130.013 11.9507 130.133 12.0635 130.219 12.2L134.222 18.75C134.307 18.8871 134.427 19.0003 134.57 19.0789C134.713 19.1575 134.874 19.1987 135.037 19.1987C135.201 19.1987 135.362 19.1575 135.505 19.0789C135.648 19.0003 135.768 18.8871 135.853 18.75V18.75Z" fill="white"/>
<path d="M161.068 39.4875H154.248C154.153 39.4875 154.06 39.469 153.972 39.433C153.885 39.3971 153.805 39.3444 153.739 39.2781C153.672 39.2117 153.62 39.1331 153.585 39.0467C153.55 38.9603 153.533 38.868 153.534 38.775V12.5C153.527 12.404 153.541 12.3075 153.573 12.2167C153.606 12.126 153.658 12.0428 153.725 11.9724C153.792 11.902 153.873 11.8459 153.963 11.8076C154.053 11.7694 154.15 11.7498 154.248 11.75H161.107C161.299 11.75 161.484 11.8251 161.62 11.9587C161.757 12.0923 161.833 12.2735 161.833 12.4625V38.75C161.837 38.8489 161.82 38.9475 161.782 39.0394C161.745 39.1313 161.689 39.2147 161.617 39.284C161.545 39.3534 161.459 39.4074 161.364 39.4424C161.27 39.4774 161.169 39.4928 161.068 39.4875Z" fill="white"/>
<path d="M186.271 39.4875H179.629C179.409 39.4875 179.199 39.4019 179.043 39.2495C178.888 39.0971 178.801 38.8905 178.801 38.675V12.5625C178.801 12.347 178.888 12.1403 179.043 11.988C179.199 11.8356 179.409 11.75 179.629 11.75H186.271C186.49 11.75 186.701 11.8356 186.857 11.988C187.012 12.1403 187.099 12.347 187.099 12.5625V38.675C187.099 38.8905 187.012 39.0971 186.857 39.2495C186.701 39.4019 186.49 39.4875 186.271 39.4875V39.4875Z" fill="white"/>
<path d="M173.893 32.575H167.06V39.275H173.893V32.575Z" fill="white"/>
<path d="M204.245 39.5999C200.535 39.5276 197.005 38.0161 194.429 35.3966C191.853 32.7771 190.442 29.2632 190.503 25.6249C190.447 23.8199 190.761 22.0224 191.427 20.3387C192.093 18.6551 193.096 17.1196 194.378 15.8235C195.661 14.5273 197.195 13.4968 198.891 12.7931C200.587 12.0894 202.41 11.7268 204.252 11.7268C206.093 11.7268 207.916 12.0894 209.612 12.7931C211.308 13.4968 212.842 14.5273 214.125 15.8235C215.407 17.1196 216.411 18.6551 217.076 20.3387C217.742 22.0224 218.056 23.8199 218 25.6249C218.061 29.2653 216.648 32.7811 214.069 35.401C211.491 38.0208 207.958 39.5309 204.245 39.5999ZM204.245 18.6874C202.437 18.759 200.731 19.5283 199.499 20.8278C198.267 22.1272 197.609 23.8515 197.667 25.6249C197.598 26.5141 197.717 27.4077 198.017 28.2498C198.316 29.0918 198.79 29.8641 199.408 30.5182C200.026 31.1724 200.775 31.6943 201.609 32.0512C202.442 32.408 203.342 32.5923 204.252 32.5923C205.161 32.5923 206.061 32.408 206.894 32.0512C207.728 31.6943 208.477 31.1724 209.095 30.5182C209.713 29.8641 210.187 29.0918 210.487 28.2498C210.786 27.4077 210.905 26.5141 210.836 25.6249C210.877 23.8601 210.209 22.15 208.976 20.8638C207.743 19.5776 206.044 18.8183 204.245 18.7499V18.6874Z" fill="white"/>
<path d="M157.728 9.5749C159.953 9.5749 161.757 7.71688 161.757 5.4249C161.757 3.13292 159.953 1.2749 157.728 1.2749C155.504 1.2749 153.7 3.13292 153.7 5.4249C153.7 7.71688 155.504 9.5749 157.728 9.5749Z" fill="white"/>
<path d="M183.135 9.5749C185.36 9.5749 187.163 7.71688 187.163 5.4249C187.163 3.13292 185.36 1.2749 183.135 1.2749C180.91 1.2749 179.106 3.13292 179.106 5.4249C179.106 7.71688 180.91 9.5749 183.135 9.5749Z" fill="white"/>
<path d="M37.606 14.375C36.1563 14.375 34.7391 13.9535 33.5337 13.1637C32.3283 12.3739 31.3888 11.2514 30.834 9.93804C30.2792 8.6247 30.134 7.17953 30.4168 5.78529C30.6997 4.39105 31.3978 3.11036 32.4229 2.10517C33.448 1.09998 34.7541 0.41544 36.176 0.138109C37.5979 -0.139222 39.0717 0.00311427 40.411 0.547119C41.7504 1.09112 42.8952 2.01236 43.7006 3.19434C44.5061 4.37632 44.936 5.76595 44.936 7.1875C44.9326 9.09273 44.1592 10.919 42.7853 12.2662C41.4114 13.6134 39.549 14.3717 37.606 14.375V14.375ZM37.606 1.25C36.4134 1.25 35.2476 1.59677 34.2561 2.24644C33.2645 2.89611 32.4916 3.81952 32.0353 4.89989C31.5789 5.98026 31.4595 7.16906 31.6921 8.31597C31.9248 9.46289 32.4991 10.5164 33.3423 11.3433C34.1856 12.1702 35.26 12.7333 36.4296 12.9614C37.5993 13.1895 38.8117 13.0724 39.9135 12.6249C41.0152 12.1774 41.9569 11.4196 42.6195 10.4473C43.2821 9.47501 43.6357 8.33189 43.6357 7.1625C43.6357 5.59441 43.0004 4.09054 41.8696 2.98173C40.7388 1.87293 39.2052 1.25 37.606 1.25V1.25Z" fill="#8DC540"/>
<path d="M8.63026 39.2751C6.92336 39.2751 5.25479 38.7788 3.83555 37.8489C2.41631 36.919 1.31015 35.5974 0.656943 34.0511C0.00373934 32.5047 -0.167168 30.8032 0.165832 29.1617C0.498832 27.5201 1.32078 26.0122 2.52775 24.8287C3.73471 23.6452 5.27247 22.8392 6.94658 22.5127C8.62069 22.1862 10.3559 22.3538 11.9329 22.9943C13.5099 23.6348 14.8577 24.7194 15.8061 26.1111C16.7544 27.5027 17.2605 29.1389 17.2605 30.8126C17.2571 33.056 16.3468 35.2065 14.729 36.7928C13.1113 38.3792 10.9181 39.2718 8.63026 39.2751V39.2751ZM8.63026 24.2751C7.30803 24.2726 6.01479 24.655 4.91435 25.3738C3.8139 26.0925 2.95575 27.1154 2.44859 28.3127C1.94143 29.5101 1.80807 30.8281 2.06541 32.0999C2.32275 33.3716 2.9592 34.5399 3.89416 35.4566C4.82912 36.3734 6.02052 36.9975 7.31747 37.2498C8.61442 37.5022 9.95857 37.3714 11.1797 36.8741C12.4008 36.3768 13.4439 35.5353 14.1769 34.4563C14.9099 33.3772 15.2999 32.1091 15.2974 30.8126C15.294 29.0786 14.5909 27.4164 13.3417 26.1891C12.0924 24.9618 10.3986 24.2692 8.63026 24.2626V24.2751Z" fill="#8DC540"/>
<path d="M37.7718 39.5999C35.966 39.6024 34.2 39.0796 32.6974 38.0977C31.1947 37.1157 30.0228 35.7188 29.33 34.0836C28.6373 32.4485 28.4547 30.6485 28.8054 28.9116C29.1562 27.1746 30.0245 25.5787 31.3004 24.3258C32.5764 23.0728 34.2028 22.2192 35.9737 21.8728C37.7445 21.5265 39.5804 21.703 41.249 22.38C42.9175 23.0571 44.3438 24.2042 45.3473 25.6763C46.3508 27.1484 46.8864 28.8793 46.8864 30.6499C46.8864 33.0215 45.9266 35.296 44.2176 36.9741C42.5086 38.6522 40.1903 39.5966 37.7718 39.5999V39.5999ZM37.7718 24.2624C36.4834 24.2624 35.224 24.6371 34.1527 25.3389C33.0815 26.0408 32.2465 27.0384 31.7535 28.2056C31.2605 29.3727 31.1315 30.657 31.3828 31.8961C31.6342 33.1351 32.2546 34.2733 33.1656 35.1666C34.0766 36.0599 35.2373 36.6683 36.5009 36.9147C37.7645 37.1612 39.0743 37.0347 40.2646 36.5512C41.4549 36.0678 42.4723 35.2491 43.1881 34.1987C43.9038 33.1482 44.2859 31.9133 44.2859 30.6499C44.2792 28.9579 43.5907 27.337 42.3705 26.1406C41.1503 24.9441 39.4973 24.269 37.7718 24.2624V24.2624Z" fill="#8DC540"/>
<path d="M38.2689 14.05H37.2874V21.7126H38.2689V14.05Z" fill="#8DC540"/>
<path d="M29.1415 30.3374H17.0948V31.2999H29.1415V30.3374Z" fill="#8DC540"/>
<path d="M31.7865 10.3214L13.5497 23.7283L14.1385 24.4984L32.3753 11.0915L31.7865 10.3214Z" fill="#8DC540"/>
</g>
<defs>
<clipPath id="clip0">
<rect width="218" height="40" fill="white"/>
</clipPath>
</defs>
</svg>
