<?xml version="1.0" encoding="UTF-8"?>
<svg width="140px" height="36px" viewBox="0 0 140 36" version="1.1" xmlns="http://www.w3.org/2000/svg" xmlns:xlink="http://www.w3.org/1999/xlink">
    <!-- Generator: Sketch 59 (86127) - https://sketch.com -->
    <title>Asset 13</title>
    <desc>Created with Sketch.</desc>
    <g id="Contact-Us" stroke="none" stroke-width="1" fill="none" fillRule="evenodd">
        <g transform="translate(-139.000000, -35.000000)" fill="#009AE0" fillRule="nonzero" id="Header">
            <g>
                <g id="Asset-13" transform="translate(139.000000, 35.000000)">
                    <path d="M24.0190322,23.3330634 C23.5279697,25.458751 22.8810947,27.2978448 22.0784071,28.8503449 C21.2757196,30.402845 20.2786883,31.6946263 19.0873133,32.7256888 C17.8925632,33.7550638 16.4618444,34.5234389 14.7951568,35.0308139 C13.1284693,35.5381889 11.1830629,35.7913139 8.95893786,35.7901927 C6.89850027,35.7901927 5.16543771,35.6020327 3.75975015,35.2257201 C2.59982007,34.9212942 1.46680508,34.5222698 0.372093765,34.0326576 C0.127812228,33.9196957 0.0178427452,33.6328025 0.124031255,33.3855013 L2.19375009,28.5052511 C2.24606754,28.3830638 2.34492692,28.2867672 2.46844592,28.2376763 C2.59196492,28.1885854 2.72995599,28.1907492 2.85187511,28.2436886 C3.7326348,28.6195513 4.6340959,28.9449224 5.55187522,29.2182199 C6.64706276,29.5450324 7.99706282,29.7087199 9.60187538,29.7092824 C11.693813,29.7092824 13.2713443,29.2432512 14.3344693,28.3111886 C15.3975944,27.3791261 16.0925631,26.1773448 16.4193757,24.7058447 L16.6151257,23.7777197 C15.9485874,24.1093591 15.2500169,24.3722772 14.5302193,24.5624072 C13.7698368,24.7616547 12.9866706,24.8606496 12.2006255,24.856876 C10.6633129,24.856876 9.33918787,24.6197822 8.22825033,24.1455947 C7.11731278,23.6714072 6.2091565,23.0082197 5.50378147,22.1560321 C4.7802226,21.2678003 4.24587758,20.2410309 3.93356266,19.138782 C3.58068962,17.9044125 3.40734934,16.6256727 3.41887514,15.3419069 C3.41887514,12.8573443 3.87675015,10.6582504 4.79250019,8.74462535 C5.70825023,6.83100027 6.92606278,5.23687521 8.44593784,3.96225016 C9.99457213,2.67165306 11.7760295,1.68956027 13.694063,1.06903129 C15.696153,0.410039346 17.7912559,0.0775692448 19.8990008,0.0842725996 C21.4649222,0.0842725996 23.02651,0.248908424 24.5581885,0.574593773 C25.9795835,0.879324178 27.365236,1.33178216 28.6925636,1.92459383 C28.9111805,2.02328841 29.028779,2.26344434 28.9726887,2.49665635 L24.0190322,23.3330634 Z M20.7815633,6.41250025 C20.1046556,6.26942416 19.4137211,6.20347261 18.7219695,6.2159065 C17.4782819,6.2159065 16.3665007,6.43668776 15.3866256,6.87825027 C14.4332353,7.30000302 13.5742045,7.90884185 12.860438,8.66868784 C12.1375075,9.45353213 11.5863208,10.3806064 11.2421254,11.3906255 C10.8603948,12.4862286 10.6694689,13.6392043 10.6776567,14.7993756 C10.6745163,15.3506987 10.7239588,15.9010649 10.8253129,16.4430007 C10.9093745,16.917449 11.093139,17.3686642 11.3644692,17.7668445 C11.6409864,18.1562378 12.0124681,18.4684683 12.4436255,18.6738757 C12.900938,18.9033758 13.4730005,19.0178445 14.1598131,19.0172841 C14.6182506,19.0172841 15.2313756,18.9357195 15.9991881,18.7725945 C16.7861611,18.5989408 17.508553,18.2077792 18.0840945,17.643657 L20.7815633,6.41250025 Z" id="Shape"></path>
                    <path d="M47.4906268,6.63018776 C47.4022162,6.86962927 47.1475079,7.00389692 46.9000018,6.94153153 C46.3937518,6.81778152 45.8931268,6.69825027 45.3981268,6.58293776 C44.7602517,6.43612526 43.820033,6.362719 42.5774704,6.362719 C42.0689451,6.36710582 41.5613906,6.40799215 41.0587203,6.48506276 L41.0426891,6.48506276 C40.2320809,6.60522005 39.5762089,7.20663091 39.3864078,8.00381282 L35.0174701,26.1874698 C34.9636119,26.4117476 34.7629678,26.5696888 34.5323138,26.5696888 L28.2531261,26.5696888 C28.1001482,26.5696888 27.9555664,26.4997619 27.860908,26.3795869 C27.7662496,26.2594119 27.7319902,26.1024376 27.7679698,25.953751 L32.4372825,6.56690651 C33.1206628,3.73100264 35.3437907,1.52223649 38.184064,0.857250034 L38.2363765,0.844593784 C39.9857515,0.436218767 41.9559079,0.231750009 44.1468455,0.231187509 C45.0583086,0.238986595 45.9680065,0.312867825 46.8687831,0.452250018 C47.6038537,0.554547979 48.32669,0.73094604 49.0262519,0.978750039 C49.1512169,1.0240109 49.2529908,1.11720908 49.3090486,1.23771762 C49.3651065,1.35822616 49.3708253,1.49610699 49.3249394,1.62084381 L47.4906268,6.63018776 Z" id="Path"></path>
                    <path d="M47.0562518,16.4657819 C47.0536133,14.3884993 47.4275327,12.3279406 48.1598768,10.3840317 C48.8690233,8.46671709 49.9249871,6.69629021 51.275002,5.16121896 C52.6400308,3.62166084 54.2993636,2.37084982 56.1552522,1.48246881 C58.0700022,0.550406272 60.1880961,0.0843750034 62.5095337,0.0843750034 C63.5915496,0.0752261711 64.6679509,0.240760627 65.6972213,0.574593773 C66.6385936,0.879916781 67.512733,1.36281296 68.2723464,1.99715633 C69.0078737,2.61855203 69.594625,3.39704267 69.9893777,4.27528142 C70.3977527,5.17528146 70.6019402,6.19706275 70.6019402,7.34062529 C70.6019402,9.17268786 70.193284,10.7260317 69.3759714,12.0006567 C68.5586589,13.2752818 67.4224088,14.3133756 65.9672213,15.1149381 C64.5120337,15.9165006 62.7871274,16.4970007 60.7925023,16.8564382 C58.7978773,17.2158757 56.6235334,17.3955944 54.2694708,17.3955944 C54.4984083,18.7692195 54.9970646,19.7420633 55.7654396,20.3141258 C56.5338147,20.8861883 57.7519085,21.1741883 59.419721,21.1781258 C60.4879252,21.1765118 61.5541509,21.0862016 62.6074087,20.9081258 C63.4393401,20.7721532 64.2594148,20.5715776 65.06019,20.3082196 C65.2037872,20.2613657 65.3609078,20.2824811 65.4870401,20.3655839 C65.6131724,20.4486867 65.6945762,20.5847241 65.70819,20.7351571 L66.1520025,25.4601573 C66.1735296,25.6880415 66.037145,25.9013164 65.8212525,25.977376 C64.7949959,26.3302065 63.7457133,26.6121202 62.6808149,26.8211261 C61.1546204,27.1223699 59.6016736,27.2671194 58.046096,27.2531261 C56.0210959,27.2531261 54.3127833,26.9670948 52.9211583,26.3950323 C51.5295332,25.8229698 50.4011582,25.0464385 49.5360331,24.0654385 C48.6632488,23.0739407 48.0183985,21.9031876 47.6468768,20.6355946 C47.2468998,19.2820727 47.0479009,17.8771406 47.0562518,16.4657819 Z M61.3325024,5.87165648 C59.6641273,5.87165648 58.2016272,6.46846901 56.9450022,7.66209405 C55.6883771,8.8557191 54.8629084,10.4335317 54.4685958,12.3955317 C56.4935959,12.3302817 58.1285022,12.158438 59.3733148,11.8800005 C60.6181273,11.601563 61.5825336,11.2665942 62.2665336,10.8750942 C62.9533462,10.4813442 63.4112212,10.0560941 63.6401587,9.59934413 C63.8608384,9.17506547 63.9784835,8.70477415 63.983565,8.22656283 C63.9818775,6.65718776 63.0981899,5.87221898 61.3325024,5.87165648 Z" id="Shape"></path>
                    <path d="M96.0276599,10.8253129 C96.0276599,13.2131255 95.6339099,15.3959069 94.8464099,17.3736569 C94.0589099,19.351407 92.9715973,21.0597196 91.5844723,22.4985946 C90.1693124,23.9549296 88.4653359,25.0993443 86.5818783,25.8584073 C84.6361907,26.6588448 82.5189407,27.0593448 80.2301281,27.0599073 C79.111916,27.0593813 77.995889,26.9611325 76.8947842,26.7662823 L74.7862529,35.2687514 C74.7308184,35.4910474 74.5310439,35.6467516 74.3019403,35.6467516 L68.0657838,35.6467516 C67.912994,35.6467516 67.7685969,35.5768748 67.6739749,35.4569106 C67.5793529,35.3369463 67.5449507,35.1802238 67.5806276,35.0316576 L75.5118779,1.98787508 C75.5525048,1.81383805 75.6837409,1.67518572 75.8552841,1.62506256 C77.0967217,1.26562505 78.5007218,0.941343787 80.0672843,0.652218776 C81.8721068,0.330893876 83.7024575,0.174716751 85.5356283,0.185625007 C87.3665659,0.185625007 88.9443784,0.463781268 90.269066,1.02009379 C91.5937535,1.57640631 92.6807848,2.33578134 93.5301598,3.29821888 C94.3903568,4.28081057 95.0337805,5.43368324 95.4184724,6.68165652 C95.8334168,8.02332875 96.0388959,9.42098499 96.0276599,10.8253129 Z M78.2245342,20.8802821 C78.7797218,21.0119071 79.466253,21.0774383 80.2841281,21.0768794 C81.5598781,21.0768794 82.7208782,20.8397821 83.7671282,20.3655946 C84.7927023,19.9070529 85.7051609,19.2290454 86.4401283,18.379407 C87.1758783,17.5289069 87.7479409,16.5068444 88.1563159,15.3132194 C88.5646909,14.1195943 88.7691597,12.8036255 88.7697222,11.365313 C88.7697222,9.9590629 88.4603471,8.76543785 87.8415971,7.78443781 C87.2228471,6.80343777 86.1422846,6.313219 84.5999095,6.3137815 C83.6113133,6.30788801 82.6248538,6.4063077 81.6569094,6.60740651 L78.2245342,20.8802821 Z" id="Shape"></path>
                    <path d="M104.433254,21.3705008 C106.100504,21.3705008 107.24491,21.1336883 107.866473,20.6600633 C108.488035,20.1864383 108.79741,19.6714695 108.794598,19.115157 C108.80293,18.796088 108.745488,18.4787198 108.625848,18.1828132 C108.494068,17.8990485 108.301336,17.647834 108.061379,17.4470632 C107.728703,17.1712876 107.366827,16.9327722 106.982223,16.7357819 C106.524348,16.4910944 105.935973,16.2050631 105.217098,15.8776881 C104.429399,15.533428 103.66,15.1487284 102.911973,14.7251256 C102.212111,14.3323862 101.575509,13.8363032 101.02366,13.2536255 C100.483827,12.681816 100.051648,12.0172543 99.7479101,11.2919067 C99.436285,10.5561567 99.281035,9.68146913 99.28216,8.66784409 C99.28216,6.01959399 100.255004,3.92681266 102.200691,2.38950009 C104.146379,0.852187534 106.983067,0.0838125033 110.710754,0.0843746947 C112.477004,0.0843746947 114.046661,0.281250011 115.419723,0.675000027 C116.412917,0.945865994 117.382027,1.2983468 118.317161,1.72884382 C118.563136,1.84669025 118.66848,2.14052653 118.553411,2.38781259 L116.465973,6.93056278 C116.411088,7.05106444 116.310311,7.14462619 116.186071,7.19042385 C116.061831,7.23622151 115.924438,7.23045455 115.804473,7.17440654 C115.090274,6.85532091 114.355392,6.58470829 113.604817,6.3644065 C112.57224,6.04461241 111.498078,5.8791381 110.417129,5.87334398 C109.966105,5.87319094 109.515417,5.89797879 109.067129,5.94759399 C108.644851,5.99164418 108.231585,6.09887158 107.84116,6.26568775 C107.487136,6.41446527 107.176338,6.65010293 106.937504,6.95081278 C106.708567,7.24556279 106.594098,7.6393128 106.594098,8.13206282 C106.594098,8.78681285 106.847223,9.27731287 107.353473,9.60356288 C108.043678,10.0342385 108.755931,10.4285269 109.487317,10.7848129 C110.761942,11.406938 111.824504,11.9792817 112.675004,12.5018442 C113.525504,13.0244068 114.204161,13.5801568 114.710973,14.1690943 C115.215489,14.7550232 115.591463,15.4402837 115.814598,16.1805944 C116.039598,16.9332194 116.154067,17.8160632 116.158004,18.8291257 C116.153844,19.8938466 115.928287,20.946065 115.495661,21.9189384 C115.054098,22.9314384 114.359129,23.8314384 113.410754,24.6189385 C112.462379,25.4064385 111.253004,26.0440323 109.782629,26.5317198 C108.308879,27.0126573 106.542067,27.2531261 104.482191,27.2531261 C103.324421,27.2618339 102.167751,27.1797385 101.022816,27.0075948 C100.101767,26.8686464 99.1918474,26.6639356 98.300035,26.3950323 C97.6204473,26.1903671 96.9566357,25.9365733 96.3138474,25.6356573 C95.9915349,25.4792823 95.7128161,25.3403448 95.4776911,25.2188448 C95.2433491,25.0974211 95.1447982,24.8139946 95.2532536,24.573376 L97.3440662,19.8998445 C97.3994784,19.7747513 97.5040894,19.6780937 97.6331652,19.6327255 C97.762241,19.5873573 97.9043225,19.5973061 98.0258162,19.6602195 C98.5607538,19.9380945 99.2734413,20.2623758 100.163879,20.6330633 C101.342316,21.1246883 102.765441,21.3705008 104.433254,21.3705008 Z" id="Path"></path>
                    <path d="M137.662818,6.63018776 C137.574407,6.86962927 137.319699,7.00389692 137.072193,6.94153153 C136.565943,6.81778152 136.065318,6.69825027 135.570318,6.58293776 C134.932443,6.43612526 133.992505,6.362719 132.750505,6.362719 C132.241981,6.36712322 131.734427,6.40800945 131.231755,6.48506276 L131.215724,6.48506276 C130.405116,6.60522005 129.749244,7.20663091 129.559442,8.00381282 L125.192192,26.1874698 C125.138334,26.4117476 124.93769,26.5696888 124.707036,26.5696888 L118.426161,26.5696888 C118.273183,26.5696888 118.128601,26.4997619 118.033943,26.3795869 C117.939284,26.2594119 117.905025,26.1024376 117.941004,25.953751 L122.612005,6.56690651 C123.29497,3.73168365 125.516958,1.52307655 128.356255,0.857250034 L128.408567,0.844593784 C130.157942,0.436218767 132.126693,0.231750009 134.314818,0.231187509 C135.229662,0.238496467 136.142762,0.312379135 137.04688,0.452250018 C137.781951,0.554547979 138.504787,0.73094604 139.204349,0.978750039 C139.329314,1.0240109 139.431088,1.11720908 139.487146,1.23771762 C139.543204,1.35822616 139.548922,1.49610699 139.503037,1.62084381 L137.662818,6.63018776 Z" id="Path"></path>
                </g>
            </g>
        </g>
    </g>
</svg>