<?xml version="1.0" encoding="utf-8"?>
<!-- Generator: Adobe Illustrator 24.0.2, SVG Export Plug-In . SVG Version: 6.00 Build 0)  -->
<svg version="1.1" id="Layer_1" xmlns="http://www.w3.org/2000/svg" xmlns:xlink="http://www.w3.org/1999/xlink" x="0px" y="0px"
	 width="160px" height="55px" viewBox="0 0 160 55" style="enable-background:new 0 0 160 55;" xml:space="preserve">
<style type="text/css">
	.st0{fill:#363636;}
	.st1{fill:#858585;}
	.st2{fill:#FFA800;}
	.st3{fill:#FF0000;}
</style>
<g>
	<g>
		<path class="st0" d="M1.4,14.3h4.4V23h7.7v-8.7H18v23h-4.4V27.2H5.9v10.1H1.4V14.3z"/>
		<path class="st0" d="M28.9,14.3h4.4l8.8,23h-4.5l-1.8-4.7h-9.4l-1.9,4.7h-4.5L28.9,14.3z M31.2,20.4l-3.1,7.9h6.1L31.2,20.4z"/>
		<path class="st0" d="M44.3,37.3v-23h3.6c2.1,0,3.6,0.1,4.6,0.4c1.4,0.4,2.5,1,3.3,2c0.8,1,1.2,2.2,1.2,3.5c0,0.9-0.2,1.7-0.6,2.4
			c-0.4,0.7-1,1.4-1.8,2c1.4,0.7,2.4,1.5,3.1,2.5c0.6,1,1,2.1,1,3.5c0,1.3-0.3,2.5-1,3.5c-0.7,1.1-1.5,1.9-2.6,2.4
			c-1.1,0.5-2.5,0.8-4.4,0.8H44.3z M48.7,18.5v4.8h1c1.1,0,1.9-0.2,2.4-0.7c0.5-0.4,0.8-1.1,0.8-1.8c0-0.7-0.2-1.3-0.7-1.7
			c-0.5-0.4-1.2-0.6-2.2-0.6H48.7z M48.7,27.2v5.9h1.1c1.8,0,3-0.2,3.7-0.7c0.6-0.5,0.9-1.1,0.9-2c0-1-0.4-1.8-1.1-2.3
			c-0.7-0.6-2-0.9-3.7-0.9H48.7z"/>
	</g>
	<g>
		<path class="st0" d="M76.6,14.3H81v18.8h6.4v4.2H76.6V14.3z"/>
		<path class="st0" d="M89.4,14.3H102v4.3h-8.2v4.2h8.2V27h-8.2v6h8.2v4.3H89.4V14.3z"/>
	</g>
	<g>
		<path class="st1" d="M107,39.7V22.5h3.6c2.6,0,4.4,0.2,5.6,0.6c1.7,0.6,3,1.6,3.9,3c0.9,1.4,1.4,3.2,1.4,5.2
			c0,1.7-0.4,3.2-1.1,4.6c-0.7,1.3-1.7,2.3-2.9,2.9c-1.2,0.6-2.9,0.9-5,0.9H107z M108.7,38.1h2c2.4,0,4-0.1,5-0.4
			c1.3-0.4,2.3-1.2,3.1-2.3c0.7-1.1,1.1-2.4,1.1-4c0-1.7-0.4-3.1-1.2-4.3c-0.8-1.2-1.9-2-3.4-2.4c-1.1-0.3-2.9-0.5-5.3-0.5h-1.2
			V38.1z"/>
		<path class="st1" d="M136.3,27v12.7h-1.6v-2.2c-0.7,0.8-1.5,1.5-2.3,1.9c-0.9,0.4-1.8,0.6-2.8,0.6c-1.8,0-3.3-0.7-4.6-2
			c-1.3-1.3-1.9-2.9-1.9-4.8c0-1.8,0.6-3.4,1.9-4.7c1.3-1.3,2.8-2,4.6-2c1,0,2,0.2,2.8,0.7c0.8,0.4,1.6,1.1,2.2,2V27H136.3z
			 M129.8,28.3c-0.9,0-1.8,0.2-2.5,0.7c-0.8,0.4-1.4,1.1-1.8,1.9c-0.5,0.8-0.7,1.7-0.7,2.6c0,0.9,0.2,1.8,0.7,2.6
			c0.5,0.8,1.1,1.5,1.9,1.9c0.8,0.5,1.6,0.7,2.5,0.7c0.9,0,1.7-0.2,2.5-0.7c0.8-0.5,1.4-1.1,1.9-1.8c0.4-0.8,0.6-1.6,0.6-2.6
			c0-1.5-0.5-2.7-1.5-3.7C132.4,28.8,131.2,28.3,129.8,28.3z"/>
		<path class="st1" d="M140.5,22.3h1.6V27h2.6v1.4h-2.6v11.3h-1.6V28.4h-2.2V27h2.2V22.3z"/>
		<path class="st1" d="M158.9,27v12.7h-1.6v-2.2c-0.7,0.8-1.5,1.5-2.3,1.9c-0.9,0.4-1.8,0.6-2.8,0.6c-1.8,0-3.3-0.7-4.6-2
			c-1.3-1.3-1.9-2.9-1.9-4.8c0-1.8,0.6-3.4,1.9-4.7c1.3-1.3,2.8-2,4.6-2c1,0,2,0.2,2.8,0.7c0.8,0.4,1.6,1.1,2.2,2V27H158.9z
			 M152.3,28.3c-0.9,0-1.8,0.2-2.5,0.7c-0.8,0.4-1.4,1.1-1.8,1.9c-0.5,0.8-0.7,1.7-0.7,2.6c0,0.9,0.2,1.8,0.7,2.6
			c0.5,0.8,1.1,1.5,1.9,1.9c0.8,0.5,1.6,0.7,2.5,0.7c0.9,0,1.7-0.2,2.5-0.7c0.8-0.5,1.4-1.1,1.9-1.8c0.4-0.8,0.6-1.6,0.6-2.6
			c0-1.5-0.5-2.7-1.5-3.7C155,28.8,153.8,28.3,152.3,28.3z"/>
	</g>
	<g>
		<g>
			<path class="st2" d="M74.9,40.9C74.7,41,74.6,41,74.5,41l-0.3-0.1c-0.2,0-0.3-0.1-0.5-0.1c-0.3-0.1-0.7-0.2-1-0.3
				c-0.7-0.2-1.3-0.5-2-0.8c-1.3-0.6-2.6-1.2-3.9-2c-1.2-0.8-2.4-1.7-3.5-2.9c-1-1.1-1.9-2.4-2.5-3.9c-0.6-1.4-1-3-1.2-4.5
				c-0.1-0.8-0.1-1.5,0-2.3c0-0.4,0.1-0.8,0.1-1.1c0.1-0.4,0.1-0.7,0.2-1.1c0.1-0.4,0.2-0.7,0.3-1.1c0.1-0.4,0.2-0.7,0.4-1.1
				c0.3-0.7,0.5-1.4,0.8-2c0.6-1.3,1.3-2.5,2.1-3.7l0.6,0.3c-0.9,2.6-1.3,5.3-1.3,7.9c0.1,2.6,0.6,5,1.5,7.2c1,2.2,2.4,4.3,4.1,6.2
				c0.9,1,1.9,1.9,2.9,2.7c0.5,0.4,1.1,0.8,1.7,1.2c0.3,0.2,0.6,0.4,0.9,0.5c0.1,0.1,0.3,0.2,0.4,0.2l0.2,0.1c0.1,0,0.1,0.1,0.2,0.2
				L74.9,40.9z"/>
		</g>
		<g>
			<g>
				<polygon class="st2" points="67.5,17.9 67.5,8.2 59.1,13 				"/>
			</g>
		</g>
	</g>
	<g>
		<path class="st3" d="M73.4,4c0,1.6-1.3,3-3,3c-1.6,0-3-1.3-3-3c0-1.6,1.3-3,3-3C72,1,73.4,2.3,73.4,4z"/>
	</g>
	<g>
		<rect x="1.1" y="39.3" class="st1" width="61.3" height="0.8"/>
	</g>
	<g>
		<rect x="76.6" y="39.3" class="st1" width="25.7" height="0.8"/>
	</g>
</g>
<g>
	<path class="st1" d="M6.5,48.4H3.4l-0.7,1.9h-1l2.9-7.6h0.8l2.9,7.6h-1L6.5,48.4z M3.7,47.6h2.5l-1.3-3.3L3.7,47.6z"/>
	<path class="st1" d="M17.3,42.7v7.6h-1v-3.4h-3.7v3.4h-1v-7.6h1V46h3.7v-3.3H17.3z"/>
	<path class="st1" d="M19,43.4c0-0.2,0.1-0.3,0.2-0.4s0.2-0.2,0.4-0.2c0.2,0,0.3,0.1,0.4,0.2s0.2,0.2,0.2,0.4c0,0.2-0.1,0.3-0.2,0.4
		s-0.2,0.2-0.4,0.2c-0.2,0-0.3-0.1-0.4-0.2S19,43.5,19,43.4z M20,50.3h-0.9v-5.4H20V50.3z"/>
	<path class="st1" d="M22.1,43.5h0.8v1.4h1.2v0.8h-1.2v2.8c0,0.3,0.1,0.5,0.2,0.7s0.4,0.3,0.7,0.3c0.1,0,0.2,0,0.2,0
		c0,0,0.1,0,0.1,0v0.8c0,0-0.1,0-0.1,0.1c-0.1,0-0.2,0.1-0.4,0.1c-0.2,0-0.4,0-0.6-0.1s-0.4-0.2-0.5-0.4s-0.3-0.3-0.3-0.6
		S22,48.8,22,48.6v-2.8h-1v-0.8h0.4c0.4,0,0.7-0.2,0.7-0.7V43.5z"/>
	<path class="st1" d="M29.6,48.9c-0.1,0.2-0.2,0.4-0.3,0.6s-0.3,0.3-0.5,0.5s-0.4,0.2-0.6,0.3s-0.5,0.1-0.8,0.1
		c-0.3,0-0.7-0.1-1-0.2s-0.6-0.3-0.8-0.6s-0.4-0.5-0.5-0.9s-0.2-0.7-0.2-1.1c0-0.4,0.1-0.8,0.2-1.1s0.3-0.6,0.5-0.9s0.5-0.4,0.8-0.6
		s0.6-0.2,0.9-0.2s0.6,0.1,0.9,0.2s0.5,0.3,0.8,0.5s0.4,0.5,0.5,0.9s0.2,0.7,0.2,1.1c0,0.1,0,0.1,0,0.2s0,0.1,0,0.1c0,0,0,0.1,0,0.1
		h-3.8c0,0.2,0.1,0.4,0.2,0.6s0.2,0.3,0.3,0.5s0.3,0.2,0.5,0.3s0.4,0.1,0.6,0.1c0.2,0,0.3,0,0.4-0.1s0.3-0.1,0.4-0.2
		s0.2-0.1,0.3-0.2s0.1-0.1,0.2-0.2H29.6z M27.4,45.7c-0.2,0-0.4,0-0.5,0.1s-0.3,0.2-0.5,0.3s-0.2,0.3-0.3,0.5s-0.2,0.4-0.2,0.6h2.9
		c-0.1-0.5-0.2-0.9-0.5-1.1S27.7,45.7,27.4,45.7z"/>
	<path class="st1" d="M33.1,45.7c-0.2,0-0.4,0-0.6,0.1S32.1,46,32,46.2s-0.3,0.4-0.4,0.6s-0.1,0.5-0.1,0.8s0,0.6,0.1,0.8
		s0.2,0.4,0.4,0.6s0.3,0.3,0.5,0.4s0.4,0.1,0.6,0.1c0.2,0,0.3,0,0.5-0.1s0.3-0.1,0.4-0.3s0.2-0.2,0.3-0.4s0.2-0.3,0.2-0.4h0.9
		c-0.1,0.3-0.2,0.5-0.3,0.8s-0.3,0.4-0.5,0.6s-0.4,0.3-0.7,0.4s-0.5,0.2-0.8,0.2c-0.3,0-0.7-0.1-1-0.2s-0.6-0.3-0.8-0.6
		s-0.4-0.5-0.5-0.9s-0.2-0.7-0.2-1.1c0-0.4,0.1-0.8,0.2-1.1s0.3-0.6,0.5-0.9s0.5-0.4,0.8-0.6s0.6-0.2,1-0.2c0.3,0,0.6,0.1,0.8,0.2
		s0.5,0.2,0.7,0.4s0.4,0.4,0.5,0.6s0.2,0.5,0.3,0.8h-0.9c0-0.2-0.1-0.3-0.2-0.4S34.2,46.1,34,46s-0.3-0.2-0.4-0.3
		S33.3,45.7,33.1,45.7z"/>
	<path class="st1" d="M39.1,44.8c0.3,0,0.6,0.1,0.8,0.2s0.5,0.3,0.7,0.5s0.3,0.4,0.5,0.7s0.2,0.6,0.2,1v3.1h-0.9v-3.1
		c0-0.2,0-0.4-0.1-0.6s-0.2-0.3-0.3-0.5s-0.3-0.2-0.4-0.3s-0.3-0.1-0.5-0.1c-0.4,0-0.8,0.1-1,0.4s-0.4,0.6-0.4,1.1v3.1h-0.9v-7.6
		h0.9v2.8c0.1-0.1,0.2-0.3,0.4-0.4c0.1-0.1,0.3-0.2,0.5-0.2S38.8,44.8,39.1,44.8z"/>
	<path class="st1" d="M45.2,43.4c0-0.2,0.1-0.3,0.2-0.4s0.2-0.2,0.4-0.2c0.2,0,0.3,0.1,0.4,0.2s0.2,0.2,0.2,0.4
		c0,0.2-0.1,0.3-0.2,0.4s-0.2,0.2-0.4,0.2c-0.2,0-0.3-0.1-0.4-0.2S45.2,43.5,45.2,43.4z M46.2,50.3h-0.9v-5.4h0.9V50.3z"/>
	<path class="st1" d="M47.5,44.7c0-0.3,0.1-0.5,0.2-0.8s0.3-0.5,0.5-0.7s0.5-0.3,0.8-0.5s0.6-0.2,1-0.2c0.3,0,0.6,0.1,0.9,0.2
		s0.5,0.3,0.7,0.5s0.4,0.4,0.5,0.7s0.2,0.6,0.2,0.9h-1c0-0.4-0.1-0.8-0.4-1s-0.6-0.4-1-0.4c-0.2,0-0.4,0-0.6,0.1s-0.3,0.2-0.5,0.3
		s-0.2,0.2-0.3,0.4s-0.1,0.3-0.1,0.4c0,0.3,0.1,0.6,0.3,0.7s0.4,0.3,0.7,0.4s0.6,0.2,1,0.3s0.7,0.2,1,0.4s0.5,0.4,0.7,0.6
		s0.3,0.6,0.3,1.1c0,0.3-0.1,0.5-0.2,0.8s-0.3,0.5-0.5,0.6s-0.5,0.3-0.8,0.4s-0.7,0.2-1.1,0.2s-0.7-0.1-1.1-0.2s-0.6-0.3-0.8-0.5
		s-0.4-0.4-0.5-0.7s-0.2-0.6-0.2-0.9h1c0,0.5,0.1,0.8,0.4,1.1s0.7,0.4,1.2,0.4s0.9-0.1,1.2-0.3s0.4-0.5,0.4-0.9
		c0-0.3-0.1-0.6-0.3-0.7s-0.4-0.3-0.7-0.4s-0.6-0.2-1-0.3s-0.7-0.2-1-0.4s-0.5-0.4-0.7-0.6S47.5,45.2,47.5,44.7z"/>
	<path class="st1" d="M58.4,47.6c0,0.4-0.1,0.8-0.2,1.1s-0.3,0.6-0.5,0.9s-0.5,0.4-0.8,0.6s-0.6,0.2-1,0.2s-0.7-0.1-1-0.2
		s-0.6-0.3-0.8-0.6s-0.4-0.5-0.5-0.9s-0.2-0.7-0.2-1.1c0-0.4,0.1-0.8,0.2-1.1s0.3-0.6,0.5-0.9s0.5-0.4,0.8-0.6s0.6-0.2,1-0.2
		s0.7,0.1,1,0.2s0.6,0.3,0.8,0.6s0.4,0.5,0.5,0.9S58.4,47.2,58.4,47.6z M54.2,47.6c0,0.3,0,0.6,0.1,0.8s0.2,0.4,0.4,0.6
		s0.3,0.3,0.5,0.4s0.4,0.1,0.6,0.1s0.4,0,0.6-0.1s0.4-0.2,0.5-0.4s0.3-0.4,0.4-0.6s0.1-0.5,0.1-0.8s0-0.6-0.1-0.8s-0.2-0.4-0.4-0.6
		s-0.3-0.3-0.5-0.4s-0.4-0.1-0.6-0.1s-0.4,0-0.6,0.1s-0.4,0.2-0.5,0.4s-0.3,0.4-0.4,0.6S54.2,47.3,54.2,47.6z"/>
	<path class="st1" d="M60.5,50.3h-0.9v-7.6h0.9V50.3z"/>
	<path class="st1" d="M64.2,50.4c-0.3,0-0.6-0.1-0.8-0.2s-0.5-0.3-0.7-0.5s-0.3-0.5-0.5-0.7s-0.2-0.6-0.2-0.9v-3.1H63V48
		c0,0.2,0,0.4,0.1,0.6s0.2,0.3,0.3,0.5s0.3,0.2,0.4,0.3s0.3,0.1,0.5,0.1c0.4,0,0.8-0.1,1-0.4s0.4-0.6,0.4-1.1v-3.1h0.9v5.4H66
		l-0.2-0.6c-0.1,0.1-0.2,0.2-0.4,0.3c-0.1,0.1-0.3,0.2-0.5,0.2S64.5,50.4,64.2,50.4z"/>
	<path class="st1" d="M68.8,43.5h0.8v1.4h1.2v0.8h-1.2v2.8c0,0.3,0.1,0.5,0.2,0.7s0.4,0.3,0.7,0.3c0.1,0,0.2,0,0.2,0
		c0,0,0.1,0,0.1,0v0.8c0,0-0.1,0-0.1,0.1c-0.1,0-0.2,0.1-0.4,0.1c-0.2,0-0.4,0-0.6-0.1s-0.4-0.2-0.5-0.4s-0.3-0.3-0.3-0.6
		s-0.1-0.5-0.1-0.7v-2.8h-1v-0.8h0.4c0.4,0,0.7-0.2,0.7-0.7V43.5z"/>
	<path class="st1" d="M72,43.4c0-0.2,0.1-0.3,0.2-0.4s0.2-0.2,0.4-0.2c0.2,0,0.3,0.1,0.4,0.2s0.2,0.2,0.2,0.4c0,0.2-0.1,0.3-0.2,0.4
		s-0.2,0.2-0.4,0.2c-0.2,0-0.3-0.1-0.4-0.2S72,43.5,72,43.4z M73,50.3h-0.9v-5.4H73V50.3z"/>
	<path class="st1" d="M79.2,47.6c0,0.4-0.1,0.8-0.2,1.1s-0.3,0.6-0.5,0.9S78,50,77.7,50.2s-0.6,0.2-1,0.2s-0.7-0.1-1-0.2
		s-0.6-0.3-0.8-0.6s-0.4-0.5-0.5-0.9s-0.2-0.7-0.2-1.1c0-0.4,0.1-0.8,0.2-1.1s0.3-0.6,0.5-0.9s0.5-0.4,0.8-0.6s0.6-0.2,1-0.2
		s0.7,0.1,1,0.2s0.6,0.3,0.8,0.6s0.4,0.5,0.5,0.9S79.2,47.2,79.2,47.6z M75.1,47.6c0,0.3,0,0.6,0.1,0.8s0.2,0.4,0.4,0.6
		s0.3,0.3,0.5,0.4s0.4,0.1,0.6,0.1s0.4,0,0.6-0.1s0.4-0.2,0.5-0.4s0.3-0.4,0.4-0.6s0.1-0.5,0.1-0.8s0-0.6-0.1-0.8s-0.2-0.4-0.4-0.6
		s-0.3-0.3-0.5-0.4s-0.4-0.1-0.6-0.1s-0.4,0-0.6,0.1s-0.4,0.2-0.5,0.4s-0.3,0.4-0.4,0.6S75.1,47.3,75.1,47.6z"/>
	<path class="st1" d="M82.9,44.8c0.3,0,0.6,0.1,0.8,0.2s0.5,0.3,0.7,0.5s0.3,0.4,0.5,0.7c0.1,0.3,0.2,0.6,0.2,1v3.1h-0.9v-3.1
		c0-0.2,0-0.4-0.1-0.6s-0.2-0.3-0.3-0.5s-0.3-0.2-0.4-0.3s-0.3-0.1-0.5-0.1c-0.4,0-0.8,0.1-1,0.4s-0.4,0.6-0.4,1.1v3.1h-0.9v-5.4
		h0.7l0.2,0.6c0.1-0.1,0.2-0.2,0.4-0.3c0.1-0.1,0.3-0.2,0.5-0.2S82.6,44.8,82.9,44.8z"/>
	<path class="st1" d="M90,48.7c0,0.2,0,0.4-0.1,0.6s-0.2,0.4-0.4,0.5s-0.4,0.3-0.6,0.3s-0.5,0.1-0.8,0.1c-0.6,0-1.1-0.2-1.4-0.5
		s-0.5-0.7-0.6-1.2h0.9c0,0.2,0.1,0.4,0.3,0.6s0.4,0.2,0.8,0.2c0.3,0,0.5-0.1,0.7-0.2s0.3-0.3,0.3-0.5c0-0.2-0.1-0.3-0.2-0.5
		s-0.3-0.2-0.5-0.2s-0.4-0.1-0.7-0.2s-0.5-0.1-0.7-0.2s-0.4-0.3-0.5-0.4s-0.2-0.5-0.2-0.8c0-0.2,0-0.4,0.1-0.6s0.2-0.4,0.4-0.5
		s0.3-0.3,0.6-0.3s0.5-0.1,0.7-0.1c0.6,0,1,0.2,1.3,0.5s0.5,0.7,0.5,1.2h-0.9c0-0.2-0.1-0.4-0.3-0.6s-0.4-0.2-0.7-0.2
		c-0.3,0-0.5,0.1-0.7,0.2s-0.2,0.3-0.2,0.5c0,0.2,0.1,0.3,0.2,0.5s0.3,0.2,0.5,0.2s0.4,0.1,0.7,0.2s0.5,0.1,0.7,0.2s0.4,0.3,0.5,0.5
		S90,48.4,90,48.7z"/>
	<path class="st1" d="M98.5,49.5v0.8H94v-7.6h1v6.7H98.5z"/>
	<path class="st1" d="M104.2,49.5v0.8h-4.6v-7.6h1v6.7H104.2z"/>
	<path class="st1" d="M107.8,42.7c0.3,0,0.6,0.1,0.9,0.2s0.5,0.3,0.8,0.5s0.4,0.5,0.5,0.8s0.2,0.6,0.2,0.9s-0.1,0.6-0.2,0.9
		s-0.3,0.5-0.5,0.8s-0.5,0.4-0.8,0.5s-0.6,0.2-0.9,0.2h-1.6v2.9h-1v-7.6H107.8z M107.8,46.6c0.2,0,0.4,0,0.6-0.1s0.3-0.2,0.5-0.3
		s0.2-0.3,0.3-0.5s0.1-0.4,0.1-0.6s0-0.4-0.1-0.6s-0.2-0.3-0.3-0.5s-0.3-0.2-0.5-0.3s-0.4-0.1-0.6-0.1h-1.6v3H107.8z"/>
	<path class="st1" d="M117.2,43.5c-0.3,0-0.6,0.1-1,0.2s-0.6,0.4-0.8,0.6s-0.4,0.6-0.6,1s-0.2,0.8-0.2,1.2s0.1,0.8,0.2,1.2
		s0.3,0.7,0.6,1s0.5,0.5,0.8,0.6s0.6,0.2,1,0.2c0.3,0,0.6,0,0.8-0.1s0.5-0.2,0.7-0.4s0.3-0.3,0.5-0.6s0.2-0.4,0.3-0.7h1
		c-0.1,0.4-0.3,0.7-0.4,1s-0.4,0.6-0.7,0.8s-0.6,0.4-0.9,0.6s-0.7,0.2-1.2,0.2c-0.5,0-0.9-0.1-1.3-0.3s-0.8-0.5-1.1-0.8
		s-0.6-0.8-0.8-1.2s-0.3-1-0.3-1.5c0-0.5,0.1-1,0.3-1.5s0.5-0.9,0.8-1.2s0.7-0.6,1.1-0.8s0.9-0.3,1.3-0.3c0.4,0,0.8,0.1,1.1,0.2
		s0.6,0.3,0.9,0.6s0.5,0.5,0.7,0.8s0.3,0.6,0.4,1h-1c-0.1-0.2-0.2-0.5-0.3-0.7s-0.3-0.4-0.5-0.6s-0.4-0.3-0.6-0.4
		S117.5,43.5,117.2,43.5z"/>
	<path class="st1" d="M126.2,47.6c0,0.4-0.1,0.8-0.2,1.1s-0.3,0.6-0.5,0.9s-0.5,0.4-0.8,0.6s-0.6,0.2-1,0.2s-0.7-0.1-1-0.2
		s-0.6-0.3-0.8-0.6s-0.4-0.5-0.5-0.9s-0.2-0.7-0.2-1.1c0-0.4,0.1-0.8,0.2-1.1s0.3-0.6,0.5-0.9s0.5-0.4,0.8-0.6s0.6-0.2,1-0.2
		s0.7,0.1,1,0.2s0.6,0.3,0.8,0.6s0.4,0.5,0.5,0.9S126.2,47.2,126.2,47.6z M122,47.6c0,0.3,0,0.6,0.1,0.8s0.2,0.4,0.4,0.6
		s0.3,0.3,0.5,0.4s0.4,0.1,0.6,0.1s0.4,0,0.6-0.1s0.4-0.2,0.5-0.4s0.3-0.4,0.4-0.6s0.1-0.5,0.1-0.8s0-0.6-0.1-0.8s-0.2-0.4-0.4-0.6
		s-0.3-0.3-0.5-0.4s-0.4-0.1-0.6-0.1s-0.4,0-0.6,0.1s-0.4,0.2-0.5,0.4s-0.3,0.4-0.4,0.6S122,47.3,122,47.6z"/>
	<path class="st1" d="M132.7,44.8c0.2,0,0.5,0.1,0.7,0.2s0.4,0.2,0.6,0.4s0.3,0.4,0.4,0.7s0.1,0.6,0.1,0.9v3.2h-0.9v-3.2
		c0-0.5-0.1-0.8-0.3-1s-0.5-0.3-0.8-0.3s-0.6,0.1-0.8,0.4s-0.3,0.6-0.3,1v3.2h-0.9v-3.2c0-0.5-0.1-0.8-0.3-1s-0.5-0.3-0.8-0.3
		c-0.1,0-0.3,0-0.4,0.1s-0.3,0.2-0.4,0.3s-0.2,0.3-0.3,0.4s-0.1,0.4-0.1,0.6v3.2h-0.9v-5.4h0.7l0.2,0.6c0.1-0.1,0.2-0.2,0.3-0.3
		c0.1-0.1,0.3-0.2,0.4-0.2s0.4-0.1,0.6-0.1c0.3,0,0.5,0.1,0.7,0.2s0.3,0.2,0.5,0.3c0.1,0.1,0.3,0.3,0.3,0.5c0.1-0.2,0.2-0.3,0.4-0.5
		c0.1-0.1,0.3-0.2,0.5-0.3S132.4,44.8,132.7,44.8z"/>
	<path class="st1" d="M136.9,45.5c0.1-0.1,0.2-0.2,0.4-0.3c0.1-0.1,0.3-0.2,0.5-0.2s0.4-0.1,0.7-0.1c0.3,0,0.7,0.1,1,0.2
		s0.6,0.3,0.8,0.6s0.4,0.5,0.5,0.9s0.2,0.7,0.2,1.1s-0.1,0.8-0.2,1.1s-0.3,0.6-0.5,0.9s-0.5,0.4-0.8,0.6s-0.6,0.2-1,0.2
		c-0.3,0-0.5,0-0.7-0.1s-0.4-0.2-0.5-0.2c-0.2-0.1-0.3-0.2-0.4-0.4v2.6H136v-7.3h0.7L136.9,45.5z M136.8,47.6c0,0.3,0,0.6,0.1,0.8
		s0.2,0.4,0.4,0.6s0.3,0.3,0.5,0.4s0.4,0.1,0.6,0.1s0.4,0,0.6-0.1s0.4-0.2,0.5-0.4s0.3-0.4,0.4-0.6s0.1-0.5,0.1-0.8s0-0.6-0.1-0.8
		s-0.2-0.4-0.4-0.6s-0.3-0.3-0.5-0.4s-0.4-0.1-0.6-0.1s-0.4,0-0.6,0.1s-0.4,0.2-0.5,0.4s-0.3,0.4-0.4,0.6S136.8,47.3,136.8,47.6z"/>
	<path class="st1" d="M144.3,44.8c0.3,0,0.6,0.1,0.8,0.2s0.5,0.2,0.6,0.4s0.3,0.4,0.4,0.6s0.1,0.5,0.1,0.7v3.6h-0.7l-0.2-0.6
		c-0.1,0.1-0.3,0.2-0.4,0.3c-0.1,0.1-0.3,0.2-0.5,0.2s-0.4,0.1-0.7,0.1s-0.5,0-0.7-0.1s-0.4-0.2-0.6-0.3s-0.3-0.3-0.4-0.5
		S142,49,142,48.7c0-0.3,0.1-0.5,0.2-0.7s0.3-0.4,0.5-0.6s0.6-0.3,1.1-0.4s1-0.1,1.7-0.1v-0.3c0-0.3-0.1-0.5-0.3-0.7
		s-0.5-0.3-0.8-0.3s-0.6,0.1-0.7,0.2s-0.3,0.3-0.3,0.6h-1c0-0.2,0.1-0.4,0.2-0.6s0.2-0.4,0.4-0.5s0.4-0.3,0.6-0.3
		S144,44.8,144.3,44.8z M143.8,49.5c0.2,0,0.5,0,0.7-0.1s0.4-0.2,0.5-0.3s0.3-0.3,0.3-0.4s0.1-0.3,0.1-0.5v-0.4c-0.5,0-1,0-1.3,0.1
		s-0.6,0.1-0.8,0.2s-0.3,0.2-0.4,0.3s-0.1,0.2-0.1,0.4c0,0.2,0.1,0.3,0.2,0.5S143.5,49.5,143.8,49.5z"/>
	<path class="st1" d="M150.3,44.8c0.3,0,0.6,0.1,0.8,0.2s0.5,0.3,0.7,0.5s0.3,0.4,0.5,0.7s0.2,0.6,0.2,1v3.1h-0.9v-3.1
		c0-0.2,0-0.4-0.1-0.6s-0.2-0.3-0.3-0.5s-0.3-0.2-0.4-0.3s-0.3-0.1-0.5-0.1c-0.4,0-0.8,0.1-1,0.4s-0.4,0.6-0.4,1.1v3.1h-0.9v-5.4
		h0.7l0.2,0.6c0.1-0.1,0.2-0.2,0.4-0.3c0.1-0.1,0.3-0.2,0.5-0.2S150,44.8,150.3,44.8z"/>
	<path class="st1" d="M153.2,44.9h1l1.6,4.1l1.6-4.1h1l-2.3,5.9c-0.2,0.5-0.4,0.9-0.7,1.2s-0.5,0.3-0.9,0.3c0,0-0.1,0-0.1,0
		s-0.1,0-0.1,0s-0.1,0-0.1,0v-0.7c0.3,0,0.5-0.1,0.6-0.2s0.3-0.3,0.3-0.5l0.2-0.6L153.2,44.9z"/>
</g>
</svg>
