<?xml version="1.0" encoding="utf-8"?>
<!-- Generator: Adobe Illustrator 16.0.0, SVG Export Plug-In . SVG Version: 6.00 Build 0)  -->
<!DOCTYPE svg PUBLIC "-//W3C//DTD SVG 1.1//EN" "http://www.w3.org/Graphics/SVG/1.1/DTD/svg11.dtd">
<svg version="1.1" id="Layer_1" xmlns="http://www.w3.org/2000/svg" xmlns:xlink="http://www.w3.org/1999/xlink" x="0px" y="0px"
	 width="224.416px" height="76.2px" viewBox="0 0 224.416 76.2" enable-background="new 0 0 224.416 76.2" xml:space="preserve">
<g id="Background_xA0_Image_1_">
</g>
<g id="Group_2_1_">
	<g id="Ellipse_1_copy">
		<g>
			<circle fill="#4286F4" cx="40.475" cy="38.1" r="36.879"/>
		</g>
	</g>
	<g id="Shape_1_copy">
		<g>
			<path fill="#FFFFFF" d="M47.636,23.633c0,0-2.217,0.785-3.604,1.738c0,0-1.423-1.559-3.557-1.419
				c-2.134-0.14-3.557,1.419-3.557,1.419c-1.388-0.953-3.605-1.738-3.605-1.738C10.923,20.228,18.761,47.34,18.761,47.34h1.146
				c-5.126-27.846,12.147-22.29,12.147-22.29c-16.368,0.184-8.057,24.114-8.057,24.114h1.522c-8.061-24.063,7.237-23.34,7.237-23.34
				l1,0.647c-13.394,1.818-4.218,24.695-4.218,24.695h1.386c-8.36-25.005,4.45-24.006,4.45-24.006l0.908,0.358
				c-10.717,2.069-0.421,25.345-0.421,25.345H37.3C28.273,31.43,35.415,28.59,36.888,28.24l0.304-0.017
				c1.212,0.812,2.329,1.072,3.283,1.063c0.954,0.008,2.071-0.252,3.283-1.063l0.304,0.017c1.473,0.35,8.613,3.19-0.413,24.623
				h1.439c0,0,10.296-23.276-0.421-25.345l0.908-0.358c0,0,12.81-0.999,4.449,24.006h1.386c0,0,9.176-22.876-4.218-24.695l1-0.647
				c0,0,15.297-0.722,7.238,23.34h1.522c0,0,8.311-23.93-8.058-24.114c0,0,17.274-5.557,12.147,22.29h1.146
				C62.188,47.34,70.026,20.228,47.636,23.633z"/>
		</g>
	</g>
	<g id="iWeb">
		<g>
			<path fill="#4286F4" d="M93.89,12.226c0,1.641-0.531,2.931-1.591,3.87c-1.061,0.94-2.312,1.409-3.753,1.409
				c-1.44,0-2.692-0.469-3.752-1.409c-1.061-0.939-1.591-2.229-1.591-3.87c0-1.639,0.53-2.929,1.591-3.869
				c1.06-0.939,2.312-1.41,3.752-1.41c1.441,0,2.692,0.471,3.753,1.41C93.358,9.297,93.89,10.586,93.89,12.226z M93.049,52.9h-8.946
				V21.345h8.946V52.9z"/>
			<path fill="#4286F4" d="M130.017,15.765c0.479,1.641,1.008,3.49,1.588,5.55s1.199,4.19,1.858,6.389
				c0.658,2.2,1.327,4.4,2.009,6.599c0.678,2.2,1.338,4.24,1.978,6.119c0.524-2.041,1.057-4.259,1.6-6.659
				c0.543-2.4,1.056-4.879,1.537-7.439c0.481-2.559,0.955-5.108,1.418-7.648s0.896-4.989,1.297-7.35h9.729
				c-1.409,6.959-3.029,14.019-4.861,21.177c-1.832,7.16-3.814,13.958-5.949,20.397h-8.568c-1.396-3.84-2.756-7.868-4.073-12.088
				c-1.319-4.22-2.618-8.449-3.896-12.689c-1.281,4.24-2.563,8.469-3.848,12.689c-1.281,4.22-2.624,8.248-4.027,12.088h-8.561
				c-2.132-6.438-4.111-13.237-5.939-20.397c-1.83-7.158-3.447-14.218-4.854-21.177h10.147c0.401,2.36,0.844,4.81,1.328,7.35
				c0.482,2.54,0.985,5.09,1.508,7.648c0.522,2.561,1.055,5.04,1.6,7.439c0.543,2.399,1.097,4.619,1.657,6.659
				c0.723-1.958,1.425-4.04,2.105-6.239c0.682-2.199,1.346-4.399,1.985-6.599c0.641-2.199,1.231-4.319,1.772-6.359
				c0.543-2.04,1.034-3.859,1.476-5.459L130.017,15.765L130.017,15.765z"/>
			<path fill="#4286F4" d="M154.894,37.363c0-2.799,0.428-5.25,1.291-7.349c0.859-2.1,1.99-3.849,3.392-5.25
				c1.401-1.399,3.012-2.459,4.834-3.179c1.821-0.72,3.692-1.08,5.612-1.08c4.482,0,8.025,1.371,10.629,4.109
				c2.603,2.74,3.902,6.77,3.902,12.088c0,0.52-0.021,1.09-0.062,1.709c-0.039,0.621-0.079,1.171-0.118,1.649H164.08
				c0.2,1.841,1.062,3.301,2.582,4.38c1.521,1.08,3.562,1.62,6.123,1.62c1.642,0,3.252-0.149,4.835-0.45
				c1.58-0.299,2.871-0.669,3.871-1.109l1.203,7.26c-0.482,0.24-1.121,0.48-1.924,0.72c-0.801,0.24-1.689,0.45-2.672,0.63
				c-0.979,0.182-2.031,0.33-3.15,0.45c-1.121,0.12-2.242,0.181-3.363,0.181c-2.844,0-5.314-0.421-7.415-1.261
				c-2.103-0.84-3.843-1.989-5.224-3.45c-1.383-1.459-2.402-3.188-3.063-5.188S154.894,39.683,154.894,37.363z M175.909,33.943
				c-0.042-0.76-0.174-1.5-0.393-2.22c-0.22-0.72-0.56-1.359-1.021-1.919c-0.459-0.56-1.039-1.02-1.741-1.38
				c-0.699-0.36-1.57-0.54-2.609-0.54c-1.002,0-1.862,0.17-2.584,0.509c-0.72,0.34-1.32,0.791-1.801,1.35
				c-0.479,0.561-0.852,1.21-1.109,1.95c-0.262,0.741-0.45,1.49-0.57,2.25H175.909z"/>
			<path fill="#4286F4" d="M220.819,37.123c0,2.52-0.369,4.799-1.11,6.838s-1.812,3.779-3.212,5.22s-3.122,2.55-5.163,3.329
				c-2.042,0.781-4.362,1.171-6.965,1.171c-1.082,0-2.212-0.05-3.394-0.149c-1.181-0.102-2.342-0.23-3.482-0.391
				s-2.23-0.35-3.271-0.57c-1.041-0.219-1.961-0.449-2.764-0.689V7.787l8.948-1.44v15.718c1-0.439,2.04-0.78,3.12-1.02
				c1.082-0.239,2.242-0.359,3.482-0.359c2.242,0,4.225,0.39,5.944,1.169c1.72,0.78,3.162,1.89,4.323,3.33
				c1.16,1.439,2.041,3.17,2.642,5.189C220.519,32.394,220.819,34.643,220.819,37.123z M211.692,36.883
				c0-5.759-2.121-8.639-6.363-8.639c-0.921,0-1.832,0.12-2.73,0.36c-0.902,0.24-1.633,0.54-2.191,0.9v16.258
				c0.438,0.08,1,0.148,1.681,0.21c0.681,0.06,1.42,0.09,2.222,0.09c2.44,0,4.282-0.84,5.523-2.521
				C211.071,41.861,211.692,39.643,211.692,36.883z"/>
		</g>
	</g>
	<g id="Scraping_Services">
		<g>
			<path d="M98.744,62.881h-1.028c0-0.729-0.122-1.193-0.364-1.391c-0.242-0.197-0.811-0.294-1.707-0.294
				c-1.088,0-1.785,0.095-2.091,0.28c-0.306,0.188-0.459,0.615-0.459,1.281c0,0.738,0.132,1.199,0.398,1.384
				c0.265,0.183,0.982,0.272,2.152,0.272c1.38,0,2.27,0.16,2.667,0.48c0.397,0.318,0.597,1,0.597,2.04
				c0,1.124-0.219,1.854-0.659,2.192c-0.438,0.338-1.403,0.506-2.893,0.506c-1.371,0-2.269-0.156-2.694-0.473
				c-0.425-0.313-0.638-0.992-0.638-2.033v-0.412h1.029v0.22c0,0.832,0.125,1.341,0.376,1.528c0.25,0.187,0.914,0.279,1.989,0.279
				c1.112,0,1.8-0.1,2.064-0.301c0.264-0.201,0.396-0.727,0.396-1.574c0-0.576-0.093-0.963-0.281-1.158
				c-0.188-0.196-0.569-0.295-1.145-0.295l-1.069-0.055l-1.015-0.055c-0.813,0-1.401-0.189-1.762-0.569
				c-0.361-0.379-0.542-0.97-0.542-1.774c0-1.067,0.224-1.777,0.672-2.131c0.448-0.351,1.353-0.526,2.715-0.526
				c1.362,0,2.25,0.163,2.667,0.487C98.536,61.118,98.744,61.813,98.744,62.881z"/>
			<path d="M106.148,66.485h1.028v0.329c0,1.251-0.208,2.034-0.624,2.349c-0.416,0.315-1.46,0.473-3.133,0.473
				c-1.572,0-2.569-0.268-2.989-0.809c-0.421-0.537-0.631-1.826-0.631-3.863v-1.45c0-1.334,0.27-2.202,0.809-2.604
				c0.54-0.402,1.7-0.604,3.483-0.604c1.207,0,2.002,0.168,2.386,0.5c0.384,0.334,0.576,1.049,0.576,2.146v0.245h-1.029v-0.286
				c0-0.742-0.114-1.216-0.342-1.414c-0.228-0.199-0.77-0.3-1.627-0.3c-1.458,0-2.353,0.118-2.681,0.354
				c-0.328,0.238-0.492,0.89-0.492,1.955c0,2.627,0.107,4.156,0.321,4.589c0.215,0.433,0.964,0.649,2.25,0.649
				c1.204,0,1.953-0.095,2.25-0.281c0.296-0.188,0.445-0.664,0.445-1.432V66.485z"/>
			<path d="M108.342,69.54v-9.138h4.347c0.978,0,1.667,0.196,2.07,0.589c0.402,0.395,0.604,1.069,0.604,2.027
				c0,0.857-0.107,1.452-0.321,1.781c-0.216,0.328-0.634,0.543-1.255,0.644c0.968,0.093,1.453,0.687,1.453,1.782v2.314h-1.028
				v-2.082c0-1.061-0.461-1.59-1.386-1.59h-0.342h-3.113v3.672H108.342L108.342,69.54z M109.37,64.979h2.974
				c0.777,0,1.306-0.119,1.579-0.355c0.273-0.238,0.41-0.69,0.41-1.356c0-0.813-0.104-1.347-0.309-1.597
				c-0.207-0.252-0.646-0.377-1.323-0.377h-3.332L109.37,64.979L109.37,64.979z"/>
			<path d="M122.497,67.608h-4.605l-0.707,1.932h-1.096l3.346-9.138h1.453l3.414,9.138h-1.083L122.497,67.608z M122.204,66.788
				l-2.025-5.545l-2,5.545H122.204z"/>
			<path d="M125.233,69.54v-9.138h3.826h0.356c1.015,0,1.714,0.196,2.099,0.589c0.383,0.395,0.575,1.114,0.575,2.166
				c0,1.096-0.19,1.838-0.569,2.225c-0.379,0.39-1.117,0.582-2.215,0.582h-0.396h-2.646v3.576H125.233z M126.263,65.075h2.44
				c1.022,0,1.672-0.104,1.946-0.31c0.273-0.205,0.412-0.692,0.412-1.459c0-0.877-0.096-1.433-0.283-1.664
				c-0.187-0.233-0.637-0.351-1.35-0.351h-0.396h-2.77V65.075L126.263,65.075z"/>
			<path d="M134.339,60.402v9.138h-1.027v-9.138H134.339z"/>
			<path d="M143.896,60.402v9.138l-1.699,0.008l-3.836-6.223l-0.611-1.021l-0.313-0.506l-0.301-0.504l-0.014,0.334v0.336v0.687
				v6.892h-1.028v-9.139h1.687l3.332,5.452l0.873,1.429l0.437,0.713l0.433,0.709l0.016-0.343V68.02v-0.686v-6.933H143.896z"/>
			<path d="M148.899,65.019h3.937c0,0.101,0,0.239,0,0.417s0,0.38,0,0.607c0,1.604-0.202,2.603-0.608,2.998
				c-0.404,0.396-1.418,0.594-3.039,0.594c-1.686,0-2.758-0.221-3.217-0.663c-0.461-0.443-0.689-1.481-0.689-3.117v-1.329
				c0-1.816,0.221-2.975,0.664-3.473c0.443-0.497,1.475-0.747,3.092-0.747c1.619,0,2.654,0.146,3.113,0.435
				c0.455,0.289,0.686,0.952,0.686,1.989v0.345h-1.027v-0.222c0-0.755-0.153-1.22-0.461-1.394c-0.306-0.176-1.131-0.263-2.475-0.263
				c-1.134,0-1.844,0.14-2.132,0.417s-0.433,0.986-0.433,2.127v1.202v1.382c0,1.084,0.166,1.76,0.5,2.024
				c0.332,0.264,1.191,0.396,2.578,0.396c1.111,0,1.793-0.119,2.043-0.359c0.252-0.239,0.377-0.883,0.377-1.932v-0.545h-2.908
				V65.019z"/>
			<path d="M163.817,62.881h-1.027c0-0.729-0.121-1.193-0.361-1.391c-0.244-0.195-0.813-0.294-1.709-0.294
				c-1.088,0-1.785,0.095-2.091,0.28c-0.308,0.188-0.459,0.615-0.459,1.281c0,0.738,0.132,1.199,0.396,1.384
				c0.267,0.183,0.983,0.272,2.153,0.272c1.382,0,2.271,0.16,2.667,0.48c0.398,0.318,0.598,1,0.598,2.04
				c0,1.124-0.221,1.854-0.658,2.192s-1.403,0.506-2.895,0.506c-1.371,0-2.27-0.156-2.693-0.473
				c-0.426-0.313-0.639-0.992-0.639-2.033v-0.412h1.028v0.22c0,0.832,0.126,1.341,0.377,1.528c0.25,0.187,0.914,0.279,1.989,0.279
				c1.111,0,1.8-0.1,2.064-0.301c0.264-0.201,0.396-0.727,0.396-1.574c0-0.576-0.095-0.963-0.281-1.158
				c-0.187-0.196-0.569-0.295-1.146-0.295l-1.069-0.055l-1.015-0.055c-0.813,0-1.4-0.189-1.762-0.569
				c-0.361-0.379-0.541-0.97-0.541-1.774c0-1.067,0.223-1.777,0.67-2.131c0.448-0.351,1.354-0.526,2.717-0.526
				c1.361,0,2.25,0.163,2.666,0.487C163.61,61.118,163.817,61.813,163.817,62.881z"/>
			<path d="M165.903,61.293v3.096h4.635v0.863h-4.635v3.396h4.84v0.891h-5.868v-9.138h5.868v0.892H165.903z"/>
			<path d="M172.06,69.54v-9.138h4.347c0.979,0,1.668,0.196,2.069,0.589c0.402,0.395,0.604,1.069,0.604,2.027
				c0,0.857-0.107,1.452-0.322,1.781c-0.216,0.328-0.634,0.543-1.255,0.644c0.97,0.093,1.453,0.687,1.453,1.782v2.314h-1.028v-2.082
				c0-1.061-0.461-1.59-1.385-1.59H176.2h-3.113v3.672H172.06L172.06,69.54z M173.087,64.979h2.975c0.777,0,1.305-0.119,1.578-0.355
				c0.274-0.238,0.411-0.69,0.411-1.356c0-0.813-0.104-1.347-0.31-1.597c-0.205-0.252-0.646-0.377-1.322-0.377h-3.332V64.979z"/>
			<path d="M186.543,60.404l1.104-0.002l-3.235,9.138h-1.479l-3.269-9.138l1.097,0.001l2.45,6.902l0.222,0.701l0.239,0.711
				c0.073-0.229,0.142-0.44,0.205-0.637c0.063-0.197,0.149-0.451,0.261-0.762L186.543,60.404z"/>
			<path d="M189.474,60.402v9.138h-1.029v-9.138H189.474z"/>
			<path d="M197.219,66.485h1.028v0.329c0,1.251-0.208,2.034-0.624,2.349c-0.416,0.315-1.46,0.473-3.133,0.473
				c-1.572,0-2.568-0.268-2.989-0.809c-0.421-0.537-0.631-1.826-0.631-3.863v-1.45c0-1.334,0.27-2.202,0.811-2.604
				c0.539-0.402,1.698-0.604,3.481-0.604c1.206,0,2.002,0.168,2.386,0.5c0.385,0.334,0.575,1.049,0.575,2.146v0.245h-1.028v-0.286
				c0-0.742-0.113-1.216-0.341-1.414c-0.229-0.199-0.771-0.3-1.628-0.3c-1.459,0-2.352,0.118-2.682,0.354
				c-0.327,0.238-0.49,0.89-0.49,1.955c0,2.627,0.105,4.156,0.32,4.589c0.213,0.433,0.965,0.649,2.25,0.649
				c1.203,0,1.953-0.095,2.248-0.281c0.297-0.188,0.445-0.664,0.445-1.432L197.219,66.485L197.219,66.485z"/>
			<path d="M200.085,61.293v3.096h4.635v0.863h-4.635v3.396h4.84v0.891h-5.867v-9.138h5.867v0.892H200.085z"/>
			<path d="M212.507,62.881h-1.027c0-0.729-0.121-1.193-0.363-1.391c-0.243-0.195-0.813-0.294-1.707-0.294
				c-1.088,0-1.786,0.095-2.092,0.28c-0.308,0.188-0.459,0.615-0.459,1.281c0,0.738,0.133,1.199,0.396,1.384
				c0.266,0.183,0.982,0.272,2.153,0.272c1.38,0,2.269,0.16,2.666,0.48c0.397,0.318,0.597,1,0.597,2.04
				c0,1.124-0.219,1.854-0.656,2.192c-0.439,0.338-1.404,0.506-2.895,0.506c-1.372,0-2.27-0.156-2.694-0.473
				c-0.426-0.313-0.638-0.992-0.638-2.033v-0.412h1.027v0.22c0,0.832,0.125,1.341,0.377,1.528c0.25,0.187,0.914,0.279,1.99,0.279
				c1.11,0,1.799-0.1,2.063-0.301c0.264-0.201,0.396-0.727,0.396-1.574c0-0.576-0.094-0.963-0.279-1.158
				c-0.188-0.196-0.569-0.295-1.146-0.295l-1.068-0.055l-1.015-0.055c-0.813,0-1.399-0.189-1.762-0.569
				c-0.362-0.379-0.542-0.97-0.542-1.774c0-1.067,0.225-1.777,0.671-2.131c0.448-0.351,1.354-0.526,2.716-0.526
				c1.362,0,2.251,0.163,2.667,0.487S212.507,61.813,212.507,62.881z"/>
		</g>
	</g>
</g>
</svg>
