<?xml version="1.0" encoding="UTF-8"?> <svg xmlns="http://www.w3.org/2000/svg" width="265.333" height="156" viewBox="0 0 199 117"><style><![CDATA[.B{fill:rgb(17.647059%,30.980392%,40.784314%)}.C{fill:rgb(60.784314%,74.901961%,16.470588%)}]]></style><path d="M196.105 106.496c0 1.563-.223 3.012-1.895 3.012s-1.89-1.45-1.89-3.012.223-2.902 1.89-2.902 1.895 1.45 1.895 2.902m2.895 5.578v-10.937h-2.785v1.117c-.777-.895-1.56-1.227-2.78-1.227-1.113 0-2.117.332-2.676 1.004-1.113 1.113-1.113 2.566-1.113 4.465 0 2.008.113 3.457 1.113 4.574.668.672 1.563 1.004 2.676 1.004s2.004-.332 2.672-1.113v1.113c0 1.117-.56 2.344-2.34 2.344-1 0-1.56-.223-2.227-.89l-1.78 1.785c1.223 1.117 2.336 1.45 4.12 1.45 3.117.113 5.12-1.895 5.12-4.687zm-12.027.45v-7.258c0-1.227-.223-2.344-1.113-3.234-.668-.672-1.56-1.004-2.672-1.004-1.004 0-2.117.445-2.785 1.227v-1.004h-2.785v11.383h2.785v-6.918c0-1.562 1.004-2.12 1.895-2.12s1.89.56 1.89 2.12v6.918h2.785zm-12.582 0v-11.387h-2.898v11.387zm0-13.395v-2.344h-2.898v2.344zm-8.352 7.7c0 1.898-.223 3.238-1.895 3.238s-1.895-1.45-1.895-3.238c0-1.895.223-3.234 1.895-3.234s1.895 1.34 1.895 3.234zm2.78 0c0-1.672 0-3.684-1.113-4.797-.668-.672-1.668-1.004-2.78-1.004-1.227 0-2.008.332-2.785 1.227v-1.117h-2.785v15.516h2.785v-5.137c.777.78 1.56 1.117 2.785 1.117a4.42 4.42 0 0 0 2.781-1.004c1.113-1.117 1.113-3.125 1.113-4.8zm-15.367 1.453c0 .668-.11 1.117-.445 1.45-.555.45-1 .56-1.78.56-1.113 0-1.672-.56-1.672-1.34s.56-1.34 1.563-1.34h2.227v.672zm2.785 4.242v-7.48c0-2.68-1.672-4.016-4.79-4.016-1.895 0-3.008.332-4.12 1.563l1.78 1.785c.56-.672 1.113-.895 2.23-.895 1.56 0 2.113.56 2.113 1.785v.56h-2.672c-2.672 0-3.898 1.453-3.898 3.348 0 1.008.336 1.898.89 2.57.668.668 1.56 1.004 2.895 1.004s2.008-.336 2.785-1.117v1.004h2.785zm-10.023-10.492c-.777-.78-1.56-1.117-2.672-1.117-1.227 0-2.34.56-2.895 1.227v-1.113h-2.785V112.4h2.785v-6.922c0-1.45 1-2.117 1.78-2.117.668 0 1.113.223 1.56.668zm-10.47 9.04l-1.89-1.898c-.56.672-1.113.895-1.78.895s-1.227-.223-1.56-.78c-.45-.56-.672-1.34-.672-2.566s.223-2.012.672-2.566.89-.78 1.56-.78c.777 0 1.223.223 1.78.89l1.89-1.898c-1-1.004-2.227-1.562-3.785-1.562-2.227 0-5.12 1.23-5.12 5.805s2.78 5.805 5.12 5.805c1.56.223 2.785-.223 3.785-1.34zm-10.9-3.125c0-1.34-.336-2.566-1.227-3.348-.668-.56-1.56-1.004-3.008-1.227l-1.78-.227c-.668-.11-1.113-.332-1.445-.555-.336-.336-.445-.672-.445-1.117 0-1.117.777-2.008 2.45-2.008 1 0 2.227.11 3.227 1.113l1.895-1.898c-1.336-1.336-2.895-1.785-5.012-1.785-3.34 0-5.457 1.898-5.457 4.688 0 1.34.336 2.344 1.113 3.016.668.668 1.672 1.117 3.008 1.34l1.895.223c.668.113 1.113.223 1.336.56.332.336.445.78.445 1.34 0 1.227-1.004 1.895-2.785 1.895-1.445 0-2.785-.332-3.785-1.336l-2.004 2.008c1.56 1.563 3.34 2.008 5.68 2.008 3.45 0 5.902-1.672 5.902-4.687zm-66.04 4.578v-7.367c0-2.457-1.336-4.13-3.785-4.13a3.55 3.55 0 0 0-2.672 1.227v-5.246h-2.785v15.516h2.785v-6.922c0-1.45.89-2.008 1.78-2.008s1.895.56 1.895 2.008v6.922zm-12.027 0v-2.457h-1c-.668 0-1.004-.336-1.004-1.004v-5.47h2.004v-2.12h-2.004v-3.348h-2.78v3.348h-1.227v2.12h1.227v5.69c0 1.563 1 3.238 3.34 3.238zM40.1 102.03c-.78-.78-1.56-1.117-2.672-1.117-1.227 0-2.34.56-2.895 1.227v-1.113h-2.785V112.4h2.785v-6.922c0-1.45 1-2.117 1.78-2.117.668 0 1.113.223 1.56.668zm-13.81 4.797c0 1.23-.113 2.234-.668 2.793a1.86 1.86 0 0 1-1.336.559c-.56 0-1.004-.227-1.336-.56-.56-.56-.668-1.562-.668-2.793s.11-2.12.668-2.79a1.83 1.83 0 0 1 1.336-.559c.555 0 1 .223 1.336.56.555.56.668 1.563.668 2.79zm2.785 0c0-2.008-.223-3.348-1.336-4.465-.672-.78-1.895-1.45-3.566-1.45s-2.78.668-3.562 1.45c-1.004 1.117-1.336 2.344-1.336 4.465s.223 3.352 1.336 4.465c.668.78 1.78 1.453 3.563 1.453 1.672 0 2.785-.672 3.566-1.453 1.113-1.113 1.336-2.453 1.336-4.465zm-10.023-9.82h-3.117l-2.453 9.82-2.78-9.82H8.465l-2.898 9.71-2.45-9.824H0L4.12 112.4h2.56l2.898-9.488 2.895 9.488h2.563zm0 0" class="B"></path><path d="M104.012 106.828c0 1.898-.223 3.238-1.895 3.238s-1.895-1.45-1.895-3.238c0-1.895.223-3.234 1.895-3.234s1.895 1.34 1.895 3.234m2.78 0c0-1.672 0-3.684-1.113-4.797-.668-.672-1.668-1.004-2.785-1.004s-2.004.332-2.78 1.113v-5.133h-2.785v15.516h2.785v-1.117c.777.89 1.668 1.227 2.78 1.227s2.117-.445 2.785-1.004c1.113-1.117 1.113-3.125 1.113-4.8zm-14.922-1.113h-4.344c0-.56.113-.78.223-1.23.336-.668.89-1.227 1.895-1.227s1.56.56 1.895 1.227c.223.45.332.78.332 1.23zm2.785 2.008v-1.227c0-3.125-1.78-5.47-4.898-5.47-2.898 0-4.902 2.117-4.902 5.8 0 4.578 2.563 5.805 5.234 5.805 2.004 0 3.117-.668 4.344-1.785l-1.672-1.676c-.668.672-1.336 1.117-2.56 1.117-1.562 0-2.453-1.117-2.453-2.566zM84.523 97.008h-3.23l-2.45 9.82-2.785-9.82h-2.227l-2.785 9.82-2.45-9.82H65.48l4.12 15.516h2.56l2.895-9.488 2.898 9.488h2.56zm0 0" class="C"></path><g fillRule="evenodd"><path d="M50.445 8.832h10.578v18.973l24.723 37.168 21.828-32.812h-5.348v-6.586h22.72l-3.898 5.914-32.96 49.223c-1.227 1.898-3.34 2.008-4.566.223L50.445 31.488zm23.72 16.742h9.355l20.715-20.762-4.79-4.687zm0 0" class="B"></path><path d="M148.555 8.832h-10.578v18.973l-24.723 37.168L91.426 32.16h5.348v-6.586h-22.72l3.898 5.914 32.96 49.223c1.227 1.898 3.34 2.008 4.566.223l33.074-49.445zm-23.72 16.742h-9.355L99.445 9.613l4.676-4.688zm0 0" class="C"></path></g></svg> 