<?xml version="1.0" encoding="UTF-8"?>
<!-- Generator: Adobe Illustrator 16.0.0, SVG Export Plug-In . SVG Version: 6.00 Build 0)  -->
<!DOCTYPE svg PUBLIC "-//W3C//DTD SVG 1.1//EN" "http://www.w3.org/Graphics/SVG/1.1/DTD/svg11.dtd">
<svg version="1.1" id="Layer_1" xmlns="http://www.w3.org/2000/svg" xmlns:xlink="http://www.w3.org/1999/xlink" x="0px" y="0px" width="1600px" height="426px" viewBox="0 0 1600 426" enable-background="new 0 0 1600 426" xml:space="preserve">
<g id="layer101">
	<path fill="#1F1C1D" d="M17.7,419.3C17.3,419,17,390,17,354.9V291.1l2.9-3.3c1.6-1.899,5.5-4.399,8.8-5.8   c33.2-13.6,58.7-29.7,88.8-56c14.7-12.9,14.4-12.5,11.4-15.7c-4.6-4.9-24.5-21.7-35.4-29.9c-19.9-14.7-37.2-24.8-59-33.9   c-4.9-2.1-10.2-4.7-11.8-5.8c-5.9-4-5.7-1.9-5.7-70.6c0-45,0.3-63.2,1.1-63.7c0.7-0.4,6.6,4.8,14,12.2L45,31.5v51.3   c0,58.7-0.7,54.3,9.4,59.4c17.3,8.7,46.6,29.8,65.4,47c17.6,16.1,21.3,21.9,17.9,28.399c-1.9,3.7-19.5,21.101-30.7,30.4   c-15.4,12.7-40,29.4-53.7,36.4c-8.9,4.399-8.3,0.3-8.3,58.5V394.3l-12.7,12.9c-7,7-13,12.8-13.3,12.8C18.6,420,18,419.7,17.7,419.3   z"/>
	<path fill="#1F1C1D" d="M274.2,406.7L261,393.5v-51c0-43.7-0.2-51.4-1.5-53.2c-0.8-1.2-5-4-9.2-6.3c-11.4-6.1-34.2-21.5-46.3-31.1   c-5.8-4.601-16-13.7-22.8-20.301c-18.7-18.1-18.6-19.3,1.8-38.899c19.2-18.5,42-35.5,63.5-47.5c5-2.7,10.2-6.1,11.8-7.5l2.7-2.6   V83.6V32l13.4-13.5c7.3-7.4,13.6-13.2,14-12.8c0.3,0.3,0.6,29.6,0.6,64.9v64.3l-2.9,3.3c-1.6,1.9-5.5,4.4-8.8,5.8   c-26.9,11-51,25.1-73.3,43c-9.3,7.4-29,25.1-29,26c0,1,19,17.9,30.5,27c10.4,8.4,30.7,21.9,41.5,27.8c4.1,2.2,13.8,6.8,21.5,10.2   c9.8,4.3,15,7.1,17.3,9.5l3.2,3.5v63.9c0,35.199-0.4,64.199-0.8,64.5C287.7,419.7,281.4,413.9,274.2,406.7z"/>
	<path fill="#1F1C1D" d="M919.4,399.6c-5.301-1.3-13.2-5.399-15.301-8c-1-1.199-0.899-2.1,0.301-4.5c2.3-4.3,3-4.399,7.199-1.6   c8.2,5.6,23.801,7.4,30.2,3.5c2.8-1.7,3.2-2.5,3.2-6.4c0-7.199-1.5-8-23.1-14c-9.801-2.699-15.601-8.1-16.601-15.3   c-2.1-15.5,15.2-26.6,33.7-21.899c6.7,1.699,14,5.8,14,7.699c0,0.7-1,2.7-2.1,4.601c-1.9,3.1-2.301,3.3-3.801,1.899   c-7.8-7.1-26.399-7.5-30.1-0.699c-0.5,1.1-1,3.5-1,5.5c0,4.5,3,6.899,11.7,9.1c15.399,3.9,19.7,5.7,23.899,9.9   c8.801,8.8,5.9,22.699-6,28.8C940.5,400.9,927,401.6,919.4,399.6z"/>
	<path fill="#1F1C1D" d="M1071.6,399.4c-7.199-2.301-17.5-12.801-20.6-20.9c-4.9-12.9-2.2-27.8,6.8-37.4   c8.8-9.3,21.3-12.699,33.7-9.199c5.4,1.6,15.5,10.3,15.5,13.399c0,1-1.4,2.601-3.2,3.7l-3.2,1.9l-4.199-4.4   c-11.601-12-31-6.8-35.9,9.7c-4,13.5,1.3,28.1,11.9,32.899c8.699,3.9,21.8,0.801,25.899-6.1c2.101-3.5,3.101-3.7,7.5-1   c3.2,1.9,3.2,2.1,1.8,4.9c-2,3.899-8.1,9-13.5,11.399C1088.1,400.9,1077.9,401.4,1071.6,399.4z"/>
	<path fill="#1F1C1D" d="M1537.5,400.1c-8.3-2.1-17.4-10.1-22.1-19.6c-2.601-5.4-2.9-7-2.9-15.5c0-8.7,0.3-10,3.2-15.5   c6.6-12.6,16.5-19,29.3-19c9.6,0.1,17.2,3.4,22.6,10.1c3.601,4.4,3.601,4.5,1.801,6.5c-4,4.4-5.301,4.4-9,0.101   c-6.801-8-19.2-9.5-27.7-3.601c-14.601,10.301-13.101,37,2.6,44.9c8.8,4.4,18.5,3,25.5-3.7c2.601-2.6,3.2-4,3.2-7.5v-4.2l-6.7-0.3   l-6.8-0.3V369v-3.5h11h11v17v17h-4c-3.8,0-4-0.2-4.3-3.3l-0.3-3.2l-3.4,2.6C1554.5,400.2,1545.3,402,1537.5,400.1z"/>
	<path fill="#1F1C1D" d="M431.5,398.8c-0.3-0.7-0.4-16.2-0.3-34.3l0.3-33h23h23v4v4l-17.7,0.3L442,340v10v9.9l15.8,0.3l15.7,0.3v4v4   l-15.7,0.3l-15.8,0.3V380v11l18.3,0.2l18.2,0.3v4v4l-23.3,0.3C437.1,400,431.8,399.8,431.5,398.8z"/>
	<path fill="#1F1C1D" d="M491.5,398.8c-0.3-0.7-0.4-16.2-0.3-34.3l0.3-33l4-0.3l4-0.3l20,25.199l20,25.101l0.5-24.8l0.5-24.9h5h5v34   v34H546h-4.4L522,375.1l-19.5-24.3l-0.5,24.3l-0.5,24.4l-4.8,0.3C493.5,400,491.8,399.7,491.5,398.8z"/>
	<path fill="#1F1C1D" d="M584.7,399.4c-0.4-0.4-0.7-13.9-0.7-30V340.1l-11.2-0.3l-11.3-0.3v-4v-4h28h28v4v4l-11.2,0.3l-11.3,0.3   l-0.2,29.7l-0.3,29.7l-4.5,0.3C587.5,400,585.1,399.8,584.7,399.4z"/>
	<path fill="#1F1C1D" d="M628.5,398.8c-0.3-0.7-0.4-16.2-0.3-34.3l0.3-33H652h23.5v4v4l-18.2,0.3L639,340v10v10h14.9   c16.3,0,17.5,0.4,16.899,5.7l-0.3,2.8l-15.7,0.3l-15.8,0.3V380v11l18.3,0.2l18.2,0.3v4v4l-23.3,0.3   C634.1,400,628.8,399.8,628.5,398.8z"/>
	<path fill="#1F1C1D" d="M688.5,398.8c-0.3-0.7-0.4-16.2-0.3-34.3l0.3-33l16-0.3c8.8-0.2,17.4,0,19.1,0.3c4.2,0.7,12.2,7.9,14.5,13   c2.4,5.1,2.4,12.9,0,18.1c-1.6,3.601-9.3,11.4-11.199,11.4c-0.5,0,2.699,5.5,7,12.3c4.399,6.7,7.6,12.601,7.1,13   c-0.4,0.5-2.9,0.7-5.6,0.5l-4.801-0.3l-7.399-11.7l-7.5-11.8h-8.3H699.1l-0.3,11.8l-0.3,11.7l-4.8,0.3   C690.5,400,688.8,399.7,688.5,398.8z M721.3,365.9c4.9-1.301,7.7-5.7,7.7-12.2c0-10.7-4.4-13.7-20-13.7h-10v13.5V367h9.3   C713.3,367,719.2,366.5,721.3,365.9z"/>
	<path fill="#1F1C1D" d="M754.5,398.8c-0.3-0.7-0.4-16.2-0.3-34.3l0.3-33l16.4-0.3C785.8,331,787.6,331.1,791.6,333.1   c4.601,2.2,9.601,7.7,11.4,12.5c1.6,4,1.4,12.5-0.3,16.5c-2,4.9-6.4,9.7-10.8,11.9c-3.2,1.7-5.9,2-15.801,2h-12l-0.3,11.8   l-0.3,11.7l-4.3,0.3C756.4,400,754.8,399.7,754.5,398.8z M790.1,363.2c5.101-5.7,4.801-15.101-0.699-20.3   c-2.301-2.2-3.5-2.4-14-2.7l-11.4-0.4v13.7v13.8l11.6-0.5C787.2,366.4,787.3,366.3,790.1,363.2z"/>
	<path fill="#1F1C1D" d="M816.5,398.8c-0.3-0.7-0.4-16.2-0.3-34.3l0.3-33h18.2h18.1l3.9,3.1C869.5,344.9,870.6,360,859.3,370   c-2.5,2.2-5,4-5.399,4c-0.5,0,2.699,5.5,7,12.3c4.399,6.7,7.6,12.601,7.1,13c-0.4,0.5-2.9,0.7-5.6,0.5l-4.801-0.3l-7.399-11.7   l-7.5-11.8h-8.3H826.1l-0.3,11.8l-0.3,11.7l-4.3,0.3C818.4,400,816.8,399.7,816.5,398.8z M849,365.7c9.3-3.3,9.7-20.4,0.5-24.3   c-2.2-0.9-7.1-1.4-13.5-1.4h-10v13.5V367l9.8-0.1C841.1,366.9,847.1,366.4,849,365.7z"/>
	<path fill="#1F1C1D" d="M881.5,398.8c-0.3-0.7-0.4-16.2-0.3-34.3l0.3-33h4.5h4.5v34v34l-4.3,0.3C883.4,400,881.8,399.7,881.5,398.8   z"/>
	<path fill="#1F1C1D" d="M968.5,398.8c-0.3-0.7-0.4-16.2-0.3-34.3l0.3-33H992h23.5v4v4l-18.2,0.3L979,340v10v10h14.9   c16.3,0,17.5,0.4,16.899,5.7l-0.3,2.8l-15.7,0.3l-15.8,0.3V380v11l18.3,0.2l18.2,0.3v4v4l-23.3,0.3   C974.1,400,968.8,399.8,968.5,398.8z"/>
	<path fill="#1F1C1D" d="M1120.5,398.8c-0.3-0.7-0.4-16.2-0.3-34.3l0.3-33l17.3-0.3c14.3-0.2,17.7,0,20.5,1.399   c8.3,4.2,13,11.7,13,20.9c0,8.7-3.6,15-11.6,20c-1.4,0.9-0.601,2.6,5.899,12.8c4.101,6.4,7.2,12.2,6.9,12.7c-0.3,0.6-2.6,1-5,1   c-5,0-5.4-0.4-14.6-15.2l-5.4-8.8h-8.2h-8.2l-0.3,11.8l-0.3,11.7l-4.8,0.3C1122.5,400,1120.8,399.7,1120.5,398.8z M1153.3,365.9   c7-1.9,10.101-13.101,5.4-20c-3.4-5-5.9-5.9-17.4-5.9H1131v13.5V367h9.3C1145.3,367,1151.2,366.5,1153.3,365.9z"/>
	<path fill="#1F1C1D" d="M1179.5,399c-0.4-0.6,2.6-9,6.6-18.8c4-9.7,9.9-24.2,13.101-32.2c3.3-8,6.399-15.1,7-15.8   c0.7-0.8,2.7-1.2,5.1-1l3.9,0.3l6.3,15.5c3.5,8.5,9.7,23.7,13.8,33.8c5.5,13.4,7.2,18.5,6.2,18.8c-0.7,0.301-3.2,0.4-5.5,0.2   l-4.3-0.3l-3.601-9.3l-3.6-9.2l-14,0.2l-14,0.3l-3.7,9l-3.6,9l-4.5,0.3C1182.2,400,1179.9,399.6,1179.5,399z M1221,371.2   c0-0.4-2.4-6.7-5.3-13.9l-5.2-13.1l-5.3,13.1c-2.9,7.3-5.2,13.5-5.2,14c0,0.4,4.7,0.7,10.5,0.7S1221,371.6,1221,371.2z"/>
	<path fill="#1F1C1D" d="M1273.4,398.9c-0.4-0.601-6.9-16-14.4-34.101c-9.8-23.399-13.4-33.1-12.5-33.399c0.7-0.301,3.2-0.4,5.5-0.2   l4.3,0.3l10.3,26c5.7,14.3,10.7,26.8,11.2,27.8c0.5,1.4,2-1.3,6-11.1l5.2-12.9l-5.6-13.8c-3-7.6-5.301-14.4-5-15.1   c0.3-0.801,2-1.4,4-1.4c4.3,0,5.1,1.2,9.6,13.3l3.3,8.8l4.2-10.8l4.2-10.8h4.399c5.601,0,5.601,0.2-1.1,17l-5.1,13.1l5.3,12.9   c4.6,11.4,5.399,12.7,6.1,10.5c0.5-1.4,5.5-14,11.101-28l10.1-25.5h5c4.4,0,5,0.2,4.9,2c-0.101,1.1-6.2,16.4-13.601,34l-13.5,32   h-4.7h-4.8l-3.3-8c-1.8-4.4-4.6-11.1-6.2-14.8l-3-6.8l-5.8,13.8c-3.1,7.6-6.2,14.399-6.7,15.1   C1281.5,400.3,1274.4,400.4,1273.4,398.9z"/>
	<path fill="#1F1C1D" d="M1355.5,398.8c-0.3-0.7-0.4-16.2-0.3-34.3l0.3-33h5h5l0.3,29.7l0.2,29.8l18.3,0.2l18.2,0.3v4v4l-23.3,0.3   C1361.1,400,1355.8,399.8,1355.5,398.8z"/>
	<path fill="#1F1C1D" d="M1413.5,398.8c-0.3-0.7-0.4-16.2-0.3-34.3l0.3-33h5h5v34v34l-4.8,0.3C1415.5,400,1413.8,399.7,1413.5,398.8   z"/>
	<path fill="#1F1C1D" d="M1440.5,398.8c-0.3-0.7-0.4-16.2-0.3-34.3l0.3-33l4-0.3l4-0.3l20,25.3l20,25.2l0.5-24.9l0.5-25h5h5v34v34   h-4.5h-4.5l-19.5-24.3l-19.5-24.3l-0.5,24.3l-0.5,24.3l-4.8,0.3C1442.5,400,1440.8,399.7,1440.5,398.8z"/>
</g>
<g id="layer102">
	<path fill="#E61F2D" d="M63.4,418.5c-0.4-1-0.5-29.6-0.2-63.6l0.6-62l2.5-3.801c1.4-2.199,8.8-9.3,16.4-15.8   c13.8-12,35.3-33.6,35.3-35.6c0-0.601,4-5.2,8.9-10.2s9.3-10.3,9.6-11.7c1.3-5-1.3-9.7-10.1-18.3c-4.6-4.5-8.4-8.7-8.4-9.2   c0-2-22.5-24.6-36.1-36.4c-7.6-6.5-14.7-13.5-15.9-15.4l-2.3-3.7l-0.1-63.1c-0.1-51.2,0.1-63.2,1.2-63.2c0.7,0,6.5,5.6,12.7,12.5   L89,31.5v50.3c0,47.7,0.1,50.5,1.9,54.1c2.4,4.6,8.2,11.9,22.1,27.6c5.8,6.6,13,14.9,15.9,18.5c3.5,4.1,5.1,5.5,4.6,4   c-1.9-6.2-10.8-24.9-16.3-34.2c-3.4-5.7-6.6-12.5-7.2-15.3c-1.4-5.8-1.4-116.5-0.1-117.8c2.1-2.1,19.5,23.8,26.1,39   c7.8,17.7,8.1,19.5,9,51.8c1.1,38.1,1.1,168.2,0,205c-0.9,32.6-1.7,37.3-8.8,52.8c-6.3,13.4-24.6,40.7-26.3,39   c-1.3-1.3-1.3-111,0.1-116.8c0.6-2.7,3.8-9.5,7-15c7.1-12.1,19.3-38.4,16.1-34.9c-0.5,0.5-3.5,4.101-6.7,7.9   c-3.2,3.9-9.4,11.1-13.9,16c-12.6,14-19.4,22.3-21.5,26.5c-1.9,3.8-2,6.1-2,54.2v50.3L77.5,407c-6.3,6.9-11.9,12.6-12.5,12.8   C64.5,420,63.7,419.4,63.4,418.5z"/>
	<path fill="#E61F2D" d="M228.8,407.2l-11.7-12.7l-0.1-51v-51l-2.7-4c-3.8-5.7-9.1-12.1-22.8-27.5c-6.6-7.4-13.3-15.2-14.9-17.3   c-1.6-2.101-3-3.601-3.2-3.4c-1.1,1,9.4,23.101,17.9,38c3,5.2,4.9,9.9,5.6,14.101c1.4,7.8,1.5,115.199,0.2,116   c-1.3,0.8-8.7-7.7-15.4-17.7c-12.3-18.2-19-37.3-20.7-58.2c-2.6-33.4-1.9-198.6,1-243.5c1.2-19.4,5.5-30,21.6-54   c11-16.5,12-17.8,13.4-16.4c0.8,0.8,1,17.7,0.8,58.5c-0.4,65.3,0.6,58-10.3,77.4c-6.4,11.5-9.3,17.6-13.6,28.8l-1.9,5.2l2.2-3   c1.3-1.6,9.2-10.9,17.7-20.5c8.4-9.6,17.5-20.6,20.2-24.4l4.9-6.9V82.6l0.1-51.1L228.6,19c6.4-6.9,12.1-12.5,12.8-12.5   c1.5,0,2.2,120.3,0.6,125.7c-1.5,5.1-4.3,8.2-19.5,21.4C209.2,165,189,185.4,189,187.3c0,0.6-4,5.2-9,10.2c-14,14.3-14.1,16.5-1,30   c4.8,5,8.9,9.5,9.1,10.2c0.9,2.8,19,21.1,33.4,33.8c8.5,7.5,16.7,15.2,18.2,17.2l2.8,3.6v63.5c0,41.5-0.3,63.601-1,63.8   C241,419.8,235.2,414.2,228.8,407.2z"/>
	<path fill="#E61F2D" d="M427.6,280.1c-0.5-0.699,24.5-35.1,64.7-89.1c21.7-29,22.2-30,19.8-36.2c-0.5-1.3-19.3-27.3-41.899-57.8   c-22.601-30.5-40.8-55.8-40.5-56.2c0.2-0.5,12.3-0.8,26.8-0.8c23,0,27.1,0.2,32.4,1.9c7.6,2.4,13.6,5.9,18.3,10.8   c4.8,5,42.7,57,44.3,60.7l1.3,2.9l1.601-3.4c3.1-6.5,39.699-55.4,45.899-61.4c4.2-4.1,8.2-6.9,12.2-8.5c5.8-2.3,7-2.4,33.9-2.8   c17.1-0.2,28.199,0,28.8,0.6c0.899,0.9-10.4,16.6-65.601,91c-13.5,18.1-15.899,22-16.3,25.6c-0.3,2.5,0,5.3,0.7,6.6   c1.4,2.5,12,17.1,52,71c34.4,46.4,32.9,44.3,32.4,45.2c-0.301,0.5-11.9,0.8-25.7,0.8c-28.2,0-33.3-0.8-42.4-6.2   c-2.899-1.8-7.5-5.5-10.1-8.3c-5.5-5.6-43-56.1-45.7-61.4l-1.8-3.5l-2,4c-3.2,6.2-40.7,57.4-45.8,62.4   c-5.5,5.5-14.5,10.4-21.7,11.9C476.9,281.2,428.4,281.4,427.6,280.1z"/>
	<path fill="#E61F2D" d="M779.5,279.8c-0.3-0.7-0.4-54.8-0.3-120.3l0.3-119l58-0.3c55.4-0.2,58.4-0.1,66,1.8   c27.1,6.9,48.9,28.4,55.1,54.5c4.601,19.9-0.699,41.3-13.3,52.6l-4,3.6l3.3,1.2c8.301,3,19.9,20,24,35.1c2.4,8.8,2.5,26.2,0.101,35   c-6.9,25.6-26,45.1-53.2,54.1c-7,2.4-7,2.4-71.3,2.7C792.3,281,779.9,280.8,779.5,279.8z M904.7,222.3   c11.5-5.399,12.399-25.7,1.5-32.5c-3.601-2.3-4.3-2.3-36.9-2.6l-33.3-0.3v18.5V224h32.6C896.9,224,901.7,223.8,904.7,222.3z    M896.4,128.1c7.199-4.5,9.6-14.7,5.399-23.1c-4.2-8.2-5.2-8.5-37.5-8.8L836,95.9v17.6v17.7l28.3-0.4   C892.1,130.5,892.6,130.5,896.4,128.1z"/>
	<path fill="#E61F2D" d="M1041.7,280.3c-0.4-0.3-0.7-24.2-0.7-53c0-49.5-0.1-52.6-1.9-56.1c-1-2-14.399-20.6-29.699-41.2   C994.2,109.4,978.1,87.6,973.6,81.5c-4.5-6-12.899-17.5-18.899-25.4c-6.101-8.3-10.3-14.9-9.8-15.4S958.3,40,973.6,40.2l27.9,0.3   l6.7,3.2c11.3,5.3,13.7,8.1,48.1,55c5.3,7.3,10.5,14.8,11.4,16.8l1.7,3.6l1.399-2.8c1.3-2.5,7.2-10.6,35.5-49.2   c10.8-14.6,15.601-19.3,24.101-23.3l7.1-3.3l28.4-0.3c15.6-0.2,28.699,0,29.1,0.5c0.4,0.4-5.6,9.4-13.4,19.8   c-7.699,10.5-21.1,28.5-29.6,40c-8.5,11.6-22.6,30.7-31.4,42.5c-8.8,11.8-17.3,23.7-19,26.4l-3.1,4.9L1098,227.4l-0.5,53.1   l-27.6,0.3C1054.8,280.9,1042.1,280.7,1041.7,280.3z"/>
	<path fill="#E61F2D" d="M1270.7,280.3c-0.4-0.3-0.7-42.6-0.7-94V93h-32.4c-26.199,0-32.6-0.3-33.5-1.4c-0.8-0.9-1.1-8.7-0.899-26.2   l0.3-24.9h94.5h94.5v26v26l-32.7,0.3L1327,93l-0.2,93.8l-0.3,93.7l-27.6,0.3C1283.8,280.9,1271.1,280.7,1270.7,280.3z"/>
	<path fill="#E61F2D" d="M1413.5,279.8c-0.3-0.7-0.4-54.8-0.3-120.3l0.3-119h80h80l0.3,24.9c0.2,17.5-0.1,25.3-0.899,26.2   c-0.9,1.2-10.2,1.4-52.5,1.4H1469v20v20l42.3,0.2l42.2,0.3v26v26l-42.2,0.3L1469,186v21v21l52.3,0.2l52.2,0.3v26v26l-79.8,0.3   C1430.4,281,1413.8,280.8,1413.5,279.8z"/>
	<path fill="#E61F2D" d="M656.5,192.7c-0.3-0.7-0.4-12-0.3-25.2l0.3-24l40.9-0.3c29.6-0.2,41.199,0.1,42.3,0.9   c1.1,1,1.3,5.7,1.1,25.3l-0.3,24.1l-41.8,0.3C665.5,194,656.8,193.8,656.5,192.7z"/>
</g>
</svg>