<svg width="25" height="25" viewBox="0 0 25 25" fill="none" xmlns="http://www.w3.org/2000/svg">
<g opacity="0.6" clip-path="url(#clip0)">
<path fill-rule="evenodd" clip-rule="evenodd" d="M12.5 23.4375C15.4008 23.4375 18.1828 22.2852 20.234 20.234C22.2852 18.1828 23.4375 15.4008 23.4375 12.5C23.4375 9.59919 22.2852 6.8172 20.234 4.76602C18.1828 2.71484 15.4008 1.5625 12.5 1.5625C9.59919 1.5625 6.8172 2.71484 4.76602 4.76602C2.71484 6.8172 1.5625 9.59919 1.5625 12.5C1.5625 15.4008 2.71484 18.1828 4.76602 20.234C6.8172 22.2852 9.59919 23.4375 12.5 23.4375ZM12.5 25C15.8152 25 18.9946 23.683 21.3388 21.3388C23.683 18.9946 25 15.8152 25 12.5C25 9.18479 23.683 6.00537 21.3388 3.66117C18.9946 1.31696 15.8152 0 12.5 0C9.18479 0 6.00537 1.31696 3.66117 3.66117C1.31696 6.00537 0 9.18479 0 12.5C0 15.8152 1.31696 18.9946 3.66117 21.3388C6.00537 23.683 9.18479 25 12.5 25Z" fill="#EDEEFF"/>
<path d="M10.9998 13.9998C11.2442 14.2492 11.5359 14.4474 11.8579 14.5827C12.1798 14.718 12.5255 14.7877 12.8748 14.7877C13.224 14.7877 13.5697 14.718 13.8917 14.5827C14.2136 14.4474 14.5054 14.2492 14.7498 13.9998L17.7498 10.9998C18.247 10.5025 18.5264 9.82806 18.5264 9.12479C18.5264 8.42153 18.247 7.74708 17.7498 7.24979C17.2525 6.75251 16.578 6.47314 15.8748 6.47314C15.1715 6.47314 14.497 6.75251 13.9998 7.24979L13.6248 7.62479M13.9998 10.9998C13.7554 10.7503 13.4637 10.5522 13.1417 10.4169C12.8197 10.2816 12.474 10.2119 12.1248 10.2119C11.7756 10.2119 11.4298 10.2816 11.1079 10.4169C10.7859 10.5522 10.4942 10.7503 10.2498 10.9998L7.24979 13.9998C6.75251 14.4971 6.47314 15.1715 6.47314 15.8748C6.47314 16.578 6.75251 17.2525 7.24979 17.7498C7.74708 18.2471 8.42153 18.5264 9.12479 18.5264C9.82806 18.5264 10.5025 18.2471 10.9998 17.7498L11.3748 17.3748" stroke="#EDEEFF" stroke-width="1.5" stroke-linecap="round" stroke-linejoin="round"/>
</g>
<defs>
<clipPath id="clip0">
<rect width="25" height="25" fill="white"/>
</clipPath>
</defs>
</svg>
