<svg width="25" height="25" viewBox="0 0 25 25" fill="none" xmlns="http://www.w3.org/2000/svg">
<g opacity="0.6" clip-path="url(#clip0)">
<path fill-rule="evenodd" clip-rule="evenodd" d="M12.5 23.4375C15.4008 23.4375 18.1828 22.2852 20.234 20.234C22.2852 18.1828 23.4375 15.4008 23.4375 12.5C23.4375 9.59919 22.2852 6.8172 20.234 4.76602C18.1828 2.71484 15.4008 1.5625 12.5 1.5625C9.59919 1.5625 6.8172 2.71484 4.76602 4.76602C2.71484 6.8172 1.5625 9.59919 1.5625 12.5C1.5625 15.4008 2.71484 18.1828 4.76602 20.234C6.8172 22.2852 9.59919 23.4375 12.5 23.4375ZM12.5 25C15.8152 25 18.9946 23.683 21.3388 21.3388C23.683 18.9946 25 15.8152 25 12.5C25 9.18479 23.683 6.00537 21.3388 3.66117C18.9946 1.31696 15.8152 0 12.5 0C9.18479 0 6.00537 1.31696 3.66117 3.66117C1.31696 6.00537 0 9.18479 0 12.5C0 15.8152 1.31696 18.9946 3.66117 21.3388C6.00537 23.683 9.18479 25 12.5 25Z" fill="#EDEEFF"/>
<path d="M16.9997 8L13.208 18.5C13.1824 18.5558 13.1413 18.6032 13.0896 18.6364C13.0379 18.6695 12.9778 18.6872 12.9163 18.6872C12.8549 18.6872 12.7948 18.6695 12.7431 18.6364C12.6914 18.6032 12.6503 18.5558 12.6247 18.5L11.5 13.5L6.49967 12.375C6.44383 12.3494 6.3965 12.3083 6.36332 12.2566C6.33014 12.2049 6.3125 12.1448 6.3125 12.0833C6.3125 12.0219 6.33014 11.9618 6.36332 11.9101C6.3965 11.8583 6.44383 11.8173 6.49967 11.7917L16.9997 8Z" stroke="#EDEEFF" stroke-width="1.5" stroke-linecap="round" stroke-linejoin="round"/>
</g>
<defs>
<clipPath id="clip0">
<rect width="25" height="25" fill="white"/>
</clipPath>
</defs>
</svg>
