<svg width="216" height="187" viewBox="0 0 216 187" fill="none" xmlns="http://www.w3.org/2000/svg">
<path d="M73.4914 134.913C67.8888 134.95 62.3955 134.997 56.8614 135.194C56.6481 135.224 56.4517 135.327 56.305 135.485C56.1584 135.642 56.0704 135.846 56.0559 136.061C56.0413 136.276 56.1011 136.489 56.2251 136.665C56.3491 136.841 56.5299 136.97 56.7372 137.028C61.1623 138.009 73.0076 137.63 73.3372 137.701C73.5305 137.73 73.7277 137.719 73.9163 137.667C74.1049 137.616 74.2807 137.526 74.4324 137.403C74.5841 137.279 74.7084 137.126 74.7973 136.952C74.8861 136.778 74.9376 136.587 74.9484 136.392C74.9592 136.197 74.9291 136.001 74.8599 135.819C74.7908 135.636 74.6843 135.469 74.5471 135.33C74.4099 135.191 74.2451 135.082 74.0633 135.01C73.8815 134.938 73.6867 134.905 73.4914 134.913Z" fill="#FBA33C"/>
<path d="M72.4518 110.127C72.6358 110.152 72.8229 110.141 73.0024 110.093C73.1819 110.046 73.3503 109.963 73.498 109.851C73.6457 109.738 73.7698 109.598 73.8632 109.437C73.9566 109.277 74.0175 109.1 74.0424 108.916C74.0673 108.732 74.0557 108.544 74.0083 108.365C73.9608 108.185 73.8785 108.017 73.766 107.869C73.6535 107.722 73.513 107.598 73.3525 107.504C73.192 107.411 73.0147 107.35 72.8307 107.325C70.6021 107.229 56.8858 107.087 54.7428 107.858C54.5687 107.915 54.4172 108.026 54.3098 108.175C54.2024 108.323 54.1445 108.502 54.1445 108.685C54.1445 108.869 54.2024 109.047 54.3098 109.196C54.4172 109.345 54.5687 109.455 54.7428 109.513C57.3011 110.408 69.4525 110.001 72.4518 110.127Z" fill="#FBA33C"/>
<path d="M72.833 150.587C68.6284 150.373 61.9747 150.504 57.6331 150.587C56.4 150.587 56.415 152.97 57.6331 153.011C62.2145 153.137 68.0846 153.011 72.666 153.182C72.8728 153.282 73.1009 153.329 73.3303 153.32C73.5597 153.311 73.7834 153.246 73.9817 153.13C74.1799 153.014 74.3468 152.851 74.4675 152.656C74.5882 152.461 74.6592 152.239 74.6741 152.01C74.6891 151.781 74.6475 151.552 74.5532 151.342C74.4588 151.133 74.3145 150.95 74.1329 150.81C73.9513 150.669 73.738 150.575 73.5117 150.537C73.2855 150.498 73.0531 150.515 72.8351 150.587H72.833Z" fill="#FBA33C"/>
<path d="M36.9825 96.3715C40.457 96.4015 57.5216 97.1122 59.9022 95.8534C60.0831 95.7232 60.227 95.5482 60.3198 95.3455C60.4126 95.1429 60.4511 94.9196 60.4314 94.6976C60.4117 94.4755 60.3347 94.2624 60.2077 94.0792C60.0808 93.896 59.9083 93.749 59.7074 93.6526C58.5299 93.1774 39.3695 93.6526 36.7727 93.6526C34.9936 93.6098 35.2548 96.3565 36.9825 96.3715Z" fill="#FBA33C"/>
<path d="M52.5929 62.6493C55.6543 63.1246 65.866 63.0561 70.7214 63.2916C75.5768 63.5271 73.6779 61.0652 73.329 60.8404C71.2695 59.5238 55.62 60.014 52.6079 60.7419C51.7044 60.9966 51.5953 62.4952 52.5929 62.6493Z" fill="#FBA33C"/>
<path d="M36.1394 48.1916C38.0447 48.8745 53.0348 48.4057 57.9245 48.6818C59.6179 48.7782 59.59 46.2862 58.1386 45.8795C55.5053 45.1216 39.4919 45.0938 36.3021 46.2156C35.5228 46.4682 35.1996 47.8533 36.1394 48.1916Z" fill="#FBA33C"/>
<path d="M69.7393 75.4129C64.3465 75.7383 58.896 75.5092 53.5032 75.734C53.3241 75.7061 53.1412 75.7163 52.9663 75.7641C52.7915 75.8119 52.6287 75.8962 52.4887 76.0114C52.3488 76.1265 52.2348 76.2701 52.1542 76.4325C52.0737 76.5948 52.0285 76.7724 52.0215 76.9536C52.0145 77.1347 52.0459 77.3153 52.1137 77.4834C52.1814 77.6515 52.284 77.8034 52.4147 77.929C52.5453 78.0547 52.7011 78.1512 52.8717 78.2124C53.0424 78.2735 53.224 78.2978 53.4048 78.2838C59.4663 78.729 65.5514 78.7569 71.6168 78.3672C73.5093 78.3116 76.3802 75.0104 69.7393 75.4129Z" fill="#FBA33C"/>
<path d="M72.1991 120.16C67.1434 120.005 62.0831 120.122 57.0398 120.509C55.8774 120.691 55.9694 122.765 57.0398 122.778C62.028 122.892 67.029 122.877 72.0257 122.877C74.4555 122.892 75.3525 120.256 72.1991 120.16Z" fill="#FBA33C"/>
<path d="M27.4794 140.809C17.9398 146.411 10.92 161.823 17.7578 168.59C22.9965 162.088 28.9651 154.146 34.7518 148.359C32.02 146.158 29.5766 143.621 27.4794 140.809Z" fill="#FBA33C"/>
<path d="M45.5999 155.015C42.2077 153.567 39.0188 151.684 36.1138 149.412C31.4361 156.263 25.0179 163.422 19.7236 170.09C29.1369 176.016 42.9238 165.903 45.5999 155.015Z" fill="#FBA33C"/>
<path d="M25.62 139.929C25.62 134.198 24.0507 134.791 27.1464 131.13C28.645 129.379 30.5717 128.188 29.1224 127.165C27.673 126.142 23.8538 131.367 23.5177 132.945C23.3559 135.419 23.6217 137.902 24.3034 140.286C24.526 141.104 25.62 140.656 25.62 139.929Z" fill="#FBA33C"/>
<path d="M46.003 152.493C46.1726 150.557 45.8996 148.607 45.2045 146.792C47.9362 144.958 50.807 140.53 49.6167 137.503C49.5399 137.334 49.4074 137.196 49.2414 137.113C49.0753 137.029 48.8857 137.005 48.7041 137.044C48.5224 137.084 48.3597 137.184 48.243 137.329C48.1262 137.473 48.0625 137.653 48.0625 137.839C48.0553 139.208 47.6658 140.547 46.938 141.705C46.2102 142.864 45.173 143.796 43.9435 144.397C42.7821 142.674 41.245 141.237 39.4478 140.194C39.5697 138.904 39.9727 137.656 40.6284 136.538C41.2841 135.42 42.1767 134.459 43.2435 133.723C43.8322 133.174 43.3848 131.747 41.6464 132.671C39.3085 134.154 37.6095 136.457 36.8831 139.128C34.2467 138.5 31.474 138.807 29.0391 139.997C33.6264 145.445 39.4401 149.728 46.003 152.493Z" fill="#FBA33C"/>
<path d="M8.55372 139.885C15.9524 141.285 14.6337 138.483 19.1166 144.507C19.2428 144.638 19.4089 144.724 19.589 144.752C19.7692 144.779 19.9534 144.747 20.1131 144.659C20.2728 144.571 20.3991 144.433 20.4724 144.266C20.5458 144.1 20.5621 143.913 20.5188 143.736C19.9173 142.126 18.1232 138.637 16.3164 138.288C13.8501 137.783 11.3411 137.558 8.84915 137.279C8.66989 137.242 8.48482 137.243 8.30578 137.281C8.12673 137.319 7.95765 137.395 7.80932 137.502C7.661 137.609 7.5367 137.746 7.44435 137.905C7.35201 138.063 7.29366 138.238 7.27303 138.42C7.2524 138.602 7.26995 138.786 7.32454 138.961C7.37914 139.136 7.46959 139.297 7.59011 139.435C7.71063 139.573 7.85858 139.684 8.0245 139.762C8.19042 139.839 8.37066 139.881 8.55372 139.885Z" fill="#FBA33C"/>
<path d="M36.4487 171.434C37.365 173.361 38.3176 175.288 39.251 177.191C37.1916 177.277 35.1471 177.418 33.0876 177.446C32.8155 177.55 32.5825 177.736 32.4212 177.979C32.2598 178.221 32.178 178.508 32.1872 178.8C32.1964 179.091 32.2961 179.372 32.4724 179.604C32.6487 179.836 32.8929 180.007 33.1711 180.094C36.8704 180.205 43.1452 180.471 41.0921 175.889C37.3457 167.596 36.0205 170.529 36.4487 171.434Z" fill="#FBA33C"/>
<path d="M15.3775 150.03C12.9611 149.484 10.4705 149.347 8.00872 149.623C6.22969 150.156 5.51465 155.228 5.51465 156.517C5.53377 156.805 5.65453 157.077 5.85543 157.284C6.05632 157.492 6.32434 157.621 6.61179 157.65C6.89924 157.679 7.18748 157.604 7.42524 157.44C7.663 157.276 7.83486 157.033 7.91024 156.754C8.27418 155.142 8.58246 153.502 8.91857 151.864C11.0894 151.766 13.2752 151.695 15.4481 151.543C15.6117 151.49 15.7534 151.385 15.8512 151.243C15.9491 151.101 15.9977 150.932 15.9897 150.76C15.9817 150.588 15.9174 150.423 15.8068 150.291C15.6962 150.159 15.5454 150.068 15.3775 150.03Z" fill="#FBA33C"/>
<path d="M51.4436 150.911C51.2376 153.332 51.1626 155.762 51.2188 158.19C49.6495 158.723 48.0953 159.297 46.5089 159.76C45.6119 160.027 44.5822 162.562 50.3046 160.727C53.8777 159.578 53.5972 158.822 53.5544 152.964C53.5715 149.511 51.5934 149.815 51.4436 150.911Z" fill="#FBA33C"/>
<path d="M46.812 165.691C45.3134 165.432 42.3848 164.585 42.0636 165.691C41.5584 167.428 46.4759 167.092 47.6662 168.046C48.724 170.008 49.507 172.106 49.9933 174.28C50.9866 177.599 53.258 175.499 52.3889 173.803C50.2887 169.742 50.5242 166.334 46.812 165.691Z" fill="#FBA33C"/>
<path d="M149.915 72.8194C148.758 75.2711 148.485 78.0484 149.145 80.6784C154.55 75.4568 160.534 70.8692 166.98 67.0049C164.471 65.7576 161.629 65.345 158.868 65.8274C158.295 63.3205 155.955 59.6361 152.915 60.2249C152.766 60.2575 152.631 60.3334 152.525 60.443C152.42 60.5526 152.349 60.691 152.322 60.8407C152.295 60.9904 152.313 61.1448 152.373 61.2843C152.434 61.4239 152.534 61.5424 152.662 61.625C153.703 62.0073 154.605 62.6944 155.249 63.5969C155.894 64.4993 156.252 65.575 156.276 66.6837C154.377 67.6112 152.698 68.9338 151.352 70.5629C150.173 70.1723 149.184 69.3548 148.578 68.2712C147.971 67.1877 147.793 65.9165 148.077 64.7078C148.342 63.1664 145.807 63.404 146.186 67.2768C146.287 68.441 146.682 69.5606 147.334 70.5302C147.987 71.4998 148.875 72.2875 149.915 72.8194Z" fill="#FBA33C"/>
<path d="M171.211 67.202C171.082 67.9855 172.345 68.4629 172.722 67.735C173.924 65.5332 174.321 62.9812 173.844 60.5183C173.367 59.2445 171.183 54.9158 169.642 54.7616C168.507 54.6075 168.029 55.7828 169.318 57.3799C173.337 62.4237 171.999 62.3658 171.211 67.202Z" fill="#FBA33C"/>
<path d="M177.235 72.6925C181.439 70.4103 181.731 68.49 186.539 70.5902C187.519 71.0183 188.738 72.2022 189.844 71.9924C191.247 71.6563 190.433 70.1706 189.215 69.4427C183.82 66.2486 180.737 67.1456 176.186 71.4465C175.479 72.0631 176.409 73.142 177.235 72.6925Z" fill="#FBA33C"/>
<path d="M187.841 78.6758C186.45 77.6418 182.042 78.2284 180.374 78.5367C180.209 78.5844 180.063 78.6846 179.959 78.8223C179.856 78.9599 179.8 79.1276 179.8 79.2999C179.8 79.4722 179.856 79.6398 179.959 79.7775C180.063 79.9151 180.209 80.0154 180.374 80.0631C185.698 80.8338 185.825 78.5923 190.07 83.6789C192.157 86.2008 193.6 84.1692 191.751 82.1803C190.551 80.9015 189.243 79.7289 187.841 78.6758Z" fill="#FBA33C"/>
<path d="M148.717 84.4893C146.527 84.0012 142.875 84.6156 141.626 84.2945C140.378 83.9734 138.223 79.9079 136.317 80.0899C135.63 80.0899 134.804 81.1132 136.499 82.8923C139.456 85.9472 139.665 86.7736 141.866 86.8293C144.135 86.8904 146.404 86.6696 148.618 86.172C149.312 85.8766 149.618 84.6927 148.717 84.4893Z" fill="#FBA33C"/>
<path d="M161.563 97.9262C161.758 97.1127 160.583 96.4127 160.163 97.254C156.738 103.796 158.005 104.511 160.891 110.367C162.417 113.479 164.128 111.18 163.145 109.596C158.812 102.647 159.913 104.886 161.563 97.9262Z" fill="#FBA33C"/>
<path d="M149.68 82.4879C153.126 92.2929 166.113 100.826 174.254 96.1892C171.073 91.0897 160.44 79.2231 157.905 75.4531C155.115 77.6667 152.399 80.0923 149.68 82.4879Z" fill="#FBA33C"/>
<path d="M151.781 91.1017C150.142 92.0115 147.072 94.5762 146.857 96.5094C146.506 99.0184 146.558 101.567 147.012 104.06C147.132 104.345 147.356 104.574 147.638 104.701C147.921 104.827 148.241 104.84 148.534 104.739C148.826 104.638 149.069 104.429 149.213 104.155C149.357 103.881 149.391 103.562 149.309 103.264C149.043 102.253 148.96 96.6657 149.647 95.8779C150.752 94.634 151.901 93.4138 152.925 92.0972C153.449 91.4228 152.383 90.7677 151.781 91.1017Z" fill="#FBA33C"/>
<path d="M169.009 68.0996C168.602 68.6027 160.379 73.7022 159.118 74.5221C165.618 79.2319 171.726 88.2512 176.393 94.5688C183.804 87.5169 177.934 73.745 169.009 68.0996Z" fill="#FBA33C"/>
<path d="M207.763 24.625C141.203 24.625 73.0581 24.807 6.75009 24.625C5.6283 24.625 5.85309 26.3077 6.93206 26.3377C73.8844 27.2903 141.428 26.7423 208.001 26.8557C209.459 26.8943 209.221 24.625 207.763 24.625Z" fill="#5F6DFB"/>
<path d="M198.699 186.036C211.868 185.832 215.105 180.255 215.092 169.517C215.092 120.62 214.488 71.546 214.811 22.6794C214.895 9.62031 214.811 0.414738 197.775 0.262739C138.611 -0.35382 80.7781 0.346233 21.9224 0.0679245C6.67965 -0.0326945 2.08543 5.82462 1.79856 20.6199C0.892986 69.7948 1.00217 118.606 1.00217 167.078C1.00217 179.923 6.35425 186.691 19.1029 186.691C77.4148 186.958 141.567 186.911 198.699 186.036ZM17.9725 184.267C6.44202 184.171 3.07877 177.202 3.1066 167.192C3.23291 117.931 2.99528 68.7287 3.62469 18.5305C3.8088 5.34936 11.4302 1.9433 22.175 2.12527C81.5766 3.07794 138.737 1.77631 197.886 2.50419C212.57 2.6883 213.073 10.3503 212.919 22.917C212.276 71.5867 213.173 120.986 212.919 169.082C212.848 177.78 210.594 183.484 199.147 183.597C143.333 184.141 17.9725 184.267 17.9725 184.267Z" fill="#5F6DFB"/>
<path d="M17.0711 18.2518C17.6053 18.2831 18.1404 18.2089 18.6459 18.0335C19.1514 17.858 19.6173 17.5847 20.0172 17.2292C20.4171 16.8736 20.743 16.4428 20.9764 15.9613C21.2098 15.4798 21.346 14.957 21.3774 14.4229C21.4087 13.8887 21.3345 13.3536 21.1591 12.8481C20.9836 12.3426 20.7103 11.8766 20.3548 11.4768C19.9992 11.0769 19.5684 10.7509 19.0869 10.5176C18.6054 10.2842 18.0827 10.1479 17.5485 10.1166C10.7128 9.69271 12.4041 18.3759 17.0711 18.2518ZM17.2959 12.2125C17.7667 12.2716 18.1976 12.5067 18.5021 12.8707C18.8065 13.2346 18.9619 13.7003 18.9369 14.1741C18.912 14.6479 18.7085 15.0947 18.3676 15.4247C18.0266 15.7546 17.5733 15.9432 17.0989 15.9525C16.841 15.9576 16.5848 15.9094 16.3463 15.8111C16.1078 15.7127 15.8921 15.5663 15.7127 15.3809C15.5333 15.1955 15.3941 14.9751 15.3036 14.7335C15.2132 14.4919 15.1735 14.2342 15.1871 13.9766C15.2007 13.719 15.2672 13.4669 15.3825 13.2362C15.4978 13.0054 15.6594 12.8008 15.8573 12.6353C16.0552 12.4698 16.285 12.3468 16.5325 12.274C16.7801 12.2013 17.0399 12.1803 17.2959 12.2125Z" fill="#5F6DFB"/>
<path d="M31.6886 18.3076C38.8176 18.7572 37.7407 9.66294 31.5045 9.48097C25.8356 9.31185 25.72 17.9244 31.6886 18.3076ZM31.5623 11.6111C34.7286 12.0221 35.7647 16.3209 31.6736 15.912C27.5825 15.5031 29.7961 11.382 31.5623 11.6111Z" fill="#5F6DFB"/>
<path d="M46.8437 18.7001C53.9599 18.135 52.4484 9.1456 46.3107 9.22909C40.736 9.31473 40.372 19.2097 46.8437 18.7001ZM46.3407 11.2201C49.5348 11.1922 51.3138 16.1654 46.6339 16.3881C43.5661 16.5422 43.0331 11.2479 46.3407 11.2201Z" fill="#5F6DFB"/>
<path d="M132.221 59.9607C122.975 59.7466 98.2207 58.5584 89.8843 60.3524C88.9038 60.5665 89.0858 62.0651 89.9828 62.2428C92.5325 62.7759 128.37 63.3132 132.335 62.3134C133.553 62.0052 133.356 59.9864 132.221 59.9607Z" fill="#5F6DFB"/>
<path d="M168.76 135.028C156.936 135.21 111.405 135.169 90.4179 135.783C90.1937 135.816 89.9886 135.928 89.8403 136.099C89.692 136.27 89.6104 136.489 89.6104 136.716C89.6104 136.942 89.692 137.161 89.8403 137.332C89.9886 137.504 90.1937 137.616 90.4179 137.648C109.78 139.361 146.694 138.53 168.396 137.648C170.091 137.616 170.526 134.996 168.76 135.028Z" fill="#5F6DFB"/>
<path d="M175.637 120.358C147.618 120.861 119.515 120.358 91.5794 121.015C90.5561 121.015 90.4298 122.753 91.481 122.837C114.345 124.447 151.077 123.592 175.877 123.051C177.53 123.017 177.375 120.326 175.637 120.358Z" fill="#5F6DFB"/>
<path d="M90.4983 109.931C95.8782 111.334 124.653 111.068 130.202 110.927C131.868 110.927 131.602 108.358 129.977 108.358C119.89 108.358 99.5348 106.872 90.5668 108.219C90.361 108.242 90.1702 108.338 90.0291 108.49C89.888 108.641 89.8058 108.839 89.7976 109.046C89.7893 109.253 89.8554 109.456 89.9839 109.618C90.1125 109.781 90.295 109.892 90.4983 109.931Z" fill="#5F6DFB"/>
<path d="M91.2127 78.7458C99.4819 79.2491 107.773 79.287 116.046 78.8593C118.187 78.8593 117.896 76.4209 116.145 76.4915C111.662 76.6307 95.6207 75.8043 90.928 76.6029C90.0352 76.7441 90.1316 78.6752 91.2127 78.7458Z" fill="#5F6DFB"/>
<path d="M150.548 149.931C134.618 150.573 104.385 150.573 90.0948 151.263C89.1142 151.263 89.1142 152.746 90.0948 152.943C96.0484 154.176 145.784 152.729 150.894 152.564C152.573 152.509 152.314 149.86 150.548 149.931Z" fill="#5F6DFB"/>
</svg>
