<svg width="102" height="40" viewBox="0 0 102 40" fill="none" xmlns="http://www.w3.org/2000/svg">
<path d="M20.3009 32.0903H9.7832V12.0508H10.7194V31.1343H19.3644V12.0508H20.3009V32.0903Z" fill="#0D1020"/>
<path d="M25.1076 35.8738H4.97461V15.834H5.9108V34.9178H24.1708V15.834H25.1076V35.8738Z" fill="#0D1020"/>
<path d="M15.5098 7.89258H14.5732V28.9625H15.5098V7.89258Z" fill="#0D1020"/>
<path d="M17.1284 5.75871C17.1284 6.93582 16.1936 7.89047 15.0401 7.89047C13.887 7.89047 12.9521 6.93582 12.9521 5.75871C12.9521 4.58126 13.887 3.62695 15.0401 3.62695C16.1936 3.62695 17.1284 4.58126 17.1284 5.75871Z" fill="#0D1020"/>
<path d="M21.7983 10.3407C21.7983 11.5182 20.8635 12.4725 19.71 12.4725C18.5569 12.4725 17.6221 11.5182 17.6221 10.3407C17.6221 9.16364 18.5569 8.20898 19.71 8.20898C20.8635 8.20898 21.7983 9.16364 21.7983 10.3407Z" fill="#0D1020"/>
<path d="M26.2236 15.8347C26.2236 16.7283 25.5137 17.4527 24.6387 17.4527C23.7633 17.4527 23.0537 16.7283 23.0537 15.8347C23.0537 14.9411 23.7633 14.2168 24.6387 14.2168C25.5137 14.2168 26.2236 14.9411 26.2236 15.8347Z" fill="#0D1020"/>
<path d="M7.02731 15.8347C7.02731 16.7283 6.31773 17.4527 5.44237 17.4527C4.567 17.4527 3.85742 16.7283 3.85742 15.8347C3.85742 14.9411 4.567 14.2168 5.44237 14.2168C6.31773 14.2168 7.02731 14.9411 7.02731 15.8347Z" fill="#0D1020"/>
<path d="M12.3384 10.3407C12.3384 11.5182 11.4035 12.4725 10.2501 12.4725C9.09697 12.4725 8.16211 11.5182 8.16211 10.3407C8.16211 9.16364 9.09697 8.20898 10.2501 8.20898C11.4035 8.20898 12.3384 9.16364 12.3384 10.3407Z" fill="#0D1020"/>
<path d="M31.7667 34.3791C30.864 33.3907 30.4131 32.1256 30.4131 30.5837C30.4131 29.0422 30.861 27.7955 31.7574 26.8436C32.6538 25.892 33.7818 25.4157 35.1415 25.4157C35.9838 25.4157 36.7208 25.6184 37.3525 26.0234C37.9842 26.4287 38.4628 26.9569 38.7874 27.6082V22.0625H40.4478V35.6965H38.7874V33.6333C38.4628 34.2962 37.9842 34.834 37.3525 35.2454C36.7208 35.6572 35.9838 35.863 35.1415 35.863C33.7939 35.8626 32.6695 35.3683 31.7667 34.3791ZM37.8037 33.3934C38.4595 32.7056 38.7874 31.7905 38.7874 30.6482C38.7874 29.5052 38.4595 28.5912 37.8037 27.903C37.1479 27.2148 36.3601 26.8712 35.4393 26.8712C34.5188 26.8712 33.7307 27.2025 33.0753 27.8662C32.4192 28.5294 32.0913 29.4322 32.0913 30.5745C32.0913 31.7172 32.4222 32.6445 33.084 33.3566C33.7454 34.069 34.5339 34.4252 35.4483 34.4252C36.3625 34.4252 37.1483 34.0816 37.8037 33.3934Z" fill="#0D1020"/>
<path d="M43.4982 34.3775C42.5954 33.3891 42.1445 32.1239 42.1445 30.5821C42.1445 29.0406 42.5924 27.7939 43.4888 26.8419C44.3852 25.8904 45.5133 25.4141 46.873 25.4141C47.7152 25.4141 48.4522 25.6167 49.0839 26.0217C49.7156 26.4271 50.1943 26.9552 50.5188 27.6066V25.5799H52.1793V35.6948H50.5188V33.6316C50.1943 34.2946 49.7156 34.8323 49.0839 35.2438C48.4522 35.6556 47.7152 35.8613 46.873 35.8613C45.5253 35.861 44.4006 35.3666 43.4982 34.3775ZM49.5352 33.3918C50.1909 32.7039 50.5188 31.7889 50.5188 30.6466C50.5188 29.5036 50.1909 28.5895 49.5352 27.9013C48.8794 27.2132 48.0916 26.8696 47.1708 26.8696C46.2503 26.8696 45.4622 27.2009 44.8067 27.8645C44.1506 28.5278 43.8227 29.4306 43.8227 30.5729C43.8227 31.7155 44.1536 32.6429 44.8154 33.3549C45.4769 34.0673 46.2653 34.4235 47.1798 34.4235C48.0939 34.4235 48.8794 34.08 49.5352 33.3918Z" fill="#0D1020"/>
<path d="M57.775 34.3315H59.129V35.6949H57.4682C55.7476 35.6949 54.8869 34.8289 54.8869 33.097V26.9433H53.6055V25.5799H54.8869V23.0742H56.5477V25.5799H59.1107V26.9433H56.5477V33.097C56.5477 33.5515 56.6383 33.8709 56.8188 34.0548C56.9996 34.239 57.3178 34.3315 57.775 34.3315Z" fill="#0D1020"/>
<path d="M61.2771 34.3775C60.3744 33.3891 59.9238 32.1239 59.9238 30.5821C59.9238 29.0406 60.3717 27.7939 61.2678 26.8419C62.1642 25.8904 63.2923 25.4141 64.6519 25.4141C65.4942 25.4141 66.2312 25.6167 66.8629 26.0217C67.4946 26.4271 67.9732 26.9552 68.2978 27.6066V25.5799H69.9583V35.6948H68.2978V33.6316C67.9732 34.2946 67.4946 34.8323 66.8629 35.2438C66.2309 35.6556 65.4939 35.8613 64.6519 35.8613C63.3043 35.861 62.1799 35.3666 61.2771 34.3775ZM67.3141 33.3918C67.9699 32.7039 68.2978 31.7889 68.2978 30.6466C68.2978 29.5036 67.9699 28.5895 67.3141 27.9013C66.6583 27.2132 65.8709 26.8696 64.9497 26.8696C64.0293 26.8696 63.2415 27.2009 62.586 27.8645C61.9299 28.5278 61.602 29.4306 61.602 30.5729C61.602 31.7155 61.9326 32.6429 62.5947 33.3549C63.2562 34.0673 64.0446 34.4235 64.9591 34.4235C65.8729 34.4235 66.6587 34.08 67.3141 33.3918Z" fill="#0D1020"/>
<path d="M73.9478 22.0625V27.2213C74.6219 26.0176 75.6982 25.4157 77.1785 25.4157C78.2728 25.4157 79.1882 25.7873 79.9219 26.5304C80.6555 27.2738 81.0229 28.3329 81.0229 29.7086V35.6965H79.3991V29.9849C79.3991 28.9658 79.1578 28.1916 78.6765 27.6635C78.1956 27.1353 77.5308 26.8712 76.6821 26.8712C75.8342 26.8712 75.1664 27.1353 74.6794 27.6635C74.1918 28.1916 73.9481 28.9655 73.9481 29.9849V35.6965H72.3057V22.0625H73.9478Z" fill="#0D1020"/>
<path d="M90.2616 25.5801H91.9041V35.695H90.2616V34.074C89.5998 35.2655 88.5226 35.8612 87.0309 35.8612C85.9363 35.8612 85.0208 35.4896 84.2875 34.7462C83.5535 34.0027 83.1865 32.9498 83.1865 31.5861V25.5801H84.8106V31.31C84.8106 32.3172 85.0542 33.088 85.5419 33.6223C86.0295 34.1566 86.6937 34.4237 87.5363 34.4237C88.3785 34.4237 89.043 34.1569 89.5306 33.6223C90.0183 33.0876 90.262 32.3172 90.262 31.31V25.5801H90.2616Z" fill="#0D1020"/>
<path d="M97.5003 34.3315H98.8543V35.6949H97.1935C95.4732 35.6949 94.6125 34.8289 94.6125 33.097V26.9433H93.3311V25.5799H94.6125V23.0742H96.273V25.5799H98.8359V26.9433H96.273V33.097C96.273 33.5515 96.3636 33.8709 96.5444 34.0548C96.7246 34.239 97.0431 34.3315 97.5003 34.3315Z" fill="#0D1020"/>
</svg>
